<svg width="442" height="322" viewBox="0 0 442 322" fill="none" xmlns="http://www.w3.org/2000/svg">
<path d="M128.161 139.03C127.322 140.867 126.439 142.889 125.67 144.849C124.902 146.81 124.116 148.832 123.436 150.845C122.048 154.813 120.99 158.889 120.275 163.032L120.081 164.33C120.062 164.552 120.083 164.777 120.142 164.992C120.351 165.724 120.679 166.416 121.114 167.041C122.248 168.657 123.563 170.139 125.035 171.456C126.586 172.899 128.213 174.258 129.909 175.527C131.605 176.834 133.388 178.106 135.146 179.306L133.494 182.406C129.298 180.578 125.315 178.295 121.617 175.598C119.644 174.159 117.863 172.473 116.319 170.582C115.403 169.456 114.689 168.18 114.208 166.811C113.929 165.956 113.786 165.062 113.784 164.162C113.784 163.95 113.784 163.641 113.784 163.491V163.058L113.873 162.175C114.379 157.574 115.346 153.036 116.76 148.629C117.449 146.456 118.182 144.293 119.021 142.182C119.86 140.072 120.725 138.006 121.794 135.86L128.161 139.03Z" fill="#E58A7B"/>
<path d="M133.901 178.759L140.144 175.598L138.528 182.45C138.528 182.45 134.245 183.651 132.258 181.567L133.901 178.759Z" fill="#E58A7B"/>
<path d="M145.857 176.719L144.197 182.388L138.528 182.45L140.144 175.598L145.857 176.719Z" fill="#E58A7B"/>
<path d="M154.67 105.968C155.004 107.192 155.469 108.376 156.057 109.5C155.885 109.695 155.664 109.84 155.417 109.919C155.169 109.998 154.905 110.009 154.653 109.951L154.67 105.968Z" fill="#DF5753"/>
<path d="M154.485 106.021C154.851 106.021 155.147 105.566 155.147 105.005C155.147 104.444 154.851 103.99 154.485 103.99C154.119 103.99 153.823 104.444 153.823 105.005C153.823 105.566 154.119 106.021 154.485 106.021Z" fill="#263238"/>
<path d="M154.291 104.025L155.633 103.645C155.633 103.645 154.979 104.687 154.291 104.025Z" fill="#263238"/>
<path d="M137.424 112.45C138.228 116.556 139.031 124.088 136.152 126.835C136.152 126.835 137.283 131.003 144.921 131.003C153.319 131.003 148.93 126.835 148.93 126.835C144.347 125.74 144.462 122.34 145.266 119.143L137.424 112.45Z" fill="#E58A7B"/>
<path d="M135.19 103.089C135.614 109.951 135.649 112.865 139.111 116.388C144.33 121.686 152.666 119.673 154.299 112.856C155.774 106.674 154.838 96.5014 148.118 93.7728C146.643 93.1651 145.037 92.9438 143.453 93.1297C141.868 93.3157 140.357 93.9028 139.063 94.8355C137.769 95.7682 136.734 97.0157 136.056 98.46C135.378 99.9042 135.08 101.498 135.19 103.089Z" fill="#E58A7B"/>
<path d="M135.87 95.3711C132.426 96.625 127.834 95.689 129.635 106.312C131.543 117.563 128.611 121.263 128.611 121.263C128.611 121.263 141.672 124.044 155.006 121.095C155.006 121.095 150.935 113.977 152.074 108.732C153.531 102.109 152.383 99.6628 152.383 99.6628C152.383 99.6628 140.709 93.605 135.87 95.3711Z" fill="#263238"/>
<path d="M150.44 106.666C150.444 107.97 150.818 109.247 151.518 110.348C152.454 111.778 153.558 111.231 153.831 109.712C154.079 108.379 153.893 106.021 152.701 105.102C151.509 104.184 150.458 105.085 150.44 106.666Z" fill="#E58A7B"/>
<path d="M132.876 96.5279C131.887 93.7462 136.603 89.4634 146.581 91.2295C156.56 92.9956 156.993 101.305 156.993 101.305L154.979 98.9033L155.068 101.429L144.815 103.398L132.876 96.5279Z" fill="#263238"/>
<path d="M133.724 127.303C133.665 126.9 133.766 126.489 134.005 126.159C134.244 125.829 134.603 125.606 135.004 125.537C138.113 125.024 145.177 123.982 148.727 124.477C151.376 124.848 152.065 126.384 152.18 127.647C152.198 127.868 152.168 128.091 152.093 128.299C152.018 128.508 151.899 128.698 151.744 128.857C151.59 129.016 151.403 129.14 151.196 129.221C150.989 129.302 150.768 129.337 150.546 129.325L135.199 128.636C134.837 128.618 134.492 128.475 134.224 128.232C133.955 127.989 133.778 127.661 133.724 127.303Z" fill="#4CAF4F"/>
<path opacity="0.6" d="M133.724 127.303C133.665 126.9 133.766 126.489 134.005 126.159C134.244 125.829 134.603 125.606 135.004 125.537C138.113 125.024 145.177 123.982 148.727 124.477C151.376 124.848 152.065 126.384 152.18 127.647C152.198 127.868 152.168 128.091 152.093 128.299C152.018 128.508 151.899 128.698 151.744 128.857C151.59 129.016 151.403 129.14 151.196 129.221C150.989 129.302 150.768 129.337 150.546 129.325L135.199 128.636C134.837 128.618 134.492 128.475 134.224 128.232C133.955 127.989 133.778 127.661 133.724 127.303Z" fill="black"/>
<path d="M142.599 281.574L148.295 285.53L157.823 272.611L152.127 268.664L142.599 281.574Z" fill="#E58A7B"/>
<path d="M129.317 281.318L135.331 284.745L143.764 271.084L137.751 267.657L129.317 281.318Z" fill="#E58A7B"/>
<path d="M157.814 272.611L152.904 279.27L147.208 275.322L152.118 268.664L157.814 272.611Z" fill="#CF6F64"/>
<path d="M137.742 267.657L143.764 271.092L139.42 278.13L133.397 274.695L137.742 267.657Z" fill="#CF6F64"/>
<path d="M147.403 170.432C147.403 170.432 169.638 198.451 165.461 225.252C162.097 246.896 142.581 276.205 142.581 276.205L133.406 271.649C139.873 258.69 145.392 245.279 149.919 231.522C151.315 227.251 151.723 222.719 151.111 218.267C150.499 213.815 148.884 209.561 146.387 205.825C135.119 189.373 117.069 199.167 129.211 170.432H147.403Z" fill="#4CAF4F"/>
<path opacity="0.6" d="M147.403 170.432C147.403 170.432 169.638 198.451 165.461 225.252C162.097 246.896 142.581 276.205 142.581 276.205L133.406 271.649C139.873 258.69 145.392 245.279 149.919 231.522C151.315 227.251 151.723 222.719 151.111 218.267C150.499 213.815 148.884 209.561 146.387 205.825C135.119 189.373 117.069 199.167 129.211 170.432H147.403Z" fill="black"/>
<path opacity="0.4" d="M158.309 188.429L155.076 185.214C155.076 185.47 161.337 224.122 163.095 234.984C164.132 231.811 164.926 228.564 165.47 225.27C167.537 212.121 163.218 198.69 158.309 188.429Z" fill="black"/>
<path d="M157.328 170.432C157.328 170.432 184.103 205.648 184.862 226.762C185.489 244.424 155.721 278.643 155.721 278.643L147.067 273.044C147.067 273.044 164.49 248.742 168.879 228.891C167.183 209.216 131.331 170.432 131.331 170.432H157.328Z" fill="#4CAF4F"/>
<path opacity="0.6" d="M157.328 170.432C157.328 170.432 184.103 205.648 184.862 226.762C185.489 244.424 155.721 278.643 155.721 278.643L147.067 273.044C147.067 273.044 164.49 248.742 168.879 228.891C167.183 209.216 131.331 170.432 131.331 170.432H157.328Z" fill="black"/>
<path d="M124.204 128.407C121.343 129.087 118.597 139.489 118.597 139.489L129.785 146.96C129.785 146.96 133.512 138.73 132.205 135.127C130.854 131.374 127.799 127.55 124.204 128.407Z" fill="#4CAF4F"/>
<path opacity="0.2" d="M126.394 135.109L125.617 144.178L129.777 146.969C130.925 144.383 131.775 141.675 132.311 138.897L126.394 135.109Z" fill="black"/>
<path d="M160.64 128.61C160.64 128.61 163.942 129.766 157.328 170.423H129.194C129.671 158.943 129.679 151.878 124.204 128.407C128.144 127.595 132.137 127.069 136.152 126.835C140.406 126.53 144.676 126.53 148.93 126.835C154.423 127.338 160.64 128.61 160.64 128.61Z" fill="#4CAF4F"/>
<path d="M163.501 135.109C164.137 136.875 164.808 138.774 165.514 140.602C166.221 142.43 166.892 144.311 167.607 146.165L169.771 151.711L170.318 153.097L170.601 153.786L170.733 154.13C170.733 154.192 170.733 154.192 170.733 154.183C170.572 153.956 170.36 153.768 170.115 153.636C169.766 153.43 169.372 153.312 168.967 153.291C168.631 153.281 168.296 153.344 167.987 153.477C167.581 153.662 167.581 153.742 167.589 153.733C167.663 153.674 167.728 153.606 167.784 153.53C168.273 152.888 168.696 152.199 169.047 151.472C169.462 150.66 169.859 149.794 170.256 148.92C171.033 147.154 171.749 145.326 172.464 143.48C173.179 141.635 173.859 139.772 174.522 137.891L176.535 132.257L179.935 133.14C179.264 137.167 178.398 141.087 177.356 145.079C176.853 147.066 176.261 149.035 175.59 151.022C175.254 152.02 174.884 153.009 174.46 154.024C174.018 155.126 173.474 156.185 172.835 157.186C172.6 157.523 172.34 157.841 172.058 158.139C171.607 158.626 171.06 159.014 170.451 159.279C169.91 159.51 169.325 159.619 168.737 159.596C168.079 159.572 167.438 159.38 166.874 159.04C166.209 158.625 165.657 158.052 165.267 157.371C165.135 157.142 165.02 156.912 164.94 156.744L164.772 156.409L164.437 155.72L163.766 154.351C162.883 152.514 162 150.66 161.231 148.797C160.463 146.933 159.651 145.044 158.891 143.145C158.132 141.246 157.452 139.348 156.807 137.299L163.501 135.109Z" fill="#E58A7B"/>
<path d="M160.64 128.61C164.022 129.413 167.828 139.41 167.828 139.41L157.77 147.966C157.77 147.966 151.262 137.069 152.577 133.475C153.946 129.731 156.224 127.559 160.64 128.61Z" fill="#4CAF4F"/>
<path d="M178.133 129.095L181.666 126.146L184.121 129.97L182.31 133.157C182.31 133.157 179.431 135.807 176.888 134.456C176.485 133.548 176.388 132.534 176.612 131.567C176.837 130.6 177.371 129.732 178.133 129.095Z" fill="#E58A7B"/>
<path d="M188.041 126.155L187.776 127.117L182.187 128.053L181.639 126.146L188.041 126.155Z" fill="#E58A7B"/>
<path d="M156.41 279.093L146.325 272.576L148.136 269.432L159.465 276.4L156.41 279.093Z" fill="#4CAF4F"/>
<path d="M139.278 284.285C138.394 284.177 137.543 283.876 136.788 283.402C136.757 283.391 136.73 283.371 136.711 283.344C136.692 283.317 136.681 283.285 136.681 283.252C136.681 283.219 136.692 283.187 136.711 283.16C136.73 283.133 136.757 283.113 136.788 283.102C137.062 283.014 139.437 282.281 140.126 282.846C140.204 282.91 140.262 282.994 140.297 283.089C140.331 283.184 140.339 283.286 140.32 283.385C140.308 283.544 140.255 283.697 140.167 283.83C140.079 283.963 139.959 284.071 139.817 284.144C139.652 284.234 139.467 284.283 139.278 284.285ZM137.292 283.314C138.395 283.879 139.278 284.082 139.702 283.87C139.795 283.819 139.872 283.745 139.928 283.656C139.984 283.566 140.015 283.464 140.02 283.358C140.02 283.217 140.02 283.155 139.941 283.12C139.57 282.819 138.245 283.049 137.274 283.314H137.292Z" fill="#263238"/>
<path d="M136.85 283.464C136.803 283.463 136.759 283.444 136.726 283.411C136.713 283.387 136.706 283.359 136.706 283.332C136.706 283.304 136.713 283.277 136.726 283.252C136.726 283.173 137.3 281.256 138.201 280.824C138.316 280.771 138.441 280.744 138.568 280.744C138.694 280.744 138.819 280.771 138.934 280.824C139.058 280.863 139.165 280.942 139.239 281.05C139.313 281.157 139.348 281.286 139.34 281.415C139.278 282.21 137.662 283.305 136.921 283.491L136.85 283.464ZM138.563 281.053C138.477 281.056 138.393 281.077 138.316 281.115C137.768 281.38 137.318 282.413 137.097 283.04C137.874 282.713 138.943 281.848 138.978 281.362C138.978 281.283 138.978 281.186 138.775 281.097C138.709 281.062 138.637 281.038 138.563 281.027V281.053Z" fill="#263238"/>
<path d="M151.88 288.1C150.882 288.1 149.495 286.82 148.736 286.034C148.717 286.007 148.706 285.974 148.706 285.941C148.706 285.908 148.717 285.875 148.736 285.848C148.753 285.82 148.778 285.797 148.808 285.781C148.837 285.766 148.87 285.758 148.904 285.76C149.257 285.76 152.321 286.219 152.754 287.085C152.8 287.162 152.824 287.251 152.824 287.341C152.824 287.431 152.8 287.519 152.754 287.597C152.689 287.732 152.591 287.848 152.469 287.934C152.347 288.021 152.205 288.075 152.056 288.091L151.88 288.1ZM149.319 286.157C150.431 287.235 151.412 287.835 151.968 287.765C152.065 287.752 152.158 287.715 152.238 287.658C152.318 287.602 152.383 287.526 152.427 287.438C152.447 287.408 152.458 287.372 152.458 287.336C152.458 287.3 152.447 287.265 152.427 287.235C152.198 286.758 150.564 286.352 149.319 286.157Z" fill="#263238"/>
<path d="M149.416 286.113C149.218 286.119 149.02 286.104 148.824 286.069C148.797 286.065 148.771 286.054 148.75 286.037C148.728 286.02 148.711 285.997 148.701 285.972C148.688 285.946 148.681 285.917 148.681 285.888C148.681 285.859 148.688 285.83 148.701 285.804C148.754 285.742 149.946 284.303 151.076 284.206C151.396 284.181 151.713 284.282 151.959 284.488C152.304 284.789 152.286 285.054 152.198 285.221C151.977 285.822 150.449 286.113 149.416 286.113ZM149.186 285.787C150.175 285.84 151.756 285.513 151.959 285.08C151.959 285.08 152.03 284.939 151.8 284.745C151.709 284.665 151.602 284.605 151.487 284.569C151.371 284.532 151.25 284.52 151.129 284.533C150.368 284.745 149.69 285.186 149.186 285.795V285.787Z" fill="#263238"/>
<path d="M137.088 282.51L129.6 280.391C129.471 280.352 129.332 280.362 129.21 280.419C129.088 280.476 128.991 280.576 128.938 280.7L126.412 286.378C126.353 286.524 126.325 286.68 126.33 286.837C126.336 286.994 126.374 287.148 126.444 287.289C126.513 287.43 126.611 287.555 126.732 287.655C126.853 287.755 126.994 287.829 127.145 287.871C129.794 288.559 131.066 288.754 134.36 289.699C136.391 290.264 139.287 291.315 142.087 292.109C144.886 292.904 145.822 290.175 144.736 289.593C139.826 286.996 139.437 285.177 138.095 283.234C137.855 282.883 137.498 282.626 137.088 282.51Z" fill="#4CAF4F"/>
<path d="M148.939 285.001L142.546 280.585C142.437 280.506 142.304 280.47 142.17 280.483C142.037 280.496 141.913 280.558 141.822 280.656L137.583 285.213C137.48 285.33 137.403 285.469 137.357 285.619C137.311 285.768 137.298 285.926 137.318 286.082C137.338 286.237 137.391 286.386 137.473 286.52C137.555 286.653 137.665 286.767 137.795 286.855C140.047 288.365 141.212 288.974 144.029 290.926C145.795 292.127 149.213 294.794 151.597 296.454C153.981 298.114 155.756 295.836 154.909 294.935C151.111 290.882 150.281 288.339 149.654 286.034C149.546 285.616 149.292 285.25 148.939 285.001Z" fill="#4CAF4F"/>
<path d="M143.756 276.788L132.232 271.057L133.424 267.931L145.734 273.971L143.756 276.788Z" fill="#4CAF4F"/>
<path d="M128.77 168.771L127.799 171.315C127.701 171.509 127.931 171.712 128.258 171.712H157.47C157.726 171.712 157.938 171.588 157.955 171.43L158.202 168.904C158.202 168.736 157.999 168.586 157.726 168.586H129.229C129.143 168.578 129.057 168.591 128.977 168.623C128.897 168.655 128.826 168.706 128.77 168.771Z" fill="#4CAF4F"/>
<path opacity="0.4" d="M128.77 168.771L127.799 171.315C127.701 171.509 127.931 171.712 128.258 171.712H157.47C157.726 171.712 157.938 171.588 157.955 171.43L158.202 168.904C158.202 168.736 157.999 168.586 157.726 168.586H129.229C129.143 168.578 129.057 168.591 128.977 168.623C128.897 168.655 128.826 168.706 128.77 168.771Z" fill="white"/>
<path d="M133.371 171.959H132.602C132.452 171.959 132.338 171.88 132.346 171.783L132.708 168.507C132.708 168.418 132.85 168.339 133 168.339H133.768C133.918 168.339 134.033 168.418 134.024 168.507L133.662 171.783C133.653 171.88 133.521 171.959 133.371 171.959Z" fill="#4CAF4F"/>
<path d="M151.385 171.959H150.626C150.476 171.959 150.361 171.88 150.37 171.783L150.723 168.507C150.723 168.418 150.873 168.339 151.023 168.339H151.783C151.933 168.339 152.056 168.418 152.039 168.507L151.686 171.783C151.641 171.88 151.544 171.959 151.385 171.959Z" fill="#4CAF4F"/>
<g style="mix-blend-mode:multiply">
<path d="M132.7 321.507C145.765 321.507 156.357 320.74 156.357 319.793C156.357 318.847 145.765 318.08 132.7 318.08C119.634 318.08 109.042 318.847 109.042 319.793C109.042 320.74 119.634 321.507 132.7 321.507Z" fill="#F5F5F5"/>
</g>
<path d="M147.111 317.374C142.925 316.155 138.281 314.592 135.472 312.958C135.393 312.905 135.305 312.879 135.225 312.835V293.884H143.694C144.337 293.846 144.941 293.564 145.382 293.095C145.824 292.627 146.07 292.007 146.07 291.363C146.07 290.719 145.824 290.099 145.382 289.631C144.941 289.162 144.337 288.88 143.694 288.842H135.269V202.46H130.183V288.842H121.767C121.424 288.822 121.079 288.872 120.756 288.989C120.432 289.107 120.136 289.289 119.886 289.525C119.635 289.761 119.436 290.046 119.299 290.362C119.163 290.678 119.092 291.019 119.092 291.363C119.092 291.707 119.163 292.048 119.299 292.364C119.436 292.68 119.635 292.965 119.886 293.201C120.136 293.437 120.432 293.619 120.756 293.737C121.079 293.854 121.424 293.905 121.767 293.884H130.183V312.808C130.103 312.808 130.024 312.879 129.944 312.932C127.092 314.592 122.482 316.155 118.297 317.347C118.014 317.433 117.771 317.617 117.612 317.866C117.453 318.115 117.389 318.412 117.431 318.705C117.472 318.997 117.617 319.265 117.839 319.46C118.061 319.655 118.346 319.764 118.641 319.767H146.767C147.049 319.748 147.316 319.632 147.524 319.44C147.731 319.247 147.866 318.99 147.906 318.71C147.947 318.43 147.89 318.144 147.745 317.901C147.6 317.658 147.377 317.472 147.111 317.374Z" fill="#E0E0E0"/>
<path d="M148.409 193.665H117.008C114.481 193.665 112.433 195.713 112.433 198.239V207.573C112.433 210.1 114.481 212.148 117.008 212.148H148.409C150.936 212.148 152.984 210.1 152.984 207.573V198.239C152.984 195.713 150.936 193.665 148.409 193.665Z" fill="#4CAF4F"/>
<path d="M116.716 212.156V213.764C116.716 215.088 118.155 216.166 119.922 216.166H145.531C147.297 216.166 148.736 215.088 148.736 213.764V212.156H116.716Z" fill="#4CAF4F"/>
<path opacity="0.3" d="M116.716 212.156V213.764C116.716 215.088 118.155 216.166 119.922 216.166H145.531C147.297 216.166 148.736 215.088 148.736 213.764V212.156H116.716Z" fill="white"/>
</svg>
