<svg width="442" height="322" viewBox="0 0 442 322" fill="none" xmlns="http://www.w3.org/2000/svg">
<path d="M308.411 95.7508L299.651 92.2185C299.651 92.2185 288.091 113.297 284.78 114.366C280.276 115.814 270.951 119.841 265.423 120.547C264.672 121.43 263.445 124.177 263.56 125.175C270.986 127.656 287.305 124.362 290.802 121.766C298.759 115.876 308.411 95.7508 308.411 95.7508Z" fill="#E58A7B"/>
<path d="M311.104 90.9558C312.738 96.9871 303.889 109.12 303.889 109.12L292.295 102.621C292.295 102.621 294.467 97.6317 297.116 92.5541C301.364 84.3504 309.241 84.0767 311.104 90.9558Z" fill="#4CAF4F"/>
<path opacity="0.2" d="M311.104 90.9558C312.738 96.9871 303.889 109.12 303.889 109.12L292.295 102.621C292.295 102.621 294.467 97.6317 297.116 92.5541C301.364 84.3504 309.241 84.0767 311.104 90.9558Z" fill="black"/>
<path opacity="0.2" d="M296.896 105.217L301.461 107.778L302.265 93.7639C299.607 95.8038 297.734 101.95 296.896 105.217Z" fill="black"/>
<path d="M303.474 86.4168C303.474 86.4168 294.449 106.498 299.712 143.887H335.274C335.839 138.429 333.967 111.796 340.74 86.0812C336.839 85.3188 332.892 84.8144 328.924 84.5712C323.892 84.2796 318.847 84.2796 313.815 84.5712C310.327 84.9254 306.87 85.5424 303.474 86.4168Z" fill="#4CAF4F"/>
<path opacity="0.2" d="M303.474 86.4168C303.474 86.4168 294.449 106.498 299.712 143.887H335.274C335.839 138.429 333.967 111.796 340.74 86.0812C336.839 85.3188 332.892 84.8144 328.924 84.5712C323.892 84.2796 318.847 84.2796 313.815 84.5712C310.327 84.9254 306.87 85.5424 303.474 86.4168Z" fill="black"/>
<g style="mix-blend-mode:multiply">
<path d="M295.226 319.793C295.173 320.747 308.658 321.515 325.339 321.515C342.02 321.515 355.602 320.747 355.655 319.793C355.708 318.84 342.232 318.08 325.542 318.08C308.852 318.08 295.288 318.849 295.226 319.793Z" fill="#E8ECF1"/>
</g>
<path d="M318.964 294.734L312.657 297.176L318.09 311.211L324.397 308.77L318.964 294.734Z" fill="#E58A7B"/>
<path d="M347.089 313.003H340.439L338.002 297.611H344.652L347.089 313.003Z" fill="#E58A7B"/>
<path d="M339.98 312.234H347.451C347.581 312.235 347.706 312.281 347.804 312.365C347.903 312.449 347.969 312.566 347.99 312.694L348.952 318.601C348.972 318.75 348.961 318.9 348.917 319.044C348.874 319.187 348.801 319.319 348.702 319.431C348.603 319.544 348.481 319.633 348.344 319.694C348.208 319.755 348.06 319.786 347.91 319.785C345.305 319.74 344.051 319.581 340.766 319.581C338.744 319.581 334.585 319.793 331.777 319.793C328.968 319.793 328.783 317.038 329.94 316.782C335.132 315.661 337.146 314.133 338.876 312.649C339.182 312.381 339.574 312.234 339.98 312.234Z" fill="#263238"/>
<path d="M317.904 309.956L324.968 307.89C325.094 307.854 325.229 307.863 325.349 307.914C325.47 307.966 325.569 308.057 325.63 308.172L328.28 313.471C328.341 313.605 328.373 313.751 328.372 313.899C328.371 314.047 328.338 314.193 328.275 314.327C328.212 314.46 328.12 314.579 328.007 314.673C327.893 314.768 327.76 314.837 327.617 314.875C325.048 315.581 323.326 316.014 320.111 316.95C317.895 317.595 315.634 318.645 313.444 319.343C311.925 319.829 308.358 319.846 306.512 319.846C303.783 319.846 303.174 316.968 304.349 316.835C307.307 316.508 307.704 316.659 309.338 315.837C312.011 314.669 314.434 312.996 316.473 310.91C316.858 310.471 317.351 310.142 317.904 309.956Z" fill="#263238"/>
<path d="M266.536 120.512L259.224 117.448L256.213 125.554C259.21 126.011 262.258 126.011 265.255 125.554L266.536 120.512Z" fill="#E58A7B"/>
<path d="M253.784 117.236L253.59 122.622L256.213 125.537L259.224 117.43L253.784 117.236Z" fill="#E58A7B"/>
<path d="M319.829 295.926L313.502 298.369L316.304 305.627L322.631 303.184L319.829 295.926Z" fill="#CF6F64"/>
<path d="M344.652 297.611H338.002L339.265 305.55H345.914L344.652 297.611Z" fill="#CF6F64"/>
<path opacity="0.2" d="M298.582 133.776C298.715 135.374 298.865 137.008 299.059 138.685L325.498 130.102C329.627 128.878 333.215 126.284 335.671 122.746C335.777 120.388 335.909 117.907 336.112 115.32C336.201 114.066 336.307 112.776 336.422 111.469C336.536 110.162 336.695 108.714 336.863 107.319L298.582 133.776Z" fill="black"/>
<path d="M307.219 104.811L306.335 104.705C306.856 100.29 310.15 96.8105 313.621 96.8988V97.7819C310.583 97.7201 307.687 100.855 307.219 104.811Z" fill="white"/>
<path d="M311.925 112.962H311.775V112.079C314.813 112.193 317.665 109.023 318.133 105.076L319.016 105.182C318.548 109.5 315.36 112.962 311.925 112.962Z" fill="white"/>
<path d="M328.43 67.5545C327.185 72.4202 325.719 81.3303 328.924 84.5712C328.924 84.5712 326.681 89.5075 317.648 89.5075C309.391 89.5075 313.815 84.5712 313.815 84.5712C319.308 83.2819 319.405 79.2728 318.681 75.4756L328.43 67.5545Z" fill="#E58A7B"/>
<path d="M324.456 70.7865L318.69 75.4756C318.868 76.3482 318.972 77.2345 318.999 78.1248C320.685 79.8026 324.067 75.5551 324.412 73.3827C324.587 72.5275 324.602 71.6472 324.456 70.7865Z" fill="#CF6F64"/>
<path d="M308.773 67.4927C309.174 68.1881 309.714 68.7933 310.36 69.2704C311.006 69.7475 311.743 70.0863 312.526 70.2655C314.645 70.7335 315.705 68.782 315.122 66.8216C314.601 65.0554 312.861 62.68 310.707 63.0862C310.245 63.1813 309.813 63.3855 309.447 63.6819C309.08 63.9783 308.79 64.3582 308.601 64.7897C308.412 65.2212 308.328 65.6918 308.358 66.1621C308.388 66.6323 308.53 67.0886 308.773 67.4927Z" fill="#CF6F64"/>
<path d="M312.279 51.9242C308.976 53.4343 307.81 66.5566 311.961 68.4994C316.111 70.4421 318.531 49.0543 312.279 51.9242Z" fill="#263238"/>
<path d="M329.436 60.2339C328.642 66.8216 328.553 70.6982 325.021 74.0715C323.927 75.191 322.544 75.9861 321.026 76.3693C319.508 76.7524 317.914 76.7085 316.419 76.2426C314.924 75.7766 313.587 74.9067 312.556 73.7289C311.525 72.551 310.839 71.111 310.574 69.5679C309.506 63.6514 310.98 53.8758 317.586 51.2531C318.974 50.641 320.5 50.4112 322.006 50.5875C323.513 50.7639 324.945 51.34 326.154 52.2562C327.363 53.1723 328.305 54.3952 328.882 55.7979C329.459 57.2006 329.651 58.7322 329.436 60.2339Z" fill="#E58A7B"/>
<path d="M318.584 55.3329C323.476 54.0878 327.07 53.24 325.781 57.3109C324.076 62.7506 322.028 68.0137 324.774 68.2521C326.452 68.4022 333.869 65.2585 332.925 62.0707C332.103 59.2978 335.574 58.5384 336.192 57.1343C338.479 52.0479 331.936 52.719 333.101 49.6283C334.267 46.5375 327.803 41.5571 324.271 44.0385C318.522 48.0476 308.658 47.9858 313.842 41.3893C317.559 36.6825 310.927 37.6451 310.927 37.6451C310.927 37.6451 314.937 40.0205 308.19 43.6941C301.055 47.6149 307.598 58.1499 318.584 55.3329Z" fill="#263238"/>
<path d="M332.033 67.4927C331.067 68.8902 329.616 69.8785 327.962 70.2655C325.781 70.7335 324.942 68.782 325.763 66.8216C326.496 65.0554 328.509 62.68 330.593 63.0862C332.677 63.4924 333.154 65.7619 332.033 67.4927Z" fill="#E58A7B"/>
<path d="M299.712 143.887C299.712 143.887 293.743 197.312 293.275 217.587C292.798 238.675 313.506 304.472 313.506 304.472L324.103 300.057C324.103 300.057 311.74 239.938 313.506 219.23C315.378 196.65 323.114 143.922 323.114 143.922L299.712 143.887Z" fill="#4CAF4F"/>
<path opacity="0.2" d="M314.548 158.554C309.788 168.427 312.994 187.952 315.572 199.52C316.553 191.351 317.718 182.485 318.822 174.282C318.716 161.672 317.736 151.931 314.548 158.554Z" fill="black"/>
<path d="M323.635 296.56C323.688 296.56 324.889 299.933 324.889 299.933L312.667 305.073L310.742 301.487L323.635 296.56Z" fill="#4CAF4F"/>
<path d="M312.331 143.887C312.331 143.887 316.897 194.698 319.917 213.728C323.237 234.578 336.254 304.013 336.254 304.013H348.431C348.431 304.013 341.137 236.264 339.76 215.618C338.258 193.224 335.274 143.887 335.274 143.887H312.331Z" fill="#4CAF4F"/>
<path d="M348.617 300.843C348.67 300.843 349.023 304.243 349.023 304.243H335.636L334.682 300.339L348.617 300.843Z" fill="#4CAF4F"/>
<path opacity="0.2" d="M343.954 296.816C343.926 296.816 343.9 296.807 343.879 296.789C343.857 296.771 343.844 296.746 343.839 296.719C343.769 296.101 337.19 234.904 335.954 216.36C334.611 196.244 331.909 151.622 331.883 151.172C331.881 151.157 331.883 151.143 331.888 151.129C331.893 151.115 331.9 151.102 331.91 151.091C331.92 151.08 331.932 151.072 331.946 151.066C331.959 151.06 331.974 151.057 331.989 151.057C332.018 151.057 332.045 151.068 332.067 151.088C332.088 151.107 332.101 151.134 332.103 151.163C332.103 151.614 334.832 196.2 336.174 216.351C337.411 234.895 343.989 296.048 344.051 296.71C344.054 296.725 344.053 296.74 344.05 296.754C344.046 296.768 344.039 296.782 344.03 296.793C344.021 296.805 344.009 296.815 343.996 296.822C343.983 296.829 343.969 296.833 343.954 296.834V296.816Z" fill="black"/>
<path d="M319.334 62.0707C319.334 62.6093 318.999 63.042 318.645 63.042C318.292 63.042 318.036 62.6093 318.071 62.0707C318.107 61.532 318.407 61.0993 318.76 61.0993C319.113 61.0993 319.37 61.5408 319.334 62.0707Z" fill="#263238"/>
<path d="M313.276 62.0707C313.276 62.6093 312.932 63.042 312.588 63.042C312.243 63.042 311.978 62.6093 312.005 62.0707C312.031 61.532 312.349 61.0993 312.702 61.0993C313.056 61.0993 313.312 61.5408 313.276 62.0707Z" fill="#263238"/>
<path d="M315.184 62.3444C314.447 63.9893 313.497 65.5302 312.358 66.9275C313.241 67.8106 314.892 67.4044 314.892 67.4044L315.184 62.3444Z" fill="#DF5753"/>
<path d="M315.343 69.6562C315.322 69.6562 315.302 69.6521 315.283 69.644C315.264 69.6359 315.247 69.624 315.233 69.6092C315.219 69.5943 315.208 69.5767 315.201 69.5574C315.194 69.5382 315.191 69.5177 315.193 69.4973C315.195 69.4543 315.214 69.4139 315.245 69.3843C315.276 69.3547 315.317 69.3382 315.36 69.3383C316.036 69.343 316.704 69.1963 317.315 68.909C317.926 68.6217 318.465 68.2011 318.893 67.6781C318.923 67.6514 318.962 67.6367 319.003 67.6367C319.044 67.6367 319.083 67.6514 319.113 67.6781C319.142 67.7078 319.158 67.7473 319.158 67.7885C319.158 67.8297 319.142 67.8693 319.113 67.8989C318.656 68.4547 318.08 68.9011 317.427 69.2052C316.775 69.5092 316.063 69.6634 315.343 69.6562Z" fill="#263238"/>
<path d="M320.412 60.4458C320.369 60.4675 320.322 60.4788 320.275 60.4788C320.227 60.4788 320.18 60.4675 320.138 60.4458C319.807 60.2322 319.432 60.0994 319.04 60.058C318.649 60.0165 318.254 60.0677 317.886 60.2074C317.85 60.2253 317.811 60.2359 317.771 60.2384C317.731 60.241 317.691 60.2356 317.653 60.2224C317.615 60.2092 317.58 60.1886 317.551 60.1618C317.521 60.1349 317.497 60.1024 317.48 60.0661C317.447 59.9875 317.446 59.8992 317.478 59.82C317.509 59.7409 317.57 59.6771 317.648 59.6422C318.109 59.4536 318.61 59.3793 319.106 59.4254C319.603 59.4715 320.081 59.6368 320.5 59.9071C320.534 59.9301 320.563 59.9596 320.585 59.9939C320.607 60.0282 320.623 60.0666 320.63 60.1069C320.637 60.1471 320.637 60.1884 320.628 60.2284C320.619 60.2684 320.603 60.3063 320.579 60.3398C320.535 60.3905 320.476 60.4272 320.412 60.4458Z" fill="#263238"/>
<path d="M310.936 58.6797C310.889 58.6683 310.846 58.6438 310.813 58.6091C310.783 58.5803 310.76 58.5459 310.744 58.508C310.728 58.4701 310.72 58.4294 310.72 58.3883C310.72 58.3472 310.728 58.3065 310.744 58.2686C310.76 58.2306 310.783 58.1963 310.813 58.1675C311.151 57.7879 311.573 57.4916 312.044 57.3017C312.516 57.1117 313.025 57.0333 313.532 57.0725C313.573 57.0788 313.612 57.0933 313.647 57.1152C313.682 57.1372 313.711 57.166 313.735 57.1999C313.758 57.2339 313.774 57.2722 313.782 57.3126C313.789 57.3529 313.789 57.3945 313.78 57.4346C313.761 57.5163 313.713 57.5884 313.644 57.6372C313.576 57.6859 313.492 57.7081 313.409 57.6995C313.008 57.6742 312.606 57.7406 312.234 57.8936C311.862 58.0466 311.53 58.2822 311.263 58.5826C311.223 58.6273 311.171 58.66 311.113 58.6771C311.056 58.6943 310.994 58.6951 310.936 58.6797Z" fill="#263238"/>
<path d="M344.157 94.7706L334.973 92.3245C334.973 92.3245 325.966 114.498 322.778 115.938C318.451 117.916 307.492 124.768 302.83 128.009C302.574 129.113 302.777 132.036 303.36 132.84C311.307 131.391 326.522 125.537 329.701 122.561C336.951 115.77 344.157 94.7706 344.157 94.7706Z" fill="#E58A7B"/>
<path d="M337.746 313.4C337.298 313.435 336.851 313.314 336.483 313.056C336.37 312.953 336.285 312.822 336.237 312.677C336.189 312.531 336.179 312.376 336.21 312.225C336.215 312.132 336.246 312.041 336.299 311.963C336.352 311.886 336.425 311.824 336.51 311.784C337.252 311.404 339.327 312.72 339.565 312.87C339.591 312.886 339.612 312.911 339.623 312.939C339.634 312.968 339.635 312.999 339.627 313.029C339.62 313.06 339.604 313.088 339.583 313.111C339.561 313.135 339.534 313.152 339.503 313.162C338.928 313.303 338.339 313.383 337.746 313.4ZM336.863 312.022C336.796 312.008 336.727 312.008 336.66 312.022C336.626 312.04 336.598 312.066 336.579 312.099C336.56 312.132 336.552 312.17 336.554 312.208C336.53 312.311 336.534 312.418 336.565 312.518C336.596 312.619 336.653 312.71 336.731 312.782C337.075 313.091 337.94 313.126 339.08 312.905C338.401 312.459 337.637 312.158 336.837 312.022H336.863Z" fill="#4CAF4F"/>
<path d="M339.459 313.162C339.436 313.169 339.412 313.169 339.389 313.162C338.726 312.791 337.481 311.334 337.667 310.592C337.694 310.474 337.761 310.369 337.855 310.294C337.95 310.219 338.067 310.178 338.188 310.177C338.306 310.161 338.427 310.171 338.541 310.206C338.655 310.241 338.761 310.3 338.85 310.38C339.583 311.007 339.627 312.932 339.627 313.029C339.631 313.058 339.626 313.088 339.611 313.113C339.597 313.139 339.575 313.159 339.548 313.17C339.518 313.176 339.487 313.173 339.459 313.162ZM338.276 310.468H338.214C338.011 310.468 337.985 310.583 337.976 310.627C337.87 311.06 338.656 312.164 339.309 312.685C339.306 311.939 339.075 311.212 338.647 310.601C338.544 310.511 338.412 310.464 338.276 310.468Z" fill="#4CAF4F"/>
<path d="M314.301 312.296C313.76 312.485 313.172 312.485 312.632 312.296C312.509 312.23 312.405 312.133 312.329 312.016C312.254 311.899 312.209 311.764 312.199 311.625C312.188 311.538 312.199 311.449 312.231 311.367C312.264 311.285 312.317 311.213 312.384 311.157C313.091 310.521 315.979 311.157 316.305 311.281C316.336 311.289 316.364 311.307 316.383 311.333C316.402 311.358 316.412 311.39 316.411 311.422C316.413 311.455 316.404 311.488 316.387 311.516C316.369 311.544 316.344 311.567 316.314 311.581C315.664 311.874 314.99 312.114 314.301 312.296ZM312.861 311.245C312.76 311.266 312.666 311.311 312.588 311.378C312.559 311.399 312.538 311.427 312.525 311.46C312.513 311.493 312.51 311.529 312.517 311.563C312.523 311.656 312.552 311.746 312.601 311.824C312.65 311.903 312.719 311.968 312.799 312.014C313.268 312.261 314.354 312.067 315.758 311.475C314.812 311.236 313.833 311.159 312.861 311.245Z" fill="#4CAF4F"/>
<path d="M316.288 311.581H316.217C315.334 311.422 313.568 310.406 313.515 309.647C313.515 309.47 313.594 309.223 314.018 309.082C314.161 309.031 314.313 309.009 314.465 309.018C314.617 309.027 314.765 309.067 314.901 309.135C315.855 309.603 316.358 311.298 316.385 311.378C316.391 311.404 316.39 311.432 316.382 311.459C316.375 311.485 316.36 311.509 316.341 311.528C316.327 311.55 316.309 311.568 316.288 311.581ZM314.195 309.347H314.106C313.833 309.444 313.833 309.559 313.833 309.594C313.833 310.053 315.113 310.892 316.005 311.175C315.8 310.465 315.365 309.844 314.769 309.409C314.591 309.318 314.387 309.296 314.195 309.347Z" fill="#4CAF4F"/>
<path d="M303.58 127.488L294.37 131.727L293.301 134.376L296.701 136.663C296.701 136.663 303.059 135.974 304.87 131.886L303.58 127.488Z" fill="#E58A7B"/>
<path d="M303.969 132.99C303.763 131.22 303.179 129.515 302.256 127.992L303.713 126.897C304.809 128.652 305.508 130.626 305.762 132.681L303.969 132.99Z" fill="#263238"/>
<path d="M305.541 128.742C305.735 129.048 305.831 129.407 305.815 129.77C305.798 130.132 305.67 130.481 305.449 130.768C305.227 131.056 304.922 131.268 304.576 131.376C304.23 131.484 303.858 131.483 303.513 131.372C303.167 131.262 302.864 131.047 302.644 130.758C302.425 130.469 302.299 130.12 302.285 129.757C302.272 129.394 302.37 129.036 302.567 128.731C302.764 128.427 303.05 128.19 303.386 128.053C303.763 127.861 304.202 127.826 304.605 127.954C305.009 128.083 305.345 128.367 305.541 128.742Z" fill="#263238"/>
<path d="M288.144 135.153L289.372 136.389L297.637 132.857L294.37 131.727L288.144 135.153Z" fill="#E58A7B"/>
<path opacity="0.2" d="M323.635 296.56C323.688 296.56 324.889 299.933 324.889 299.933L312.667 305.073L310.742 301.487L323.635 296.56Z" fill="black"/>
<path opacity="0.2" d="M348.617 300.843C348.67 300.843 349.023 304.243 349.023 304.243H335.636L334.682 300.339L348.617 300.843Z" fill="black"/>
<path d="M346.55 92.2274C348.979 100.06 339.486 110.772 339.486 110.772L326.372 105.42C327.927 100.893 329.719 96.451 331.741 92.1126C335.768 83.432 344.095 84.3239 346.55 92.2274Z" fill="#4CAF4F"/>
<path opacity="0.2" d="M346.55 92.2274C348.979 100.06 339.486 110.772 339.486 110.772L326.372 105.42C327.927 100.893 329.719 96.451 331.741 92.1126C335.768 83.432 344.095 84.3239 346.55 92.2274Z" fill="black"/>
</svg>
