<svg width="442" height="311" viewBox="0 0 442 311" fill="none" xmlns="http://www.w3.org/2000/svg">
<path d="M216.245 13.7493H210.602V14.6589H216.245V13.7493Z" fill="#4CAF4F"/>
<path d="M289.291 49.7489L288.608 64.9045L289.516 64.9455L290.199 49.7898L289.291 49.7489Z" fill="#4CAF4F"/>
<path d="M287.535 17.8291H183.333L173.637 234.816H277.839L287.535 17.8291Z" fill="#4CAF4F"/>
<path opacity="0.56" d="M284.427 20.8138H180.225L170.529 237.801H274.731L284.427 20.8138Z" fill="#FAFAFA"/>
<path opacity="0.07" d="M281.318 23.7898H177.117L167.412 240.777H271.613L281.318 23.7898Z" fill="#4CAF4F"/>
<path d="M269.459 118.428H180.516L179.775 135.03H268.717L269.459 118.428Z" fill="white"/>
<path d="M229.429 106.312H181.055L180.728 113.739H229.103L229.429 106.312Z" fill="#4CAF4F"/>
<path d="M267.454 163.235H178.512L177.77 179.836H266.712L267.454 163.235Z" fill="white"/>
<path opacity="0.47" d="M251.144 202.257H191.334L190.442 222.153H250.252L251.144 202.257Z" fill="#4CAF4F"/>
<path d="M247.144 225.244H187.334C187.308 225.25 187.28 225.25 187.254 225.244C187.245 225.218 187.245 225.19 187.254 225.164L188.137 205.26C188.137 205.246 188.14 205.233 188.145 205.22C188.151 205.208 188.159 205.197 188.169 205.188C188.179 205.179 188.19 205.172 188.203 205.167C188.216 205.163 188.23 205.161 188.243 205.163H248.053C248.064 205.157 248.076 205.154 248.089 205.154C248.101 205.154 248.113 205.157 248.124 205.163C248.13 205.173 248.133 205.186 248.133 205.198C248.133 205.21 248.13 205.223 248.124 205.233L247.258 225.182C247.248 225.202 247.231 225.219 247.211 225.231C247.19 225.242 247.167 225.246 247.144 225.244ZM187.44 225.032H247.038L247.921 205.339H188.323L187.44 225.032Z" fill="white"/>
<path d="M218.983 151.119H179.05L178.724 158.554H218.647L218.983 151.119Z" fill="#4CAF4F"/>
<path d="M250.005 64.7993C249.776 69.6309 248.058 74.2734 245.086 78.0895C242.886 80.9719 240.054 83.312 236.809 84.93C233.564 86.548 229.991 87.401 226.365 87.4235C223.435 87.4458 220.531 86.868 217.832 85.7256C215.134 84.5832 212.698 82.9004 210.674 80.7809C208.651 78.6614 207.083 76.15 206.066 73.4015C205.05 70.6529 204.607 67.7255 204.765 64.7993C205.076 58.7274 207.694 53.0034 212.085 48.798C216.476 44.5927 222.308 42.2235 228.387 42.1752C231.32 42.1478 234.227 42.7221 236.929 43.8626C239.63 45.003 242.07 46.6853 244.096 48.8057C246.122 50.926 247.691 53.4392 248.708 56.1901C249.724 58.941 250.165 61.8711 250.005 64.7993Z" fill="white"/>
<path d="M252.133 46.9085C252.075 48.1932 251.618 49.4279 250.826 50.4407C250.24 51.2063 249.486 51.8278 248.623 52.2579C247.76 52.6879 246.81 52.9151 245.846 52.9221C244.911 52.9278 243.99 52.7046 243.162 52.2721C242.333 51.8395 241.624 51.2108 241.095 50.4407C240.394 49.4002 240.047 48.1616 240.106 46.9085C240.191 45.2963 240.888 43.7775 242.055 42.6617C243.221 41.5459 244.77 40.9171 246.384 40.9036C247.163 40.8965 247.935 41.0489 248.653 41.3515C249.37 41.6541 250.018 42.1005 250.557 42.663C251.096 43.2256 251.513 43.8925 251.784 44.6227C252.055 45.3528 252.174 46.1307 252.133 46.9085Z" fill="#4CAF4F"/>
<path d="M190.098 126.729C190.055 127.44 189.745 128.109 189.228 128.601C188.712 129.093 188.029 129.37 187.316 129.378C186.972 129.382 186.63 129.316 186.313 129.182C185.995 129.049 185.709 128.853 185.47 128.604C185.232 128.356 185.047 128.061 184.927 127.739C184.807 127.416 184.755 127.072 184.773 126.729C184.811 126.016 185.12 125.344 185.637 124.852C186.154 124.359 186.84 124.083 187.554 124.08C187.898 124.077 188.239 124.144 188.556 124.278C188.873 124.411 189.159 124.608 189.397 124.856C189.635 125.104 189.82 125.398 189.94 125.72C190.061 126.042 190.114 126.385 190.098 126.729Z" fill="#263238"/>
<path d="M202.001 126.729C201.961 127.441 201.651 128.111 201.134 128.603C200.618 129.095 199.933 129.372 199.22 129.378C198.876 129.381 198.536 129.313 198.219 129.18C197.903 129.046 197.617 128.849 197.38 128.601C197.143 128.353 196.958 128.059 196.839 127.737C196.719 127.415 196.667 127.072 196.685 126.729C196.723 126.017 197.032 125.347 197.547 124.855C198.062 124.362 198.746 124.085 199.458 124.08C199.802 124.075 200.144 124.142 200.461 124.275C200.778 124.408 201.065 124.605 201.304 124.853C201.542 125.101 201.727 125.396 201.847 125.719C201.967 126.041 202.019 126.385 202.001 126.729Z" fill="#263238"/>
<path d="M213.914 126.729C213.873 127.441 213.563 128.111 213.047 128.603C212.53 129.095 211.846 129.372 211.132 129.378C210.788 129.381 210.448 129.313 210.131 129.18C209.814 129.046 209.528 128.85 209.29 128.601C209.051 128.353 208.867 128.059 208.746 127.737C208.626 127.415 208.572 127.072 208.589 126.729C208.629 126.016 208.939 125.346 209.456 124.854C209.973 124.362 210.657 124.085 211.371 124.08C211.715 124.075 212.056 124.142 212.374 124.275C212.691 124.408 212.978 124.605 213.216 124.853C213.455 125.101 213.639 125.396 213.759 125.719C213.879 126.041 213.932 126.385 213.914 126.729Z" fill="#263238"/>
<path d="M188.093 171.536C188.051 172.247 187.74 172.916 187.224 173.408C186.708 173.899 186.024 174.177 185.311 174.185C184.968 174.188 184.627 174.12 184.31 173.987C183.993 173.853 183.707 173.656 183.469 173.408C183.231 173.16 183.046 172.866 182.925 172.544C182.805 172.222 182.751 171.879 182.768 171.536C182.808 170.823 183.118 170.153 183.635 169.661C184.152 169.169 184.836 168.892 185.55 168.886C185.894 168.883 186.234 168.951 186.551 169.084C186.868 169.218 187.154 169.415 187.392 169.663C187.63 169.911 187.815 170.205 187.936 170.527C188.056 170.849 188.11 171.192 188.093 171.536Z" fill="#263238"/>
<path d="M199.997 171.536C199.956 172.246 199.648 172.915 199.133 173.407C198.618 173.899 197.936 174.177 197.224 174.185C196.88 174.189 196.538 174.122 196.221 173.989C195.904 173.856 195.617 173.659 195.378 173.411C195.14 173.163 194.955 172.868 194.835 172.546C194.715 172.223 194.663 171.879 194.681 171.536C194.721 170.823 195.031 170.153 195.548 169.661C196.064 169.169 196.749 168.892 197.462 168.886C197.806 168.883 198.146 168.951 198.463 169.084C198.779 169.218 199.065 169.415 199.302 169.663C199.539 169.911 199.724 170.206 199.843 170.528C199.963 170.85 200.015 171.193 199.997 171.536Z" fill="#263238"/>
<path d="M211.936 171.536C211.895 172.248 211.585 172.918 211.069 173.41C210.552 173.902 209.868 174.179 209.154 174.185C208.811 174.186 208.47 174.118 208.154 173.984C207.838 173.85 207.552 173.653 207.314 173.406C207.077 173.158 206.892 172.864 206.771 172.543C206.65 172.221 206.595 171.879 206.611 171.536C206.653 170.824 206.964 170.155 207.48 169.663C207.996 169.172 208.68 168.894 209.393 168.886C209.737 168.882 210.078 168.949 210.395 169.082C210.713 169.215 211 169.412 211.238 169.66C211.476 169.908 211.661 170.203 211.781 170.525C211.901 170.848 211.954 171.192 211.936 171.536Z" fill="#263238"/>
<path d="M223.822 171.536C223.779 172.247 223.469 172.916 222.953 173.408C222.436 173.899 221.753 174.177 221.04 174.185C220.697 174.186 220.357 174.118 220.04 173.984C219.724 173.85 219.438 173.653 219.201 173.405C218.963 173.158 218.778 172.864 218.657 172.543C218.536 172.221 218.481 171.879 218.497 171.536C218.539 170.824 218.85 170.155 219.366 169.663C219.882 169.172 220.566 168.894 221.279 168.886C221.622 168.883 221.963 168.951 222.28 169.084C222.597 169.218 222.883 169.415 223.121 169.663C223.359 169.911 223.544 170.205 223.665 170.527C223.785 170.849 223.839 171.192 223.822 171.536Z" fill="#263238"/>
<path d="M235.779 171.536C235.736 172.247 235.426 172.916 234.909 173.408C234.393 173.899 233.71 174.177 232.997 174.185C232.653 174.189 232.311 174.122 231.994 173.989C231.677 173.856 231.39 173.659 231.151 173.411C230.913 173.163 230.728 172.868 230.608 172.546C230.488 172.223 230.436 171.879 230.454 171.536C230.494 170.823 230.804 170.153 231.321 169.661C231.837 169.169 232.522 168.892 233.235 168.886C233.579 168.883 233.92 168.951 234.237 169.084C234.554 169.218 234.84 169.415 235.078 169.663C235.316 169.911 235.501 170.205 235.621 170.527C235.742 170.849 235.795 171.192 235.779 171.536Z" fill="#263238"/>
<path d="M233.971 63.621C237.667 60.0066 237.864 54.2131 234.409 50.6809C230.955 47.1486 225.159 47.2153 221.463 50.8297C217.766 54.4442 217.57 60.2377 221.025 63.7699C224.479 67.3021 230.275 67.2355 233.971 63.621Z" fill="#4CAF4F"/>
<path d="M245.086 78.0895C242.886 80.9719 240.054 83.312 236.809 84.93C233.564 86.548 229.991 87.401 226.365 87.4235C222.849 87.4533 219.379 86.6175 216.262 84.9897C213.145 83.3619 210.477 80.9922 208.492 78.0895C212.784 73.8155 219.574 71.025 227.098 71.025C234.622 71.025 241.174 73.8155 245.086 78.0895Z" fill="#4CAF4F"/>
<path opacity="0.1" d="M233.971 63.621C237.667 60.0066 237.864 54.2131 234.409 50.6809C230.955 47.1486 225.159 47.2153 221.463 50.8297C217.766 54.4442 217.57 60.2377 221.025 63.7699C224.479 67.3021 230.275 67.2355 233.971 63.621Z" fill="white"/>
<path opacity="0.1" d="M245.086 78.0895C242.886 80.9719 240.054 83.312 236.809 84.93C233.564 86.548 229.991 87.401 226.365 87.4235C222.849 87.4533 219.379 86.6175 216.262 84.9897C213.145 83.3619 210.477 80.9922 208.492 78.0895C212.784 73.8155 219.574 71.025 227.098 71.025C234.622 71.025 241.174 73.8155 245.086 78.0895Z" fill="white"/>
</svg>
