<svg width="391" height="407" viewBox="0 0 391 407" fill="none" xmlns="http://www.w3.org/2000/svg">
<path opacity="0.1" d="M49.6817 227.67L20.575 244.465C20.2336 244.687 19.9497 244.988 19.7465 245.341C19.5434 245.694 19.4268 246.09 19.4062 246.497V281.58C19.4062 282.321 19.9347 282.596 20.575 282.25L49.6817 265.486C50.022 265.263 50.305 264.962 50.508 264.609C50.711 264.256 50.8283 263.861 50.8505 263.454V228.341C50.8505 227.599 50.322 227.305 49.6817 227.67Z" fill="#103E13"/>
<path opacity="0.1" d="M41.4294 158.013L19.9449 170.388C19.7885 170.489 19.6582 170.625 19.5646 170.786C19.471 170.946 19.4167 171.127 19.4062 171.313V183.302C19.4062 183.647 19.6502 183.779 19.9449 183.606L41.4294 171.231C41.5856 171.133 41.7159 170.999 41.8096 170.84C41.9033 170.68 41.9576 170.501 41.968 170.317V158.318C41.968 157.983 41.7241 157.841 41.4294 158.013Z" fill="#103E13"/>
<path opacity="0.1" d="M41.4294 182.936L19.9449 195.311C19.7885 195.411 19.6582 195.548 19.5646 195.708C19.471 195.869 19.4167 196.05 19.4062 196.235V208.224C19.4062 208.559 19.6502 208.702 19.9449 208.529L41.4294 196.154C41.5864 196.054 41.7171 195.918 41.8108 195.757C41.9045 195.596 41.9584 195.415 41.968 195.229V183.241C41.968 182.905 41.7241 182.763 41.4294 182.936Z" fill="#103E13"/>
<path opacity="0.1" d="M41.4294 207.889L19.9449 220.233C19.7879 220.333 19.6572 220.47 19.5635 220.63C19.4698 220.791 19.4159 220.972 19.4062 221.158V233.147C19.4062 233.482 19.6502 233.624 19.9449 233.452L41.4294 221.097C41.5858 220.996 41.7161 220.86 41.8097 220.699C41.9033 220.539 41.9576 220.358 41.968 220.172V208.183C41.968 207.818 41.7241 207.686 41.4294 207.889Z" fill="#103E13"/>
<path d="M53.2895 229.073L24.2234 245.837C23.882 246.059 23.5981 246.359 23.395 246.712C23.1918 247.066 23.0752 247.462 23.0547 247.869V282.951C23.0728 283.359 23.1883 283.756 23.3917 284.11C23.5951 284.463 23.8803 284.763 24.2234 284.983L26.439 286.233C26.8013 286.416 27.2017 286.512 27.6077 286.512C28.0137 286.512 28.4141 286.416 28.7764 286.233L57.8832 269.469C58.2246 269.247 58.5085 268.946 58.7116 268.593C58.9148 268.24 59.0314 267.844 59.0519 267.437V232.273C59.0327 231.865 58.9156 231.467 58.7104 231.113C58.5053 230.76 58.2181 230.46 57.873 230.241L55.6677 228.991C55.2936 228.814 54.8825 228.729 54.4687 228.743C54.0549 228.757 53.6506 228.87 53.2895 229.073Z" fill="#4CAF4F"/>
<path opacity="0.2" d="M28.7358 286.172C28.3718 286.35 27.9721 286.442 27.5671 286.442C27.162 286.442 26.7623 286.35 26.3983 286.172L24.2234 284.922C23.8785 284.704 23.5919 284.404 23.3883 284.05C23.1847 283.697 23.0702 283.298 23.0547 282.89V247.848C23.0749 247.426 23.2045 247.017 23.4307 246.66L27.9532 249.281C27.7406 249.627 27.6215 250.023 27.6077 250.429V285.502C27.5671 286.182 28.0447 286.568 28.7358 286.172Z" fill="#103E13"/>
<path opacity="0.5" d="M58.9909 232.11C58.8995 231.521 58.4218 231.308 57.8425 231.643L28.7358 248.417C28.391 248.629 28.1072 248.926 27.9126 249.281L23.3799 246.66C23.5741 246.322 23.8502 246.039 24.1828 245.837L53.2895 229.073C53.6519 228.89 54.0522 228.794 54.4582 228.794C54.8643 228.794 55.2646 228.89 55.627 229.073L57.8323 230.322C58.1417 230.521 58.405 230.783 58.6048 231.091C58.8046 231.4 58.9363 231.747 58.9909 232.11V232.11Z" fill="white"/>
<path d="M57.8425 231.643L28.7358 248.417C28.3938 248.639 28.1094 248.939 27.9062 249.292C27.703 249.646 27.5867 250.042 27.567 250.449V285.522C27.567 286.264 28.0955 286.538 28.7358 286.192L57.8425 269.428C58.1826 269.205 58.465 268.905 58.6664 268.552C58.8678 268.199 58.9825 267.803 59.0011 267.396V232.273C59.0011 231.572 58.4828 231.257 57.8425 231.643Z" fill="#4CAF4F"/>
<path d="M29.4981 266.573C29.4911 266.327 29.5325 266.082 29.62 265.852C29.7286 265.616 29.8543 265.389 29.9961 265.171L36.8561 254.077C36.889 254.029 36.9264 253.985 36.9678 253.944L37.0491 253.883C37.0843 253.853 37.1295 253.836 37.1762 253.836C37.2229 253.836 37.268 253.853 37.3032 253.883C37.3414 253.93 37.37 253.983 37.3874 254.041C37.4049 254.099 37.4108 254.159 37.4049 254.219V258.506C37.4155 258.816 37.3492 259.123 37.2118 259.4C37.105 259.6 36.9862 259.794 36.8561 259.98L33.8072 264.592L36.8561 265.771C36.9812 265.809 37.1007 265.864 37.2118 265.933C37.3439 266.015 37.4049 266.238 37.4049 266.594V270.881C37.4071 271.039 37.3723 271.196 37.3032 271.338C37.2497 271.462 37.1614 271.568 37.0491 271.643H36.9678C36.9313 271.654 36.8926 271.654 36.8561 271.643L29.9961 268.473C29.8532 268.418 29.7246 268.331 29.62 268.219C29.5205 268.047 29.4778 267.848 29.4981 267.65V266.573Z" fill="white"/>
<path d="M44.4681 247.757C44.5273 247.518 44.6125 247.286 44.7221 247.066C44.8289 246.84 45.0028 246.652 45.2201 246.528L47.5169 245.197C47.5554 245.164 47.604 245.147 47.6542 245.147C47.7043 245.147 47.7529 245.164 47.7914 245.197C47.8321 245.244 47.863 245.299 47.8822 245.358C47.9014 245.417 47.9085 245.48 47.9031 245.542C47.9107 245.627 47.9107 245.712 47.9031 245.796L42.1001 270.526C42.0487 270.759 41.9667 270.984 41.8562 271.196C41.7496 271.431 41.5719 271.627 41.348 271.755L39.0918 273.056C39.055 273.087 39.0082 273.104 38.9597 273.104C38.9113 273.104 38.8644 273.087 38.8276 273.056C38.7869 273.008 38.756 272.953 38.7368 272.894C38.7176 272.835 38.7105 272.772 38.7158 272.71C38.7033 272.626 38.7033 272.54 38.7158 272.456L44.4681 247.757Z" fill="white"/>
<path d="M57.0804 251.76C57.0856 252.006 57.0443 252.251 56.9585 252.481C56.8474 252.713 56.7218 252.937 56.5824 253.152L49.7123 264.247C49.6848 264.295 49.6506 264.34 49.6107 264.379L49.5293 264.44C49.4277 264.501 49.3363 264.501 49.2753 264.44C49.2366 264.394 49.2077 264.34 49.1902 264.283C49.1728 264.225 49.1671 264.164 49.1736 264.104V259.827C49.1607 259.521 49.2272 259.216 49.3667 258.943C49.4989 258.71 49.6107 258.516 49.7123 258.364L52.7612 253.731L49.7123 252.583C49.5884 252.54 49.4719 252.478 49.3667 252.4C49.2346 252.309 49.1736 252.085 49.1736 251.74V247.452C49.1714 247.294 49.2062 247.137 49.2753 246.995C49.3255 246.869 49.4145 246.762 49.5293 246.69H49.6107H49.7123L56.5824 249.86C56.7253 249.915 56.8539 250.002 56.9585 250.114C57.0537 250.288 57.0961 250.486 57.0804 250.683V251.76Z" fill="white"/>
<path d="M45.0677 159.364L23.5832 171.75C23.427 171.848 23.2967 171.982 23.203 172.141C23.1093 172.301 23.055 172.48 23.0446 172.664V184.663C23.055 184.847 23.1093 185.026 23.203 185.185C23.2967 185.345 23.427 185.479 23.5832 185.577L25.7073 186.786C25.8663 186.861 26.0398 186.899 26.2154 186.899C26.391 186.899 26.5645 186.861 26.7235 186.786L48.269 174.361C48.4224 174.258 48.5499 174.121 48.6416 173.96C48.7333 173.8 48.7866 173.621 48.7975 173.436V161.447C48.7871 161.263 48.7328 161.084 48.6391 160.925C48.5454 160.766 48.415 160.631 48.2589 160.533L46.145 159.324C45.9738 159.25 45.7881 159.215 45.6017 159.222C45.4153 159.229 45.2329 159.278 45.0677 159.364V159.364Z" fill="#4CAF4F"/>
<path opacity="0.4" d="M45.0677 159.364L23.5832 171.75C23.427 171.848 23.2967 171.982 23.203 172.141C23.1093 172.301 23.055 172.48 23.0446 172.664V184.663C23.055 184.847 23.1093 185.026 23.203 185.185C23.2967 185.345 23.427 185.479 23.5832 185.577L25.7073 186.786C25.8663 186.861 26.0398 186.899 26.2154 186.899C26.391 186.899 26.5645 186.861 26.7235 186.786L48.269 174.361C48.4224 174.258 48.5499 174.121 48.6416 173.96C48.7333 173.8 48.7866 173.621 48.7975 173.436V161.447C48.7871 161.263 48.7328 161.084 48.6391 160.925C48.5454 160.766 48.415 160.631 48.2589 160.533L46.145 159.324C45.9738 159.25 45.7881 159.215 45.6017 159.222C45.4153 159.229 45.2329 159.278 45.0677 159.364V159.364Z" fill="#103E13"/>
<path d="M48.7867 161.386C48.7867 161.122 48.5327 161.031 48.2583 161.183L26.7737 173.558C26.6167 173.656 26.4873 173.792 26.3977 173.954L23.2065 172.125C23.292 171.967 23.4183 171.833 23.5724 171.739L45.0569 159.364C45.2245 159.282 45.4088 159.239 45.5956 159.239C45.7823 159.239 45.9666 159.282 46.1342 159.364L48.2481 160.573C48.393 160.66 48.5166 160.778 48.6098 160.919C48.703 161.059 48.7635 161.219 48.7867 161.386Z" fill="#4CAF4F"/>
<path d="M48.269 161.153L26.7743 173.558C26.6187 173.659 26.4895 173.795 26.3975 173.956C26.3055 174.117 26.2535 174.297 26.2458 174.483V186.471C26.2458 186.807 26.4796 186.949 26.7743 186.776L48.269 174.361C48.4241 174.259 48.5528 174.123 48.6447 173.962C48.7366 173.801 48.789 173.621 48.7975 173.436V161.447C48.7975 161.153 48.6145 161.01 48.269 161.153Z" fill="#4CAF4F"/>
<g opacity="0.2">
<path opacity="0.2" d="M48.269 161.153L26.7743 173.558C26.6187 173.659 26.4895 173.795 26.3975 173.956C26.3055 174.117 26.2535 174.297 26.2458 174.483V186.471C26.2458 186.807 26.4796 186.949 26.7743 186.776L48.269 174.361C48.4241 174.259 48.5528 174.123 48.6447 173.962C48.7366 173.801 48.789 173.621 48.7975 173.436V161.447C48.7975 161.153 48.6145 161.01 48.269 161.153Z" fill="#103E13"/>
</g>
<path d="M31.551 176.626C31.551 176.728 31.551 176.85 31.551 177.012V178.028C31.551 178.191 31.551 178.313 31.551 178.404C31.5599 178.548 31.5803 178.691 31.612 178.831C31.6333 178.945 31.6861 179.051 31.7644 179.136C31.8344 179.208 31.9286 179.251 32.0287 179.258C32.1667 179.248 32.2999 179.203 32.4149 179.126C32.5638 179.053 32.6954 178.949 32.801 178.821C32.8979 178.718 32.98 178.601 33.045 178.476C33.1085 178.363 33.1596 178.244 33.1974 178.12C33.1974 177.998 33.2584 177.896 33.2787 177.805C33.2885 177.707 33.3125 177.611 33.3498 177.52C33.3877 177.452 33.4441 177.396 33.5125 177.358L34.4068 176.84C34.4068 176.84 34.4881 176.84 34.5084 176.84C34.5257 176.857 34.5392 176.878 34.548 176.9C34.5567 176.923 34.5606 176.947 34.5592 176.972C34.55 177.35 34.4919 177.726 34.3865 178.089C34.2745 178.468 34.1211 178.832 33.9291 179.177C33.7394 179.514 33.5146 179.831 33.2584 180.121C33.0167 180.396 32.7317 180.629 32.4149 180.812C32.1504 180.982 31.8448 181.077 31.5307 181.087C31.2897 181.089 31.0556 181.007 30.8701 180.853C30.6689 180.675 30.5241 180.442 30.4534 180.182C30.3471 179.854 30.2889 179.512 30.2806 179.166C30.2806 178.882 30.2806 178.577 30.2806 178.252C30.2806 177.927 30.2806 177.592 30.2806 177.287C30.2961 176.883 30.3506 176.481 30.4432 176.088C30.5427 175.687 30.6858 175.299 30.8701 174.93C31.0457 174.564 31.2677 174.222 31.5307 173.914C31.7833 173.62 32.0819 173.37 32.4149 173.172C32.6705 173.015 32.9595 172.921 33.2584 172.898C33.4935 172.88 33.7283 172.937 33.9291 173.06C34.135 173.196 34.2945 173.391 34.3865 173.619C34.502 173.91 34.5606 174.22 34.5592 174.533C34.5582 174.601 34.5408 174.667 34.5084 174.726C34.4891 174.78 34.4536 174.826 34.4068 174.859L33.5125 175.377C33.4312 175.377 33.3803 175.427 33.3498 175.377C33.3095 175.32 33.285 175.253 33.2787 175.184C33.2787 175.113 33.2787 175.031 33.1974 174.95C33.1612 174.878 33.109 174.816 33.045 174.767C32.9714 174.723 32.8866 174.702 32.801 174.706C32.6627 174.722 32.5302 174.771 32.4149 174.848C32.2645 174.928 32.1329 175.039 32.0287 175.173C31.9198 175.298 31.8307 175.439 31.7644 175.59C31.6941 175.742 31.6429 175.903 31.612 176.068C31.5791 176.252 31.5587 176.439 31.551 176.626Z" fill="#F5F7FA"/>
<path d="M37.4353 170.347C37.6765 170.192 37.9522 170.098 38.2382 170.073C38.4598 170.057 38.6816 170.102 38.8785 170.205C39.0539 170.311 39.1977 170.462 39.2952 170.642C39.3967 170.833 39.4491 171.046 39.4476 171.262C39.4619 171.322 39.4619 171.385 39.4476 171.445C39.4303 171.499 39.3943 171.546 39.346 171.577L38.4516 172.095C38.3983 172.109 38.3424 172.109 38.289 172.095L38.1772 172.034L38.1061 171.963C38.0713 171.928 38.0299 171.9 37.9841 171.882C37.9139 171.866 37.8409 171.866 37.7707 171.882C37.6643 171.892 37.5625 171.931 37.476 171.993C37.3874 172.045 37.3025 172.103 37.2219 172.166C37.1436 172.226 37.0721 172.294 37.0085 172.369C36.9482 172.448 36.897 172.533 36.856 172.623C36.8187 172.717 36.8014 172.817 36.8052 172.918C36.7953 172.998 36.8172 173.078 36.8662 173.142C36.8955 173.17 36.9309 173.191 36.9697 173.203C37.0085 173.216 37.0496 173.219 37.0898 173.213C37.2271 173.207 37.3635 173.187 37.4963 173.152L38.1264 172.989C38.3407 172.926 38.5638 172.898 38.787 172.908C38.9574 172.914 39.1213 172.974 39.2545 173.081C39.3919 173.21 39.4905 173.376 39.5391 173.558C39.6075 173.82 39.6383 174.09 39.6305 174.361C39.6278 174.706 39.573 175.048 39.4679 175.377C39.3634 175.732 39.2166 176.073 39.0309 176.393C38.8414 176.702 38.6125 176.986 38.35 177.236C38.0992 177.49 37.8155 177.708 37.5065 177.886C37.2485 178.051 36.9567 178.155 36.6528 178.191C36.4335 178.22 36.2106 178.181 36.0142 178.08C35.8178 177.978 35.6576 177.818 35.5552 177.622C35.4515 177.403 35.396 177.164 35.3926 176.921C35.3963 176.854 35.4136 176.788 35.4434 176.728C35.4601 176.679 35.4921 176.636 35.5349 176.606L36.4394 176.088C36.4837 176.056 36.5369 176.038 36.5918 176.037C36.6307 176.041 36.6668 176.059 36.6934 176.088L36.7849 176.169C36.8204 176.22 36.8698 176.258 36.9272 176.281C37.0035 176.303 37.0846 176.303 37.1609 176.281C37.2848 176.271 37.4039 176.229 37.5065 176.159C37.7338 176.033 37.9396 175.872 38.1163 175.682C38.271 175.528 38.3587 175.32 38.3602 175.102C38.3648 175.062 38.3588 175.021 38.3428 174.984C38.3268 174.946 38.3012 174.914 38.2687 174.889C38.1816 174.87 38.0916 174.87 38.0045 174.889C37.8496 174.906 37.6965 174.936 37.5471 174.98L36.8865 175.153C36.7162 175.216 36.5322 175.233 36.3534 175.2C36.1747 175.168 36.0078 175.089 35.8702 174.97C35.6119 174.604 35.4962 174.156 35.545 173.71C35.5454 173.391 35.5899 173.073 35.6771 172.766C35.7669 172.433 35.8966 172.112 36.0633 171.811C36.2338 171.504 36.4383 171.218 36.6731 170.957C36.8958 170.717 37.1526 170.512 37.4353 170.347V170.347Z" fill="#F5F7FA"/>
<path d="M42.3643 167.472C42.6075 167.322 42.8826 167.232 43.1672 167.208C43.3856 167.19 43.6044 167.236 43.7973 167.34C43.9811 167.438 44.1301 167.591 44.2242 167.777C44.3223 167.969 44.3745 168.181 44.3766 168.397C44.3909 168.457 44.3909 168.519 44.3766 168.58C44.3534 168.631 44.3186 168.676 44.275 168.712L43.3705 169.23C43.321 169.246 43.2675 169.246 43.218 169.23C43.173 169.226 43.1303 169.208 43.0961 169.179L43.0351 169.108C43.0004 169.073 42.9589 169.045 42.9131 169.027C42.8429 169.011 42.77 169.011 42.6997 169.027C42.5939 169.046 42.4934 169.087 42.405 169.149C42.3142 169.197 42.229 169.255 42.1509 169.321C42.0726 169.381 42.0011 169.449 41.9375 169.524C41.8746 169.601 41.8232 169.687 41.7851 169.778C41.7445 169.871 41.7238 169.972 41.7241 170.073C41.7191 170.154 41.7445 170.234 41.7952 170.297C41.8229 170.324 41.8566 170.345 41.8936 170.357C41.9306 170.369 41.97 170.373 42.0086 170.368C42.1494 170.363 42.2892 170.343 42.4253 170.307L43.0554 170.144C43.2651 170.076 43.4858 170.048 43.7059 170.063C43.8801 170.064 44.0487 170.125 44.1835 170.236C44.3156 170.364 44.4105 170.525 44.4579 170.703C44.5296 170.968 44.5638 171.241 44.5596 171.516C44.5539 171.861 44.4992 172.203 44.3969 172.532C44.1808 173.224 43.7968 173.853 43.279 174.361C43.0255 174.611 42.7422 174.83 42.4355 175.011C42.1747 175.17 41.8842 175.273 41.5818 175.316C41.3544 175.341 41.1245 175.299 40.9212 175.194C40.7345 175.087 40.5828 174.928 40.4842 174.737C40.3745 174.523 40.3187 174.286 40.3216 174.046C40.3072 173.982 40.3072 173.916 40.3216 173.853C40.3449 173.804 40.3798 173.762 40.4232 173.731L41.3277 173.213C41.3887 173.213 41.4395 173.152 41.47 173.213C41.5066 173.203 41.5452 173.203 41.5818 173.213L41.6631 173.304C41.7076 173.349 41.759 173.387 41.8155 173.416C41.8919 173.438 41.973 173.438 42.0493 173.416C42.1717 173.4 42.2894 173.358 42.3948 173.294C42.62 173.165 42.8253 173.004 43.0046 172.816C43.1593 172.663 43.247 172.455 43.2485 172.237C43.2532 172.197 43.2472 172.156 43.2312 172.118C43.2151 172.081 43.1896 172.048 43.1571 172.024C43.0706 172 42.9793 172 42.8928 172.024C42.7379 172.04 42.5848 172.071 42.4355 172.115L41.7749 172.278C41.6055 172.342 41.4219 172.36 41.2432 172.33C41.0645 172.3 40.8972 172.222 40.7586 172.105C40.4968 171.736 40.3777 171.285 40.4232 170.835C40.4279 170.515 40.4758 170.197 40.5655 169.89C40.6509 169.559 40.7808 169.241 40.9517 168.945C41.1185 168.633 41.3233 168.343 41.5615 168.082C41.799 167.842 42.0693 167.636 42.3643 167.472V167.472Z" fill="#F5F7FA"/>
<path d="M45.0677 184.288L23.5832 196.714C23.4279 196.816 23.2985 196.952 23.205 197.113C23.1115 197.273 23.0566 197.453 23.0446 197.638V209.627C23.055 209.813 23.1093 209.993 23.2029 210.154C23.2965 210.315 23.4268 210.451 23.5832 210.552L25.7073 211.751C25.8655 211.828 26.0393 211.868 26.2154 211.868C26.3915 211.868 26.5653 211.828 26.7235 211.751L48.2182 199.376C48.3705 199.271 48.4972 199.134 48.5888 198.974C48.6803 198.814 48.7343 198.635 48.7467 198.451V186.462C48.7362 186.277 48.682 186.096 48.5884 185.935C48.4948 185.775 48.3644 185.638 48.2081 185.538L46.0942 184.339C45.9371 184.256 45.7638 184.209 45.5866 184.2C45.4093 184.191 45.2322 184.221 45.0677 184.288V184.288Z" fill="#4CAF4F"/>
<path opacity="0.4" d="M45.0677 184.288L23.5832 196.714C23.4279 196.816 23.2985 196.952 23.205 197.113C23.1115 197.273 23.0566 197.453 23.0446 197.638V209.627C23.055 209.813 23.1093 209.993 23.2029 210.154C23.2965 210.315 23.4268 210.451 23.5832 210.552L25.7073 211.751C25.8655 211.828 26.0393 211.868 26.2154 211.868C26.3915 211.868 26.5653 211.828 26.7235 211.751L48.2182 199.376C48.3705 199.271 48.4972 199.134 48.5888 198.974C48.6803 198.814 48.7343 198.635 48.7467 198.451V186.462C48.7362 186.277 48.682 186.096 48.5884 185.935C48.4948 185.775 48.3644 185.638 48.2081 185.538L46.0942 184.339C45.9371 184.256 45.7638 184.209 45.5866 184.2C45.4093 184.191 45.2322 184.221 45.0677 184.288V184.288Z" fill="#103E13"/>
<path d="M48.7867 186.309C48.7867 186.045 48.5327 185.943 48.2583 186.096L26.7737 198.481C26.6167 198.579 26.4873 198.715 26.3977 198.877L23.2065 197.048C23.292 196.889 23.4183 196.756 23.5724 196.662L45.0569 184.287C45.2238 184.202 45.4084 184.158 45.5956 184.158C45.7828 184.158 45.9673 184.202 46.1342 184.287L48.2583 185.537C48.3961 185.621 48.5144 185.733 48.6056 185.866C48.6967 185.999 48.7584 186.15 48.7867 186.309V186.309Z" fill="#4CAF4F"/>
<path d="M48.269 186.096L26.7743 198.481C26.6195 198.58 26.4906 198.715 26.3987 198.874C26.3067 199.033 26.2543 199.212 26.2458 199.395V211.394C26.2458 211.729 26.4796 211.872 26.7743 211.699L48.269 199.324C48.4229 199.222 48.5508 199.085 48.6426 198.924C48.7343 198.764 48.7874 198.584 48.7975 198.4V186.411C48.7975 186.065 48.6145 185.933 48.269 186.096Z" fill="#4CAF4F"/>
<g opacity="0.2">
<path opacity="0.2" d="M48.269 186.096L26.7743 198.481C26.6195 198.58 26.4906 198.715 26.3987 198.874C26.3067 199.033 26.2543 199.212 26.2458 199.395V211.394C26.2458 211.729 26.4796 211.872 26.7743 211.699L48.269 199.324C48.4229 199.222 48.5508 199.085 48.6426 198.924C48.7343 198.764 48.7874 198.584 48.7975 198.4V186.411C48.7975 186.065 48.6145 185.933 48.269 186.096Z" fill="#103E13"/>
</g>
<path d="M31.6525 198.684C31.6611 198.675 31.6713 198.668 31.6827 198.663C31.694 198.658 31.7063 198.656 31.7186 198.656C31.7309 198.656 31.7432 198.658 31.7545 198.663C31.7659 198.668 31.7761 198.675 31.7847 198.684C31.8062 198.705 31.8228 198.73 31.8334 198.758C31.8439 198.787 31.8481 198.817 31.8456 198.847V205.674C31.8433 205.756 31.8224 205.835 31.7847 205.908C31.7579 205.971 31.7116 206.025 31.6525 206.06L30.7582 206.578C30.7497 206.587 30.7394 206.594 30.728 206.599C30.7167 206.604 30.7045 206.607 30.6921 206.607C30.6798 206.607 30.6676 206.604 30.6562 206.599C30.6449 206.594 30.6346 206.587 30.6261 206.578C30.6261 206.578 30.6261 206.497 30.6261 206.416V203.825L29.1016 204.709V207.29C29.1021 207.371 29.0811 207.452 29.0407 207.523C29.0167 207.588 28.9743 207.645 28.9187 207.686L28.0142 208.204C27.9958 208.22 27.9724 208.228 27.9481 208.228C27.9239 208.228 27.9005 208.22 27.8821 208.204C27.8619 208.148 27.8619 208.087 27.8821 208.031V201.204C27.868 201.126 27.868 201.047 27.8821 200.97C27.9123 200.906 27.9576 200.85 28.0142 200.807L28.9187 200.289C28.9363 200.276 28.9577 200.269 28.9797 200.269C29.0017 200.269 29.0231 200.276 29.0407 200.289C29.0624 200.312 29.0791 200.339 29.0897 200.369C29.1002 200.399 29.1042 200.431 29.1016 200.462V203.002L30.6261 202.128V199.578C30.6079 199.501 30.6079 199.421 30.6261 199.344C30.6562 199.283 30.7017 199.231 30.7582 199.192L31.6525 198.684Z" fill="#F5F7FA"/>
<path d="M36.6731 195.788C36.6816 195.779 36.6919 195.772 36.7032 195.767C36.7146 195.763 36.7268 195.76 36.7391 195.76C36.7515 195.76 36.7637 195.763 36.7751 195.767C36.7864 195.772 36.7967 195.779 36.8052 195.788C36.8247 195.841 36.8247 195.898 36.8052 195.951V197.068C36.8205 197.146 36.8205 197.225 36.8052 197.302C36.778 197.368 36.732 197.425 36.6731 197.465L35.4637 198.166V203.581C35.4594 203.666 35.4387 203.748 35.4027 203.825C35.3725 203.889 35.3272 203.945 35.2706 203.987L34.3661 204.506C34.3464 204.518 34.3235 204.525 34.3 204.525C34.2766 204.525 34.2537 204.518 34.234 204.506C34.2146 204.45 34.2146 204.389 34.234 204.333V198.918L33.0246 199.609C33.0062 199.624 32.9827 199.633 32.9585 199.633C32.9343 199.633 32.9109 199.624 32.8925 199.609C32.8579 199.558 32.8401 199.497 32.8416 199.436V198.318C32.8427 198.238 32.86 198.158 32.8925 198.084C32.9197 198.019 32.9656 197.962 33.0246 197.922L36.6731 195.788Z" fill="#F5F7FA"/>
<path d="M39.8236 199.497C39.7868 199.461 39.7559 199.42 39.7322 199.375L39.0817 198.003V201.498C39.0845 201.579 39.067 201.66 39.0309 201.732C39.0037 201.798 38.9578 201.854 38.8988 201.895L38.0045 202.413C37.9861 202.428 37.9626 202.437 37.9384 202.437C37.9142 202.437 37.8907 202.428 37.8723 202.413C37.8609 202.385 37.855 202.356 37.855 202.326C37.855 202.297 37.8609 202.267 37.8723 202.24V195.423C37.8534 195.346 37.8534 195.266 37.8723 195.189C37.8996 195.123 37.9455 195.066 38.0045 195.026L38.7972 194.569C38.8886 194.569 38.9598 194.569 39.0004 194.569C39.0358 194.602 39.0666 194.64 39.0919 194.681L40.2098 196.967L41.3176 193.401C41.3409 193.323 41.3715 193.249 41.4091 193.177C41.4476 193.078 41.5194 192.995 41.6123 192.944L42.405 192.486C42.4136 192.477 42.4238 192.47 42.4352 192.465C42.4465 192.461 42.4587 192.458 42.4711 192.458C42.4834 192.458 42.4957 192.461 42.507 192.465C42.5184 192.47 42.5286 192.477 42.5371 192.486C42.549 192.512 42.5551 192.54 42.5551 192.568C42.5551 192.596 42.549 192.623 42.5371 192.649V199.476C42.5561 199.553 42.5561 199.633 42.5371 199.71C42.5069 199.774 42.4616 199.83 42.405 199.873L41.5107 200.391C41.491 200.404 41.4681 200.41 41.4446 200.41C41.4212 200.41 41.3983 200.404 41.3786 200.391C41.3671 200.364 41.3612 200.334 41.3612 200.304C41.3612 200.275 41.3671 200.245 41.3786 200.218V196.713L40.7281 198.826C40.7031 198.906 40.6725 198.984 40.6367 199.06C40.6025 199.136 40.5458 199.2 40.4741 199.243L40.0371 199.487C39.9151 199.527 39.8643 199.537 39.8236 199.497Z" fill="#F5F7FA"/>
<path d="M47.263 195.382C47.263 195.382 47.3544 195.382 47.3849 195.382C47.4065 195.403 47.4231 195.428 47.4336 195.456C47.4442 195.484 47.4484 195.515 47.4459 195.544V196.713C47.4464 196.795 47.4254 196.875 47.3849 196.947C47.3641 197.013 47.321 197.07 47.263 197.109L44.0819 198.938C44.0635 198.954 44.0401 198.962 44.0159 198.962C43.9917 198.962 43.9682 198.954 43.9498 198.938C43.9305 198.882 43.9305 198.821 43.9498 198.765V191.938C43.9358 191.864 43.9358 191.788 43.9498 191.714C43.9771 191.648 44.023 191.592 44.0819 191.552L44.9763 191.033C44.9848 191.025 44.9951 191.017 45.0064 191.013C45.0178 191.008 45.03 191.005 45.0423 191.005C45.0547 191.005 45.0669 191.008 45.0783 191.013C45.0896 191.017 45.0999 191.025 45.1084 191.033C45.1299 191.054 45.1466 191.08 45.1571 191.108C45.1677 191.136 45.1719 191.166 45.1694 191.196V196.621L47.263 195.382Z" fill="#F5F7FA"/>
<path d="M45.0677 209.21L23.5832 221.585C23.4268 221.685 23.2965 221.822 23.2029 221.982C23.1093 222.143 23.055 222.324 23.0446 222.509V234.498C23.055 234.684 23.1093 234.864 23.2029 235.025C23.2965 235.186 23.4268 235.322 23.5832 235.423L25.7073 236.622C25.8663 236.696 26.0398 236.734 26.2154 236.734C26.391 236.734 26.5645 236.696 26.7235 236.622L48.269 224.247C48.4213 224.142 48.548 224.005 48.6396 223.845C48.7311 223.685 48.7851 223.506 48.7975 223.322V211.333C48.7871 211.147 48.7328 210.967 48.6392 210.806C48.5456 210.646 48.4153 210.509 48.2589 210.409L46.145 209.21C45.9781 209.125 45.7935 209.081 45.6063 209.081C45.4191 209.081 45.2346 209.125 45.0677 209.21V209.21Z" fill="#4CAF4F"/>
<path opacity="0.4" d="M45.0677 209.21L23.5832 221.585C23.4268 221.685 23.2965 221.822 23.2029 221.982C23.1093 222.143 23.055 222.324 23.0446 222.509V234.498C23.055 234.684 23.1093 234.864 23.2029 235.025C23.2965 235.186 23.4268 235.322 23.5832 235.423L25.7073 236.622C25.8663 236.696 26.0398 236.734 26.2154 236.734C26.391 236.734 26.5645 236.696 26.7235 236.622L48.269 224.247C48.4213 224.142 48.548 224.005 48.6396 223.845C48.7311 223.685 48.7851 223.506 48.7975 223.322V211.333C48.7871 211.147 48.7328 210.967 48.6392 210.806C48.5456 210.646 48.4153 210.509 48.2589 210.409L46.145 209.21C45.9781 209.125 45.7935 209.081 45.6063 209.081C45.4191 209.081 45.2346 209.125 45.0677 209.21V209.21Z" fill="#103E13"/>
<path d="M48.7867 211.232C48.7867 210.967 48.5327 210.866 48.2583 211.018L26.7737 223.393C26.6189 223.498 26.4902 223.637 26.3977 223.8L23.2065 221.961C23.2956 221.807 23.4213 221.678 23.5724 221.585L45.0671 209.21C45.2347 209.127 45.419 209.084 45.6057 209.084C45.7925 209.084 45.9768 209.127 46.1444 209.21L48.2583 210.419C48.4008 210.507 48.5221 210.626 48.6134 210.766C48.7048 210.907 48.764 211.066 48.7867 211.232Z" fill="#4CAF4F"/>
<path d="M48.269 211.018L26.7743 223.393C26.6204 223.496 26.4925 223.632 26.4007 223.793C26.309 223.953 26.256 224.133 26.2458 224.318V236.337C26.2458 236.682 26.4796 236.815 26.7743 236.652L48.269 224.247C48.4229 224.144 48.5508 224.007 48.6426 223.847C48.7343 223.686 48.7874 223.507 48.7975 223.322V211.333C48.7975 210.988 48.6145 210.856 48.269 211.018Z" fill="#4CAF4F"/>
<g opacity="0.2">
<path opacity="0.2" d="M48.269 211.018L26.7743 223.393C26.6204 223.496 26.4925 223.632 26.4007 223.793C26.309 223.953 26.256 224.133 26.2458 224.318V236.337C26.2458 236.682 26.4796 236.815 26.7743 236.652L48.269 224.247C48.4229 224.144 48.5508 224.007 48.6426 223.847C48.7343 223.686 48.7874 223.507 48.7975 223.322V211.333C48.7975 210.988 48.6145 210.856 48.269 211.018Z" fill="#103E13"/>
</g>
<path d="M31.9676 226.228C31.9676 226.319 31.9676 226.451 31.9676 226.614V227.63C31.9676 227.803 31.9676 227.924 31.9676 228.016C31.9765 228.16 31.9969 228.302 32.0286 228.443C32.0584 228.553 32.1103 228.657 32.1811 228.747C32.2521 228.818 32.3456 228.861 32.4453 228.869C32.5834 228.86 32.7165 228.814 32.8315 228.737C32.9761 228.658 33.1066 228.555 33.2177 228.432C33.3121 228.325 33.3971 228.209 33.4718 228.087C33.5303 227.973 33.5779 227.854 33.614 227.731C33.614 227.61 33.675 227.508 33.6953 227.406C33.7114 227.313 33.7352 227.221 33.7665 227.132C33.8012 227.061 33.8584 227.004 33.9291 226.969L34.8234 226.451C34.8394 226.439 34.8591 226.432 34.8793 226.432C34.8996 226.432 34.9192 226.439 34.9352 226.451C34.9352 226.451 34.9352 226.522 34.9352 226.583C34.931 226.962 34.8728 227.339 34.7624 227.701C34.654 228.079 34.504 228.443 34.3153 228.788C34.1246 229.125 33.8962 229.438 33.6344 229.723C33.3955 230 33.11 230.234 32.7908 230.414C32.5299 230.584 32.2282 230.683 31.9168 230.698C31.6759 230.701 31.4418 230.618 31.2562 230.465C31.0552 230.284 30.9075 230.052 30.8294 229.794C30.7248 229.465 30.6666 229.123 30.6566 228.778C30.6566 228.493 30.6566 228.189 30.6566 227.853C30.6566 227.518 30.6566 227.203 30.6566 226.898C30.6699 226.494 30.7279 226.091 30.8294 225.699C30.9553 225.299 31.1257 224.914 31.3375 224.551C31.5143 224.186 31.7363 223.845 31.9981 223.535C32.2508 223.242 32.5494 222.991 32.8823 222.794C33.1379 222.637 33.4269 222.543 33.7258 222.519C33.9646 222.496 34.2042 222.553 34.4067 222.682C34.6097 222.818 34.7658 223.013 34.8539 223.241C34.9745 223.53 35.0333 223.842 35.0267 224.155C35.0411 224.219 35.0411 224.285 35.0267 224.348C35.0005 224.4 34.9622 224.446 34.9149 224.48L34.0206 224.998C33.9392 224.998 33.8884 224.998 33.8579 224.998C33.8223 224.939 33.7981 224.874 33.7868 224.805C33.7868 224.734 33.7868 224.653 33.7055 224.572C33.6785 224.497 33.6287 224.433 33.5632 224.389C33.4855 224.346 33.3978 224.325 33.3091 224.328C33.1724 224.343 33.0407 224.389 32.923 224.46C32.777 224.546 32.6465 224.656 32.5368 224.785C32.4334 224.917 32.3447 225.06 32.2725 225.212C32.2096 225.367 32.1586 225.526 32.1201 225.689C32.0572 225.865 32.0063 226.045 31.9676 226.228Z" fill="#F5F7FA"/>
<path d="M38.2686 224.826V226.563C38.2828 226.64 38.2828 226.719 38.2686 226.797C38.2414 226.863 38.1955 226.919 38.1365 226.959L37.2727 227.457C37.2543 227.473 37.2308 227.482 37.2066 227.482C37.1824 227.482 37.159 227.473 37.1405 227.457C37.1291 227.43 37.1232 227.4 37.1232 227.371C37.1232 227.341 37.1291 227.312 37.1405 227.284V225.547L36.1243 226.157C36.1157 226.166 36.1055 226.173 36.0941 226.178C36.0828 226.182 36.0705 226.185 36.0582 226.185C36.0458 226.185 36.0336 226.182 36.0223 226.178C36.0109 226.173 36.0007 226.166 35.9921 226.157C35.9727 226.104 35.9727 226.047 35.9921 225.994V224.927C35.9768 224.85 35.9768 224.771 35.9921 224.694C36.0194 224.628 36.0653 224.571 36.1243 224.531L37.1405 223.921V222.113C37.1224 222.036 37.1224 221.956 37.1405 221.879C37.1679 221.816 37.214 221.763 37.2727 221.727L38.1365 221.219C38.1562 221.206 38.1792 221.199 38.2026 221.199C38.226 221.199 38.2489 221.206 38.2686 221.219C38.288 221.275 38.288 221.336 38.2686 221.392V223.129L39.2849 222.519C39.3046 222.507 39.3276 222.5 39.351 222.5C39.3744 222.5 39.3974 222.507 39.4171 222.519C39.437 222.543 39.4519 222.571 39.4606 222.6C39.4694 222.63 39.4718 222.661 39.4679 222.692V223.759C39.4706 223.84 39.4531 223.92 39.4171 223.993C39.3869 224.057 39.3415 224.112 39.2849 224.155L38.2686 224.826Z" fill="#F5F7FA"/>
<path d="M42.8216 222.194V223.942C42.8193 224.023 42.7984 224.103 42.7606 224.175C42.7337 224.236 42.6917 224.288 42.6387 224.328L41.7647 224.826C41.757 224.834 41.7477 224.841 41.7372 224.846C41.7266 224.851 41.7152 224.853 41.7037 224.853C41.6922 224.853 41.6808 224.851 41.6702 224.846C41.6597 224.841 41.6504 224.834 41.6427 224.826C41.6212 224.805 41.6045 224.779 41.594 224.751C41.5834 224.723 41.5793 224.693 41.5817 224.663V222.916L40.5654 223.535C40.547 223.551 40.5236 223.56 40.4994 223.56C40.4752 223.56 40.4517 223.551 40.4333 223.535C40.4115 223.512 40.3948 223.485 40.3843 223.456C40.3738 223.426 40.3697 223.394 40.3723 223.363V222.296C40.3747 222.214 40.3956 222.134 40.4333 222.062C40.4573 221.997 40.5043 221.943 40.5654 221.91L41.5817 221.29V219.553C41.5812 219.471 41.6023 219.39 41.6427 219.319C41.6667 219.254 41.7091 219.198 41.7647 219.156L42.6387 218.658C42.6463 218.65 42.6557 218.643 42.6662 218.638C42.6767 218.633 42.6881 218.631 42.6997 218.631C42.7112 218.631 42.7226 218.633 42.7331 218.638C42.7436 218.643 42.753 218.65 42.7606 218.658C42.7822 218.679 42.7988 218.705 42.8094 218.733C42.8199 218.761 42.8241 218.791 42.8216 218.821V220.569L43.8379 219.959C43.8465 219.95 43.8567 219.943 43.8681 219.938C43.8794 219.933 43.8916 219.931 43.904 219.931C43.9163 219.931 43.9285 219.933 43.9399 219.938C43.9512 219.943 43.9615 219.95 43.97 219.959C43.9902 220.015 43.9902 220.076 43.97 220.132V221.148C43.9841 221.222 43.9841 221.297 43.97 221.371C43.9428 221.437 43.8969 221.494 43.8379 221.534L42.8216 222.194Z" fill="#F5F7FA"/>
</svg>
