<svg width="391" height="407" viewBox="0 0 391 407" fill="none" xmlns="http://www.w3.org/2000/svg">
<g opacity="0.1">
<path opacity="0.1" d="M200.175 57.0731L37.5673 150.921V242.9C37.5553 243.433 37.704 243.957 37.9942 244.404C38.0912 244.565 38.2263 244.699 38.3877 244.794C38.549 244.89 38.7316 244.945 38.919 244.953C39.1524 244.948 39.3803 244.881 39.5796 244.76L204.047 149.753V59.3286C204.047 56.8292 202.309 55.8335 200.175 57.0731Z" fill="#103E13"/>
</g>
<path d="M35.3316 240.401C35.566 240.394 35.7941 240.323 35.9922 240.198L210.063 139.613C210.777 139.144 211.372 138.515 211.8 137.776C212.229 137.037 212.48 136.209 212.533 135.356V3.86505C212.533 2.94049 212.147 2.39185 211.517 2.39185C211.157 2.4017 210.806 2.50688 210.5 2.69665L36.419 103.24C35.7051 103.712 35.1105 104.343 34.6819 105.084C34.2534 105.824 34.0026 106.654 33.9494 107.508V238.308C33.9398 238.841 34.0884 239.364 34.3763 239.812C34.4739 239.982 34.6125 240.125 34.7793 240.227C34.9461 240.33 35.1359 240.39 35.3316 240.401V240.401Z" fill="#F5F7FA"/>
<path d="M31.2155 238.694C31.5103 238.847 33.6038 240.035 34.5185 240.564C34.1822 240.293 33.9148 239.947 33.7381 239.553C33.5615 239.159 33.4806 238.729 33.5022 238.298V116.276L30.057 114.244V236.337C30.0267 236.797 30.1177 237.257 30.3211 237.671C30.5244 238.084 30.8328 238.437 31.2155 238.694V238.694Z" fill="#F5F7FA"/>
<path d="M211.496 2.84882C212.005 2.84882 212.076 3.47875 212.076 3.86483V135.346C212.023 136.119 211.794 136.87 211.407 137.541C211.019 138.211 210.483 138.785 209.84 139.217L35.7686 239.801C35.6368 239.883 35.4862 239.928 35.3316 239.934C34.8539 239.934 34.4372 239.192 34.4372 238.338V107.477C34.4846 106.703 34.7113 105.95 35.0993 105.278C35.4873 104.607 36.026 104.034 36.6731 103.606L210.744 3.09267C210.969 2.94668 211.229 2.86257 211.496 2.84882ZM211.496 1.94458C211.071 1.95606 210.657 2.08245 210.297 2.31034L36.2157 102.814C35.4338 103.326 34.7834 104.015 34.3173 104.825C33.8512 105.635 33.5824 106.544 33.5327 107.477V238.308C33.5327 239.659 34.2848 240.817 35.3316 240.817C35.648 240.812 35.957 240.72 36.2259 240.553L210.287 139.969C211.073 139.462 211.728 138.776 212.198 137.967C212.668 137.158 212.939 136.249 212.99 135.316V3.86483C212.99 2.64562 212.381 1.94458 211.496 1.94458Z" fill="#E0E0E0"/>
<path d="M212.981 3.80398V12.8159L33.5335 116.448L30.0883 114.416V105.557C30.1266 104.605 30.4063 103.678 30.9013 102.864C31.3526 102.063 31.9994 101.388 32.7814 100.904L206.853 0.359728C207.134 0.157263 207.465 0.0351676 207.811 0.00653064C208.156 -0.0221063 208.503 0.0437952 208.814 0.197167C209.312 0.501969 211.67 1.84309 212.148 2.08693C212.223 2.12243 212.292 2.17054 212.351 2.22918C212.432 2.28928 212.504 2.36119 212.564 2.44254C212.633 2.52616 212.692 2.61836 212.737 2.71686C212.8 2.81675 212.844 2.92677 212.869 3.04198C212.908 3.16098 212.935 3.28347 212.95 3.40774V3.40774C212.972 3.53867 212.982 3.67126 212.981 3.80398V3.80398Z" fill="#4CAF4F"/>
<path opacity="0.15" d="M212.981 3.80398V12.8159L33.5335 116.448L30.0883 114.416V105.557C30.1266 104.605 30.4063 103.678 30.9013 102.864C31.3526 102.063 31.9994 101.388 32.7814 100.904L206.853 0.359728C207.134 0.157263 207.465 0.0351676 207.811 0.00653064C208.156 -0.0221063 208.503 0.0437952 208.814 0.197167C209.312 0.501969 211.67 1.84309 212.148 2.08693C212.223 2.12243 212.292 2.17054 212.351 2.22918C212.432 2.28928 212.504 2.36119 212.564 2.44254C212.633 2.52616 212.692 2.61836 212.737 2.71686C212.8 2.81675 212.844 2.92677 212.869 3.04198C212.908 3.16098 212.935 3.28347 212.95 3.40774V3.40774C212.972 3.53867 212.982 3.67126 212.981 3.80398V3.80398Z" fill="#103E13"/>
<path d="M212.98 3.804V12.816L33.5327 116.448V107.548C33.5401 106.975 33.6503 106.407 33.8579 105.872C33.8882 105.778 33.9256 105.686 33.9697 105.598C34.0752 105.346 34.1974 105.101 34.3356 104.866C34.7844 104.054 35.4356 103.371 36.2259 102.885L210.287 2.31047C210.577 2.09211 210.928 1.96737 211.291 1.95285C211.654 1.93833 212.013 2.03472 212.32 2.22919C212.401 2.2893 212.473 2.36121 212.533 2.44255C212.602 2.52618 212.66 2.61838 212.706 2.71688C212.768 2.81677 212.813 2.92678 212.838 3.042C212.877 3.16099 212.904 3.28349 212.919 3.40776V3.40776C212.951 3.53777 212.972 3.67037 212.98 3.804V3.804Z" fill="#4CAF4F"/>
<path d="M194.961 14.6041C194.427 15.0283 193.999 15.5697 193.708 16.1864C193.417 16.8031 193.272 17.4784 193.284 18.1601C193.284 19.5926 194.036 20.314 194.961 19.7755C195.495 19.3513 195.924 18.8098 196.215 18.1932C196.506 17.5765 196.651 16.9012 196.638 16.2195C196.587 14.8479 195.835 14.0656 194.961 14.6041Z" fill="#F5F7FA"/>
<path d="M200.957 11.1091C200.422 11.5322 199.993 12.0735 199.702 12.6904C199.411 13.3073 199.267 13.9832 199.281 14.6651C199.281 16.0875 200.033 16.819 200.957 16.2805C201.494 15.8578 201.925 15.3169 202.218 14.7001C202.51 14.0832 202.656 13.4071 202.644 12.7245C202.644 11.2919 201.892 10.5706 200.957 11.1091Z" fill="#F5F7FA"/>
<path d="M207.014 7.60389C206.478 8.02657 206.047 8.56746 205.754 9.18431C205.462 9.80117 205.316 10.4773 205.327 11.1599C205.327 12.5925 206.08 13.3138 207.014 12.7855C207.548 12.3608 207.976 11.8192 208.267 11.2027C208.558 10.5861 208.703 9.91104 208.691 9.2295C208.691 7.79694 207.939 7.07557 207.014 7.60389Z" fill="#F5F7FA"/>
<path d="M210.297 2.31046L36.2259 102.814C35.43 103.319 34.776 104.018 34.3254 104.846L30.9106 102.814C31.3522 102.005 31.9967 101.326 32.7806 100.843L206.852 0.359728C207.133 0.157263 207.465 0.0351676 207.81 0.00653064C208.156 -0.0221063 208.502 0.0437952 208.813 0.197167C209.291 0.491809 211.527 1.76181 212.096 2.06661C211.799 1.95936 211.48 1.92552 211.167 1.96797C210.853 2.01043 210.555 2.12793 210.297 2.31046Z" fill="#4CAF4F"/>
<g opacity="0.5">
<path opacity="0.5" d="M210.297 2.31046L36.2259 102.814C35.43 103.319 34.776 104.018 34.3254 104.846L30.9106 102.814C31.3522 102.005 31.9967 101.326 32.7806 100.843L206.852 0.359728C207.133 0.157263 207.465 0.0351676 207.81 0.00653064C208.156 -0.0221063 208.502 0.0437952 208.813 0.197167C209.291 0.491809 211.527 1.76181 212.096 2.06661C211.799 1.95936 211.48 1.92552 211.167 1.96797C210.853 2.01043 210.555 2.12793 210.297 2.31046Z" fill="white"/>
</g>
<path d="M77.0708 120.756C77.0061 120.756 76.9441 120.731 76.8983 120.685C76.8526 120.639 76.8269 120.577 76.8269 120.512V110.261C76.8269 110.196 76.8526 110.134 76.8983 110.089C76.9441 110.043 77.0061 110.017 77.0708 110.017C77.1024 110.017 77.1336 110.023 77.1627 110.036C77.1917 110.048 77.218 110.066 77.2398 110.089C77.2616 110.112 77.2786 110.139 77.2898 110.168C77.3009 110.198 77.3059 110.229 77.3046 110.261V120.512C77.3059 120.544 77.3009 120.575 77.2898 120.605C77.2786 120.635 77.2616 120.661 77.2398 120.684C77.218 120.707 77.1917 120.725 77.1627 120.738C77.1336 120.75 77.1024 120.756 77.0708 120.756V120.756Z" fill="#455A64"/>
<path d="M76.2069 119.547L77.0301 120.37L77.8432 119.547V120.248L77.0301 121.061L76.2069 120.248V119.547Z" fill="#455A64"/>
<path d="M85.7398 121.874C85.6962 121.877 85.6528 121.867 85.6148 121.845C85.5769 121.823 85.5461 121.791 85.5264 121.752C85.5103 121.725 85.4999 121.695 85.4959 121.663C85.4918 121.632 85.4941 121.6 85.5026 121.57C85.5112 121.54 85.5258 121.511 85.5456 121.487C85.5654 121.462 85.59 121.442 85.6178 121.427L92.3661 117.526C92.394 117.509 92.4249 117.499 92.457 117.494C92.4891 117.49 92.5217 117.493 92.5529 117.501C92.5841 117.51 92.6133 117.524 92.6388 117.544C92.6643 117.564 92.6856 117.589 92.7014 117.617C92.7311 117.672 92.7382 117.737 92.7211 117.798C92.7041 117.859 92.6643 117.91 92.61 117.942L85.8516 121.844C85.8181 121.864 85.7792 121.875 85.7398 121.874V121.874Z" fill="#455A64"/>
<path d="M92.0612 118.928L92.3661 117.81L91.2482 117.505L91.8478 117.16L92.9657 117.454L92.671 118.572L92.0612 118.928Z" fill="#455A64"/>
<path d="M84.4898 175.732C84.4462 175.735 84.4028 175.725 84.3648 175.703C84.3269 175.682 84.2961 175.649 84.2764 175.61C84.2603 175.583 84.2499 175.553 84.2459 175.522C84.2418 175.49 84.2441 175.459 84.2526 175.428C84.2612 175.398 84.2758 175.37 84.2956 175.345C84.3154 175.32 84.34 175.3 84.3678 175.285L91.116 171.384C91.1731 171.354 91.2395 171.346 91.3018 171.363C91.3641 171.38 91.4176 171.42 91.4514 171.475C91.4793 171.533 91.4854 171.598 91.4686 171.66C91.4518 171.722 91.4132 171.775 91.3599 171.811L84.6016 175.702C84.5681 175.723 84.5292 175.733 84.4898 175.732V175.732Z" fill="#455A64"/>
<path d="M90.8112 172.786L91.1161 171.668L89.9982 171.374L90.5978 171.018L91.7157 171.323L91.421 172.44L90.8112 172.786Z" fill="#455A64"/>
<path d="M108.993 161.59C108.951 161.59 108.909 161.579 108.874 161.558C108.838 161.536 108.808 161.505 108.789 161.468C108.772 161.441 108.76 161.411 108.755 161.379C108.75 161.347 108.752 161.315 108.761 161.284C108.77 161.253 108.785 161.225 108.805 161.2C108.826 161.176 108.852 161.156 108.881 161.143L115.629 157.241C115.656 157.223 115.686 157.212 115.718 157.207C115.749 157.202 115.782 157.204 115.813 157.213C115.843 157.221 115.872 157.236 115.896 157.257C115.921 157.278 115.941 157.304 115.954 157.332C115.971 157.359 115.982 157.389 115.987 157.42C115.991 157.45 115.99 157.482 115.982 157.512C115.975 157.543 115.961 157.571 115.942 157.596C115.924 157.621 115.9 157.642 115.873 157.658L109.115 161.559C109.077 161.58 109.035 161.59 108.993 161.59V161.59Z" fill="#455A64"/>
<path d="M115.324 158.643L115.629 157.525L114.511 157.221L115.111 156.875L116.229 157.17L115.924 158.287L115.324 158.643Z" fill="#455A64"/>
<path d="M110.609 107.538C110.567 107.539 110.525 107.528 110.49 107.506C110.454 107.485 110.424 107.454 110.405 107.416C110.389 107.39 110.378 107.36 110.373 107.329C110.368 107.298 110.37 107.267 110.377 107.237C110.385 107.206 110.399 107.178 110.417 107.153C110.436 107.128 110.46 107.107 110.487 107.091L117.245 103.19C117.272 103.174 117.302 103.163 117.334 103.159C117.365 103.155 117.397 103.157 117.427 103.166C117.458 103.175 117.486 103.189 117.511 103.209C117.535 103.229 117.555 103.253 117.57 103.281C117.587 103.308 117.598 103.337 117.603 103.368C117.607 103.399 117.606 103.431 117.598 103.461C117.591 103.491 117.577 103.52 117.558 103.545C117.54 103.57 117.516 103.591 117.489 103.606L110.731 107.508C110.693 107.527 110.651 107.538 110.609 107.538V107.538Z" fill="#455A64"/>
<path d="M116.899 104.592L117.204 103.474L116.086 103.169L116.686 102.824L117.804 103.118L117.499 104.246L116.899 104.592Z" fill="#455A64"/>
<path d="M110.131 134.625C110.089 134.626 110.047 134.617 110.009 134.597C109.972 134.577 109.94 134.549 109.917 134.513C109.901 134.485 109.891 134.454 109.886 134.422C109.882 134.39 109.884 134.357 109.893 134.326C109.902 134.295 109.916 134.266 109.936 134.24C109.956 134.215 109.981 134.194 110.009 134.178L116.757 130.276C116.814 130.244 116.881 130.235 116.944 130.253C117.007 130.27 117.06 130.311 117.093 130.368C117.125 130.424 117.133 130.491 117.116 130.554C117.099 130.617 117.058 130.671 117.001 130.703L110.243 134.594C110.209 134.615 110.17 134.626 110.131 134.625V134.625Z" fill="#455A64"/>
<path d="M110.548 133.202L110.253 134.32L111.371 134.615L110.771 134.96L109.653 134.665L109.948 133.548L110.548 133.202Z" fill="#455A64"/>
<path d="M109.694 184.998C109.652 184.999 109.611 184.988 109.575 184.966C109.539 184.945 109.51 184.914 109.491 184.876C109.467 184.848 109.451 184.815 109.444 184.779C109.436 184.744 109.437 184.707 109.447 184.672C109.457 184.637 109.476 184.604 109.501 184.578C109.526 184.552 109.558 184.532 109.592 184.521L115.893 180.873C115.949 180.844 116.014 180.837 116.074 180.854C116.135 180.871 116.187 180.91 116.219 180.965C116.235 180.991 116.246 181.021 116.251 181.052C116.256 181.083 116.254 181.114 116.247 181.144C116.239 181.175 116.225 181.203 116.207 181.228C116.188 181.253 116.164 181.274 116.137 181.29L109.826 184.937C109.788 184.969 109.743 184.99 109.694 184.998V184.998Z" fill="#455A64"/>
<path d="M110.121 183.566L109.816 184.683L110.934 184.988L110.334 185.334L109.216 185.029L109.521 183.911L110.121 183.566Z" fill="#455A64"/>
<path d="M85.8516 148.635C85.8097 148.636 85.7684 148.625 85.7325 148.604C85.6965 148.582 85.6674 148.551 85.6483 148.514C85.6319 148.487 85.6209 148.457 85.6161 148.427C85.6113 148.396 85.6127 148.364 85.6203 148.334C85.6278 148.304 85.6414 148.275 85.6602 148.25C85.679 148.225 85.7026 148.204 85.7296 148.188L92.488 144.287C92.5435 144.257 92.6084 144.25 92.669 144.267C92.7296 144.284 92.7813 144.324 92.8132 144.378C92.8295 144.406 92.84 144.437 92.8442 144.469C92.8484 144.501 92.8462 144.534 92.8377 144.565C92.8292 144.596 92.8146 144.626 92.7946 144.651C92.7747 144.677 92.75 144.698 92.7217 144.714L85.9735 148.605L85.8516 148.635Z" fill="#455A64"/>
<path d="M86.2785 147.213L85.9736 148.331L87.0916 148.625L86.4919 148.971L85.374 148.676L85.6789 147.558L86.2785 147.213Z" fill="#455A64"/>
<path d="M124.268 116.692C124.203 116.692 124.141 116.667 124.095 116.621C124.05 116.575 124.024 116.513 124.024 116.449V108.635C124.024 108.571 124.05 108.509 124.095 108.463C124.141 108.417 124.203 108.392 124.268 108.392C124.332 108.392 124.394 108.417 124.44 108.463C124.486 108.509 124.512 108.571 124.512 108.635V116.449C124.512 116.513 124.486 116.575 124.44 116.621C124.394 116.667 124.332 116.692 124.268 116.692V116.692Z" fill="#455A64"/>
<path d="M123.455 115.493L124.268 116.306L125.091 115.493V116.184L124.268 116.997L123.455 116.184V115.493Z" fill="#455A64"/>
<path d="M77.0709 166.619C77.0311 166.631 76.9887 166.631 76.9489 166.619C76.9116 166.6 76.8803 166.571 76.8588 166.535C76.8372 166.499 76.8262 166.457 76.8269 166.416V160.665C76.8269 160.6 76.8526 160.538 76.8984 160.493C76.9441 160.447 77.0062 160.421 77.0709 160.421C77.1024 160.421 77.1337 160.428 77.1627 160.44C77.1918 160.452 77.218 160.47 77.2398 160.493C77.2617 160.516 77.2787 160.543 77.2898 160.572C77.3009 160.602 77.306 160.633 77.3046 160.665V165.989L124.054 139.004V135.427C124.054 135.363 124.08 135.301 124.126 135.255C124.171 135.209 124.233 135.184 124.298 135.184C124.363 135.184 124.425 135.209 124.471 135.255C124.516 135.301 124.542 135.363 124.542 135.427V139.146C124.541 139.187 124.529 139.228 124.507 139.263C124.486 139.299 124.456 139.328 124.42 139.349L77.1725 166.619C77.1391 166.627 77.1042 166.627 77.0709 166.619V166.619Z" fill="#455A64"/>
<path d="M77.8432 161.59L77.0301 160.777L76.2069 161.59V160.899L77.0301 160.076L77.8432 160.899V161.59Z" fill="#455A64"/>
<path d="M77.0709 193.289C77.0311 193.301 76.9887 193.301 76.9489 193.289C76.91 193.269 76.8777 193.238 76.856 193.201C76.8343 193.163 76.8242 193.119 76.827 193.076V189.367C76.827 189.302 76.8527 189.24 76.8984 189.195C76.9442 189.149 77.0062 189.123 77.0709 189.123C77.1025 189.123 77.1337 189.13 77.1628 189.142C77.1918 189.154 77.218 189.173 77.2399 189.195C77.2617 189.218 77.2787 189.245 77.2898 189.275C77.301 189.304 77.306 189.336 77.3046 189.367V192.649L124.054 165.664V160.035C124.054 159.97 124.08 159.908 124.126 159.863C124.171 159.817 124.234 159.791 124.298 159.791C124.363 159.791 124.425 159.817 124.471 159.863C124.516 159.908 124.542 159.97 124.542 160.035V165.786C124.541 165.827 124.529 165.868 124.507 165.903C124.486 165.939 124.456 165.968 124.42 165.989L77.142 193.258C77.1205 193.273 77.0963 193.283 77.0709 193.289V193.289Z" fill="#455A64"/>
<path d="M125.091 160.99L124.268 160.177L123.455 160.99V160.299L124.268 159.486L125.091 160.299V160.99Z" fill="#455A64"/>
<path d="M66.2168 186.278C66.1767 186.288 66.135 186.288 66.0949 186.278C66.0575 186.257 66.0265 186.226 66.005 186.188C65.9836 186.151 65.9725 186.108 65.9729 186.065V159.73C65.9743 159.689 65.9862 159.648 66.0075 159.613C66.0289 159.577 66.0589 159.548 66.0949 159.527L68.6559 158.044C68.7036 158.022 68.757 158.016 68.8083 158.027C68.8596 158.038 68.9059 158.065 68.9405 158.105C68.9568 158.133 68.9673 158.164 68.9715 158.196C68.9757 158.228 68.9735 158.26 68.965 158.291C68.9565 158.323 68.9418 158.352 68.9219 158.377C68.902 158.403 68.8772 158.424 68.849 158.44L66.4201 159.842V185.588L69.1031 184.043C69.1305 184.02 69.1627 184.002 69.1976 183.993C69.2325 183.983 69.2691 183.981 69.3048 183.987C69.3405 183.993 69.3743 184.008 69.4039 184.028C69.4334 184.049 69.458 184.077 69.4757 184.108C69.4934 184.14 69.5039 184.175 69.5063 184.211C69.5088 184.247 69.5031 184.283 69.4898 184.317C69.4765 184.351 69.4559 184.381 69.4295 184.406C69.403 184.43 69.3714 184.449 69.3369 184.46L66.288 186.218C66.2679 186.242 66.2439 186.262 66.2168 186.278V186.278Z" fill="#455A64"/>
<path d="M68.8388 185.476L69.1336 184.358L68.0156 184.053L68.6254 183.708L69.7332 184.013L69.4384 185.12L68.8388 185.476Z" fill="#455A64"/>
<path d="M133.424 171.313C133.383 171.313 133.341 171.302 133.305 171.281C133.269 171.259 133.24 171.228 133.221 171.191C133.205 171.163 133.194 171.132 133.19 171.1C133.186 171.068 133.188 171.035 133.197 171.004C133.205 170.973 133.22 170.944 133.24 170.918C133.26 170.893 133.284 170.871 133.313 170.855L135.853 169.392V146.126L133.658 147.386C133.632 147.402 133.602 147.413 133.571 147.418C133.54 147.423 133.509 147.421 133.478 147.414C133.448 147.406 133.42 147.393 133.395 147.374C133.37 147.355 133.349 147.332 133.333 147.305C133.316 147.277 133.305 147.247 133.3 147.215C133.295 147.183 133.297 147.151 133.304 147.12C133.312 147.089 133.325 147.06 133.344 147.034C133.363 147.008 133.387 146.986 133.414 146.969L135.975 145.496C136.013 145.476 136.055 145.465 136.097 145.465C136.14 145.465 136.182 145.476 136.219 145.496C136.255 145.519 136.284 145.551 136.303 145.588C136.323 145.625 136.332 145.667 136.331 145.709V169.525C136.332 169.565 136.322 169.605 136.302 169.641C136.283 169.677 136.254 169.707 136.219 169.728L133.546 171.313C133.506 171.323 133.464 171.323 133.424 171.313Z" fill="#455A64"/>
<path d="M133.851 169.87L133.557 170.988L134.674 171.282L134.065 171.638L132.947 171.333L133.252 170.215L133.851 169.87Z" fill="#455A64"/>
<path d="M84.317 99.6944C84.317 102.427 81.0547 106.522 77.0302 108.838C73.0056 111.155 69.7332 110.87 69.7332 108.097C69.7332 105.323 72.9955 101.269 77.0302 98.9528C81.0649 96.6363 84.317 96.9614 84.317 99.6944Z" fill="#4CAF4F"/>
<path d="M103.561 192.923C107.319 189.779 109.199 185.838 107.762 184.121C106.325 182.405 102.113 183.562 98.3558 186.706C94.5983 189.85 92.7175 193.791 94.155 195.508C95.5924 197.224 99.8037 196.067 103.561 192.923Z" fill="#4CAF4F"/>
<path d="M83.6665 127.208L70.3835 134.869C69.9872 135.092 69.6721 134.869 69.6721 134.32V127.482C69.6753 127.214 69.7412 126.95 69.8648 126.712C69.9883 126.474 70.166 126.268 70.3835 126.111L83.6665 118.48C84.0629 118.257 84.3779 118.48 84.3779 119.029V125.857C84.3709 126.121 84.3031 126.381 84.1797 126.615C84.0564 126.849 83.8808 127.052 83.6665 127.208Z" fill="#4CAF4F"/>
<path opacity="0.6" d="M83.6665 127.208L70.3835 134.869C69.9872 135.092 69.6721 134.869 69.6721 134.32V127.482C69.6753 127.214 69.7412 126.95 69.8648 126.712C69.9883 126.474 70.166 126.268 70.3835 126.111L83.6665 118.48C84.0629 118.257 84.3779 118.48 84.3779 119.029V125.857C84.3709 126.121 84.3031 126.381 84.1797 126.615C84.0564 126.849 83.8808 127.052 83.6665 127.208Z" fill="white"/>
<path d="M107.56 113.4L94.3479 121.051C93.9516 121.284 93.6263 121.051 93.6263 120.512V113.675C93.6306 113.405 93.6982 113.141 93.8235 112.903C93.9489 112.665 94.1285 112.459 94.3479 112.303L107.56 104.642C107.956 104.409 108.281 104.642 108.281 105.181V112.019C108.279 112.289 108.212 112.556 108.086 112.796C107.961 113.036 107.781 113.243 107.56 113.4V113.4Z" fill="#4CAF4F"/>
<path opacity="0.6" d="M107.56 113.4L94.3479 121.051C93.9516 121.284 93.6263 121.051 93.6263 120.512V113.675C93.6306 113.405 93.6982 113.141 93.8235 112.903C93.9489 112.665 94.1285 112.459 94.3479 112.303L107.56 104.642C107.956 104.409 108.281 104.642 108.281 105.181V112.019C108.279 112.289 108.212 112.556 108.086 112.796C107.961 113.036 107.781 113.243 107.56 113.4V113.4Z" fill="white"/>
<path d="M107.56 140.223L94.3479 147.884C93.9516 148.117 93.6263 147.884 93.6263 147.345V140.507C93.6314 140.238 93.6993 139.974 93.8246 139.736C93.9499 139.498 94.1291 139.292 94.3479 139.136L107.56 131.475C107.956 131.241 108.281 131.475 108.281 132.014V138.851C108.277 139.12 108.21 139.385 108.084 139.623C107.959 139.861 107.779 140.067 107.56 140.223V140.223Z" fill="#4CAF4F"/>
<path opacity="0.6" d="M107.56 140.223L94.3479 147.884C93.9516 148.117 93.6263 147.884 93.6263 147.345V140.507C93.6314 140.238 93.6993 139.974 93.8246 139.736C93.9499 139.498 94.1291 139.292 94.3479 139.136L107.56 131.475C107.956 131.241 108.281 131.475 108.281 132.014V138.851C108.277 139.12 108.21 139.385 108.084 139.623C107.959 139.861 107.779 140.067 107.56 140.223V140.223Z" fill="white"/>
<path d="M107.56 166.538L94.3479 174.198C93.9516 174.422 93.6263 174.198 93.6263 173.65V166.812C93.6314 166.543 93.6993 166.279 93.8246 166.041C93.9499 165.802 94.1291 165.597 94.3479 165.44L107.56 157.78C107.956 157.556 108.281 157.78 108.281 158.328V165.156C108.277 165.426 108.21 165.692 108.084 165.932C107.959 166.172 107.779 166.379 107.56 166.538V166.538Z" fill="#4CAF4F"/>
<path opacity="0.6" d="M107.56 166.538L94.3479 174.198C93.9516 174.422 93.6263 174.198 93.6263 173.65V166.812C93.6314 166.543 93.6993 166.279 93.8246 166.041C93.9499 165.802 94.1291 165.597 94.3479 165.44L107.56 157.78C107.956 157.556 108.281 157.78 108.281 158.328V165.156C108.277 165.426 108.21 165.692 108.084 165.932C107.959 166.172 107.779 166.379 107.56 166.538V166.538Z" fill="white"/>
<path d="M130.935 153.075L117.662 160.736C117.265 160.97 116.94 160.736 116.94 160.198V153.36C116.945 153.091 117.013 152.827 117.138 152.589C117.264 152.35 117.443 152.145 117.662 151.988L130.935 144.328C131.331 144.094 131.656 144.328 131.656 144.866V151.704C131.652 151.973 131.584 152.237 131.459 152.476C131.334 152.714 131.154 152.919 130.935 153.075Z" fill="#4CAF4F"/>
<path opacity="0.6" d="M130.935 153.075L117.662 160.736C117.265 160.97 116.94 160.736 116.94 160.198V153.36C116.945 153.091 117.013 152.827 117.138 152.589C117.264 152.35 117.443 152.145 117.662 151.988L130.935 144.328C131.331 144.094 131.656 144.328 131.656 144.866V151.704C131.652 151.973 131.584 152.237 131.459 152.476C131.334 152.714 131.154 152.919 130.935 153.075Z" fill="white"/>
<path d="M130.935 176.891L117.631 184.521C117.235 184.754 116.91 184.521 116.91 183.982V177.145C116.914 176.875 116.982 176.611 117.107 176.373C117.232 176.134 117.412 175.929 117.631 175.773L130.935 168.143C131.331 167.909 131.656 168.143 131.656 168.681V175.519C131.651 175.788 131.583 176.052 131.458 176.29C131.333 176.528 131.153 176.734 130.935 176.891V176.891Z" fill="#4CAF4F"/>
<path opacity="0.6" d="M130.935 176.891L117.631 184.521C117.235 184.754 116.91 184.521 116.91 183.982V177.145C116.914 176.875 116.982 176.611 117.107 176.373C117.232 176.134 117.412 175.929 117.631 175.773L130.935 168.143C131.331 167.909 131.656 168.143 131.656 168.681V175.519C131.651 175.788 131.583 176.052 131.458 176.29C131.333 176.528 131.153 176.734 130.935 176.891V176.891Z" fill="white"/>
<path d="M83.6665 154.041L70.3835 161.701C69.9872 161.935 69.6721 161.701 69.6721 161.153V154.325C69.6753 154.055 69.7412 153.79 69.8647 153.55C69.9881 153.31 70.1658 153.103 70.3835 152.943L83.6665 145.283C84.0629 145.059 84.3779 145.283 84.3779 145.831V152.669C84.3748 152.937 84.3088 153.201 84.1853 153.439C84.0617 153.677 83.884 153.883 83.6665 154.041V154.041Z" fill="#4CAF4F"/>
<path opacity="0.6" d="M83.6665 154.041L70.3835 161.701C69.9872 161.935 69.6721 161.701 69.6721 161.153V154.325C69.6753 154.055 69.7412 153.79 69.8647 153.55C69.9881 153.31 70.1658 153.103 70.3835 152.943L83.6665 145.283C84.0629 145.059 84.3779 145.283 84.3779 145.831V152.669C84.3748 152.937 84.3088 153.201 84.1853 153.439C84.0617 153.677 83.884 153.883 83.6665 154.041V154.041Z" fill="white"/>
<path d="M123.597 106.563L117.987 98.7293C117.81 98.295 117.78 97.815 117.901 97.3621C118.022 96.9092 118.288 96.5081 118.658 96.2198L129.837 89.7478C130.548 89.3313 130.945 90.3574 130.508 91.475L124.898 105.791C124.603 106.664 123.942 107.04 123.597 106.563Z" fill="#455A64"/>
<path d="M129.979 123.977L124.776 132.948C124.471 133.467 124.064 133.71 123.759 133.538L118.556 130.571C118.099 130.307 118.099 129.26 118.556 128.468L123.759 119.507C124.064 118.988 124.471 118.745 124.776 118.917L129.979 121.884C130.437 122.138 130.437 123.195 129.979 123.977Z" fill="#C8E6C9"/>
<path d="M82.7316 177.551L77.5383 186.553C77.2334 187.071 76.8168 187.315 76.522 187.142L71.3186 184.175C70.8613 183.921 70.8613 182.865 71.3186 182.072L76.522 173.111C76.8168 172.593 77.2334 172.349 77.5383 172.522L82.7316 175.488C83.1686 175.712 83.1686 176.769 82.7316 177.551Z" fill="#C8E6C9"/>
<path d="M57.3445 145.913C57.3026 145.912 57.2615 145.902 57.2243 145.882C57.1872 145.863 57.1553 145.835 57.1311 145.801C57.1009 145.744 57.0935 145.677 57.1105 145.615C57.1275 145.553 57.1676 145.499 57.2226 145.465L72.8939 136.423C72.9212 136.406 72.9516 136.395 72.9833 136.39C73.0149 136.385 73.0473 136.387 73.0784 136.394C73.1096 136.402 73.1389 136.415 73.1648 136.434C73.1907 136.453 73.2126 136.477 73.2293 136.504C73.2595 136.561 73.2669 136.628 73.2499 136.69C73.2329 136.752 73.1928 136.806 73.1378 136.84L57.4665 145.913C57.4264 145.922 57.3847 145.922 57.3445 145.913V145.913Z" fill="#455A64"/>
<path d="M57.3445 148.229C57.3015 148.229 57.2594 148.217 57.2221 148.196C57.1847 148.174 57.1534 148.144 57.1311 148.107C57.1014 148.052 57.0944 147.987 57.1114 147.926C57.1285 147.866 57.1683 147.814 57.2226 147.782L72.8939 138.729C72.9509 138.699 73.0173 138.692 73.0796 138.709C73.1419 138.726 73.1954 138.766 73.2292 138.821C73.2589 138.876 73.266 138.941 73.2489 139.002C73.2319 139.062 73.192 139.114 73.1378 139.146L57.4665 148.199C57.4287 148.218 57.387 148.229 57.3445 148.229Z" fill="#E0E0E0"/>
<path d="M57.3445 150.505C57.3019 150.503 57.2605 150.49 57.2234 150.469C57.1864 150.448 57.1548 150.418 57.1311 150.383C57.1009 150.326 57.0935 150.26 57.1105 150.197C57.1275 150.135 57.1676 150.081 57.2226 150.048L72.8939 141.005C72.9219 140.989 72.9528 140.978 72.9849 140.974C73.0169 140.97 73.0495 140.972 73.0807 140.981C73.1119 140.989 73.1412 141.004 73.1667 141.024C73.1922 141.044 73.2134 141.068 73.2293 141.097C73.259 141.152 73.266 141.217 73.249 141.278C73.2319 141.338 73.1921 141.39 73.1378 141.422L57.4665 150.474L57.3445 150.505Z" fill="#E0E0E0"/>
<path d="M57.3445 152.771C57.3026 152.77 57.2615 152.76 57.2243 152.741C57.1872 152.721 57.1553 152.693 57.1311 152.659C57.1009 152.602 57.0935 152.535 57.1105 152.473C57.1275 152.411 57.1676 152.357 57.2226 152.324L72.8939 143.281C72.9212 143.265 72.9516 143.253 72.9833 143.248C73.0149 143.243 73.0473 143.245 73.0784 143.252C73.1096 143.26 73.1389 143.274 73.1648 143.292C73.1907 143.311 73.2126 143.335 73.2293 143.362C73.2595 143.42 73.2669 143.486 73.2499 143.548C73.2329 143.61 73.1928 143.664 73.1378 143.698L57.4665 152.74C57.4288 152.76 57.387 152.77 57.3445 152.771Z" fill="#E0E0E0"/>
<path d="M50.4539 119.364C50.412 119.365 50.3708 119.354 50.3348 119.333C50.2989 119.311 50.2697 119.28 50.2507 119.242C50.234 119.215 50.2228 119.185 50.2179 119.153C50.2129 119.121 50.2143 119.089 50.2218 119.058C50.2294 119.027 50.243 118.997 50.2619 118.972C50.2808 118.946 50.3046 118.924 50.332 118.907L66.0134 109.865C66.0669 109.848 66.1247 109.85 66.1769 109.87C66.2291 109.891 66.2726 109.929 66.3001 109.978C66.3275 110.027 66.3373 110.084 66.3276 110.139C66.318 110.194 66.2896 110.245 66.2472 110.281L50.5759 119.334C50.5382 119.353 50.4964 119.364 50.4539 119.364Z" fill="#455A64"/>
<path d="M50.4539 121.63C50.4133 121.631 50.3731 121.621 50.3375 121.601C50.3018 121.582 50.2719 121.553 50.2507 121.518C50.234 121.491 50.2228 121.461 50.2179 121.429C50.2129 121.397 50.2143 121.365 50.2218 121.334C50.2294 121.303 50.243 121.273 50.2619 121.247C50.2808 121.222 50.3046 121.2 50.332 121.183L66.0134 112.14C66.04 112.124 66.0696 112.113 66.1005 112.108C66.1314 112.103 66.1629 112.105 66.1932 112.112C66.2236 112.12 66.252 112.134 66.277 112.152C66.302 112.171 66.323 112.195 66.3387 112.222C66.3549 112.25 66.3655 112.281 66.3697 112.313C66.3739 112.345 66.3717 112.377 66.3632 112.409C66.3546 112.44 66.34 112.469 66.3201 112.494C66.3002 112.52 66.2754 112.541 66.2472 112.557L50.5759 121.6C50.5382 121.619 50.4964 121.629 50.4539 121.63V121.63Z" fill="#E0E0E0"/>
<path d="M50.454 123.906C50.4121 123.907 50.3708 123.896 50.3349 123.874C50.2989 123.853 50.2698 123.821 50.2507 123.784C50.2343 123.757 50.2233 123.728 50.2185 123.697C50.2137 123.666 50.2151 123.635 50.2227 123.604C50.2303 123.574 50.2438 123.546 50.2626 123.521C50.2814 123.496 50.305 123.475 50.332 123.459L66.0135 114.416C66.069 114.387 66.1339 114.38 66.1945 114.397C66.2551 114.414 66.3068 114.454 66.3387 114.508C66.3548 114.535 66.3651 114.565 66.3692 114.597C66.3733 114.628 66.371 114.66 66.3625 114.69C66.3539 114.72 66.3393 114.749 66.3195 114.773C66.2997 114.798 66.2751 114.818 66.2472 114.833L50.5759 123.886C50.5374 123.902 50.4957 123.909 50.454 123.906Z" fill="#E0E0E0"/>
<path d="M50.454 126.182C50.3996 126.183 50.3465 126.165 50.3031 126.132C50.2596 126.1 50.2284 126.053 50.2144 126.001C50.2004 125.948 50.2044 125.892 50.2257 125.842C50.247 125.792 50.2844 125.751 50.3321 125.725L66.0135 116.682C66.0407 116.666 66.0708 116.656 66.1022 116.652C66.1335 116.648 66.1653 116.65 66.1957 116.658C66.226 116.667 66.2544 116.682 66.279 116.701C66.3036 116.721 66.3239 116.746 66.3387 116.774C66.3548 116.801 66.3652 116.831 66.3692 116.862C66.3733 116.893 66.371 116.925 66.3625 116.956C66.3539 116.986 66.3393 117.014 66.3195 117.039C66.2997 117.064 66.2751 117.084 66.2473 117.099L50.576 126.151L50.454 126.182Z" fill="#E0E0E0"/>
<path d="M93.1181 125.034C93.0637 125.034 93.0105 125.017 92.9671 124.984C92.9237 124.952 92.8925 124.905 92.8785 124.853C92.8645 124.8 92.8684 124.744 92.8897 124.694C92.9111 124.644 92.9485 124.603 92.9961 124.576L108.678 115.534C108.705 115.518 108.735 115.508 108.766 115.503C108.798 115.499 108.829 115.502 108.86 115.51C108.89 115.519 108.919 115.533 108.943 115.553C108.968 115.573 108.988 115.598 109.003 115.625C109.019 115.653 109.029 115.683 109.033 115.714C109.037 115.745 109.035 115.777 109.027 115.807C109.018 115.838 109.003 115.866 108.984 115.891C108.964 115.915 108.939 115.936 108.911 115.95L93.24 124.993C93.2052 125.02 93.1622 125.034 93.1181 125.034V125.034Z" fill="#455A64"/>
<path d="M93.1182 127.299C93.0763 127.3 93.035 127.289 92.9991 127.268C92.9631 127.246 92.934 127.215 92.9149 127.177C92.8985 127.151 92.8875 127.121 92.8827 127.09C92.8779 127.06 92.8793 127.028 92.8869 126.998C92.8944 126.967 92.908 126.939 92.9268 126.914C92.9456 126.889 92.9692 126.868 92.9962 126.852L108.678 117.8C108.734 117.774 108.798 117.77 108.856 117.79C108.915 117.809 108.964 117.85 108.994 117.904C109.023 117.958 109.031 118.022 109.016 118.081C109.001 118.141 108.963 118.193 108.911 118.226L93.2401 127.269L93.1182 127.299Z" fill="#E0E0E0"/>
<path d="M93.1182 129.575C93.0763 129.576 93.035 129.565 92.9991 129.543C92.9631 129.522 92.934 129.491 92.9149 129.453C92.8985 129.427 92.8875 129.397 92.8827 129.366C92.8779 129.335 92.8793 129.304 92.8869 129.274C92.8944 129.243 92.908 129.215 92.9268 129.19C92.9456 129.165 92.9692 129.144 92.9962 129.128L108.678 120.076C108.733 120.046 108.798 120.039 108.859 120.056C108.919 120.073 108.971 120.113 109.003 120.167C109.019 120.194 109.029 120.224 109.033 120.256C109.038 120.287 109.035 120.319 109.027 120.349C109.018 120.38 109.003 120.408 108.984 120.433C108.964 120.457 108.939 120.477 108.911 120.492L93.2401 129.545C93.2024 129.564 93.1606 129.575 93.1182 129.575Z" fill="#E0E0E0"/>
<path d="M93.1181 131.851C93.0637 131.852 93.0105 131.835 92.9671 131.802C92.9237 131.769 92.8925 131.723 92.8785 131.67C92.8645 131.618 92.8684 131.562 92.8897 131.512C92.9111 131.462 92.9485 131.42 92.9961 131.394L108.678 122.351C108.704 122.335 108.734 122.324 108.765 122.319C108.796 122.314 108.827 122.316 108.857 122.323C108.888 122.331 108.916 122.345 108.941 122.363C108.966 122.382 108.987 122.406 109.003 122.433C109.019 122.461 109.03 122.492 109.034 122.524C109.038 122.556 109.036 122.588 109.027 122.62C109.019 122.651 109.004 122.68 108.984 122.705C108.964 122.731 108.94 122.752 108.911 122.768L93.24 131.81C93.2052 131.838 93.1622 131.852 93.1181 131.851Z" fill="#E0E0E0"/>
<path d="M115.792 86.1715C115.75 86.1723 115.709 86.1612 115.673 86.1397C115.637 86.1181 115.608 86.0869 115.588 86.0496C115.571 86.0228 115.559 85.9926 115.554 85.961C115.549 85.9293 115.551 85.897 115.56 85.8661C115.569 85.8353 115.584 85.8067 115.605 85.7823C115.625 85.7578 115.651 85.7381 115.68 85.7245L131.351 76.6719C131.407 76.6422 131.472 76.6351 131.532 76.6522C131.593 76.6692 131.645 76.709 131.676 76.7633C131.693 76.7899 131.704 76.8195 131.709 76.8503C131.713 76.8812 131.712 76.9127 131.704 76.943C131.697 76.9733 131.683 77.0018 131.665 77.0268C131.646 77.0518 131.622 77.0727 131.595 77.0884L115.914 86.141C115.876 86.1617 115.834 86.1722 115.792 86.1715V86.1715Z" fill="#455A64"/>
<path d="M115.792 88.4474C115.75 88.4461 115.71 88.4342 115.674 88.4128C115.639 88.3915 115.609 88.3614 115.588 88.3255C115.56 88.2688 115.554 88.203 115.573 88.1423C115.592 88.0815 115.634 88.0306 115.69 88.0004L131.361 78.958C131.388 78.9404 131.418 78.9287 131.45 78.9238C131.482 78.9189 131.514 78.9208 131.545 78.9295C131.576 78.9382 131.604 78.9534 131.629 78.974C131.653 78.9947 131.673 79.0204 131.687 79.0494C131.703 79.076 131.714 79.1056 131.719 79.1364C131.724 79.1673 131.722 79.1988 131.715 79.2291C131.707 79.2595 131.694 79.2879 131.675 79.3129C131.656 79.3379 131.632 79.3588 131.605 79.3745L115.924 88.417C115.905 88.4307 115.884 88.4405 115.861 88.4457C115.838 88.4509 115.815 88.4515 115.792 88.4474Z" fill="#E0E0E0"/>
<path d="M115.792 90.713C115.75 90.7138 115.709 90.7027 115.673 90.6812C115.637 90.6596 115.608 90.6284 115.588 90.5911C115.572 90.5639 115.562 90.5337 115.558 90.5025C115.554 90.4712 115.556 90.4394 115.565 90.409C115.573 90.3786 115.588 90.3503 115.608 90.3257C115.628 90.3011 115.652 90.2808 115.68 90.266L131.351 81.2235C131.378 81.207 131.407 81.1961 131.438 81.1913C131.469 81.1865 131.501 81.1879 131.531 81.1955C131.561 81.203 131.59 81.2166 131.615 81.2354C131.64 81.2542 131.661 81.2778 131.676 81.3048C131.693 81.3321 131.704 81.3625 131.709 81.3942C131.714 81.4258 131.713 81.4581 131.705 81.4893C131.698 81.5204 131.684 81.5497 131.665 81.5756C131.646 81.6015 131.623 81.6234 131.595 81.6401L115.914 90.6825C115.876 90.7031 115.834 90.7137 115.792 90.713V90.713Z" fill="#E0E0E0"/>
<path d="M115.792 92.9889C115.75 92.9896 115.709 92.9786 115.673 92.9571C115.637 92.9355 115.608 92.9043 115.588 92.867C115.571 92.8402 115.559 92.81 115.554 92.7783C115.549 92.7467 115.551 92.7144 115.56 92.6835C115.569 92.6527 115.584 92.6241 115.605 92.5996C115.625 92.5752 115.651 92.5555 115.68 92.5418L131.351 83.4892C131.407 83.4596 131.472 83.4525 131.532 83.4696C131.593 83.4866 131.645 83.5264 131.676 83.5807C131.693 83.6072 131.704 83.6368 131.709 83.6677C131.713 83.6986 131.712 83.7301 131.704 83.7604C131.697 83.7907 131.683 83.8192 131.665 83.8442C131.646 83.8692 131.622 83.8901 131.595 83.9058L115.914 92.9584C115.876 92.979 115.834 92.9895 115.792 92.9889V92.9889Z" fill="#E0E0E0"/>
<path d="M130.315 111.612C130.273 111.613 130.231 111.602 130.195 111.581C130.159 111.559 130.13 111.528 130.111 111.49C130.094 111.464 130.082 111.433 130.077 111.402C130.072 111.37 130.074 111.338 130.083 111.307C130.091 111.276 130.107 111.248 130.127 111.223C130.148 111.199 130.174 111.179 130.203 111.165L145.874 102.113C145.931 102.08 145.998 102.072 146.061 102.089C146.124 102.106 146.177 102.148 146.209 102.204C146.242 102.261 146.25 102.328 146.233 102.391C146.216 102.454 146.175 102.507 146.118 102.539L130.437 111.582C130.399 111.603 130.357 111.613 130.315 111.612Z" fill="#455A64"/>
<path d="M130.315 113.888C130.273 113.889 130.231 113.878 130.195 113.856C130.16 113.835 130.13 113.803 130.111 113.766C130.095 113.738 130.085 113.707 130.08 113.675C130.076 113.643 130.078 113.611 130.087 113.579C130.095 113.548 130.11 113.519 130.13 113.493C130.15 113.468 130.175 113.447 130.203 113.431L145.874 104.388C145.901 104.371 145.931 104.359 145.963 104.354C145.994 104.349 146.027 104.351 146.058 104.36C146.088 104.369 146.117 104.384 146.141 104.404C146.166 104.425 146.186 104.451 146.199 104.48C146.216 104.506 146.227 104.536 146.232 104.567C146.236 104.598 146.235 104.629 146.227 104.66C146.22 104.69 146.206 104.718 146.187 104.743C146.169 104.768 146.145 104.789 146.118 104.805L130.437 113.858C130.399 113.878 130.357 113.889 130.315 113.888Z" fill="#E0E0E0"/>
<path d="M130.315 116.154C130.274 116.155 130.234 116.145 130.198 116.125C130.162 116.105 130.133 116.077 130.111 116.042C130.095 116.014 130.085 115.983 130.08 115.951C130.076 115.919 130.078 115.887 130.087 115.855C130.095 115.824 130.11 115.795 130.13 115.769C130.15 115.744 130.175 115.723 130.203 115.707L145.874 106.664C145.901 106.648 145.93 106.637 145.961 106.632C145.992 106.627 146.024 106.629 146.054 106.636C146.084 106.644 146.113 106.658 146.138 106.676C146.163 106.695 146.184 106.719 146.199 106.746C146.216 106.773 146.227 106.803 146.232 106.835C146.237 106.867 146.236 106.899 146.228 106.93C146.221 106.961 146.207 106.991 146.188 107.017C146.169 107.042 146.145 107.064 146.118 107.081L130.437 116.123C130.399 116.144 130.357 116.155 130.315 116.154V116.154Z" fill="#E0E0E0"/>
<path d="M130.315 118.48C130.273 118.481 130.231 118.47 130.195 118.449C130.159 118.427 130.13 118.396 130.111 118.358C130.094 118.332 130.082 118.301 130.077 118.27C130.072 118.238 130.074 118.206 130.083 118.175C130.091 118.144 130.107 118.116 130.127 118.091C130.148 118.067 130.174 118.047 130.203 118.033L145.874 108.981C145.93 108.951 145.994 108.944 146.055 108.961C146.116 108.978 146.167 109.018 146.199 109.072C146.216 109.099 146.227 109.128 146.232 109.159C146.236 109.19 146.235 109.222 146.227 109.252C146.22 109.282 146.206 109.311 146.187 109.336C146.169 109.361 146.145 109.382 146.118 109.397L130.437 118.45C130.399 118.47 130.357 118.481 130.315 118.48V118.48Z" fill="#E0E0E0"/>
<path d="M130.315 134.208C130.273 134.209 130.231 134.198 130.195 134.176C130.159 134.155 130.13 134.124 130.111 134.086C130.094 134.059 130.082 134.029 130.077 133.998C130.072 133.966 130.074 133.934 130.083 133.903C130.091 133.872 130.107 133.843 130.127 133.819C130.148 133.794 130.174 133.775 130.203 133.761L145.874 124.708C145.93 124.679 145.994 124.672 146.055 124.689C146.116 124.706 146.167 124.746 146.199 124.8C146.216 124.826 146.227 124.856 146.232 124.887C146.236 124.918 146.235 124.949 146.227 124.98C146.22 125.01 146.206 125.038 146.187 125.063C146.169 125.088 146.145 125.109 146.118 125.125L130.437 134.178C130.399 134.198 130.357 134.209 130.315 134.208V134.208Z" fill="#455A64"/>
<path d="M130.315 136.484C130.273 136.483 130.233 136.471 130.197 136.449C130.162 136.428 130.132 136.398 130.111 136.362C130.095 136.334 130.085 136.303 130.08 136.271C130.076 136.239 130.078 136.206 130.087 136.175C130.095 136.144 130.11 136.115 130.13 136.089C130.15 136.064 130.175 136.043 130.203 136.027L145.874 126.984C145.901 126.967 145.931 126.955 145.963 126.95C145.994 126.945 146.027 126.947 146.058 126.956C146.088 126.965 146.117 126.98 146.141 127C146.166 127.021 146.186 127.047 146.199 127.076C146.216 127.102 146.227 127.132 146.232 127.163C146.236 127.194 146.235 127.225 146.227 127.256C146.22 127.286 146.206 127.314 146.187 127.339C146.169 127.364 146.145 127.385 146.118 127.401L130.437 136.454C130.399 136.474 130.357 136.485 130.315 136.484V136.484Z" fill="#E0E0E0"/>
<path d="M130.315 138.801C130.273 138.801 130.231 138.79 130.195 138.769C130.16 138.747 130.13 138.716 130.111 138.679C130.095 138.651 130.085 138.621 130.081 138.59C130.077 138.559 130.079 138.527 130.088 138.496C130.096 138.466 130.111 138.438 130.131 138.413C130.15 138.389 130.175 138.368 130.203 138.353L145.874 129.311C145.901 129.295 145.93 129.284 145.961 129.279C145.992 129.274 146.024 129.275 146.054 129.283C146.084 129.291 146.113 129.304 146.138 129.323C146.163 129.342 146.184 129.365 146.199 129.392C146.216 129.42 146.227 129.45 146.232 129.482C146.237 129.513 146.236 129.546 146.228 129.577C146.221 129.608 146.207 129.637 146.188 129.663C146.169 129.689 146.145 129.711 146.118 129.728L130.437 138.77C130.399 138.791 130.357 138.801 130.315 138.801V138.801Z" fill="#E0E0E0"/>
<path d="M130.315 141.026C130.273 141.026 130.231 141.015 130.195 140.994C130.159 140.972 130.13 140.941 130.111 140.904C130.094 140.877 130.082 140.847 130.077 140.815C130.072 140.783 130.074 140.751 130.083 140.72C130.091 140.689 130.107 140.661 130.127 140.636C130.148 140.612 130.174 140.592 130.203 140.579L145.874 131.526C145.93 131.496 145.994 131.489 146.055 131.506C146.116 131.523 146.167 131.563 146.199 131.617C146.216 131.644 146.227 131.674 146.232 131.704C146.236 131.735 146.235 131.767 146.227 131.797C146.22 131.827 146.206 131.856 146.187 131.881C146.169 131.906 146.145 131.927 146.118 131.943L130.437 140.995C130.399 141.016 130.357 141.026 130.315 141.026V141.026Z" fill="#E0E0E0"/>
<path d="M56.5721 197.251C56.53 197.252 56.4885 197.242 56.4513 197.222C56.414 197.203 56.3822 197.174 56.3587 197.14C56.3424 197.112 56.3318 197.081 56.3276 197.049C56.3234 197.017 56.3256 196.984 56.3342 196.953C56.3427 196.922 56.3573 196.892 56.3772 196.867C56.3971 196.841 56.4219 196.82 56.4501 196.804L72.1214 187.762C72.1488 187.745 72.1791 187.734 72.2108 187.729C72.2425 187.724 72.2748 187.725 72.3059 187.733C72.3371 187.74 72.3664 187.754 72.3923 187.773C72.4182 187.792 72.4401 187.816 72.4568 187.843C72.487 187.9 72.4944 187.967 72.4774 188.029C72.4604 188.091 72.4203 188.145 72.3653 188.178L56.7448 197.221C56.6921 197.25 56.6314 197.26 56.5721 197.251V197.251Z" fill="#455A64"/>
<path d="M56.5721 199.527C56.5289 199.527 56.4864 199.516 56.4489 199.495C56.4114 199.474 56.3802 199.443 56.3587 199.405C56.3426 199.378 56.3322 199.348 56.3281 199.317C56.3241 199.285 56.3264 199.253 56.3349 199.223C56.3434 199.193 56.3581 199.164 56.3779 199.14C56.3977 199.115 56.4222 199.095 56.4501 199.08L72.1214 190.027C72.1785 189.997 72.2449 189.99 72.3072 190.007C72.3695 190.024 72.423 190.064 72.4568 190.119C72.4865 190.174 72.4935 190.239 72.4765 190.3C72.4594 190.36 72.4196 190.412 72.3653 190.444L56.7448 199.497L56.5721 199.527Z" fill="#E0E0E0"/>
<path d="M56.5721 201.793C56.5293 201.791 56.4875 201.779 56.4503 201.758C56.4131 201.737 56.3817 201.707 56.3587 201.671C56.3424 201.643 56.3318 201.612 56.3276 201.58C56.3234 201.548 56.3256 201.515 56.3342 201.484C56.3427 201.453 56.3573 201.424 56.3772 201.398C56.3971 201.373 56.4219 201.351 56.4501 201.336L72.1214 192.293C72.1494 192.277 72.1803 192.266 72.2124 192.262C72.2444 192.258 72.277 192.26 72.3083 192.269C72.3395 192.277 72.3687 192.292 72.3942 192.312C72.4197 192.332 72.441 192.356 72.4568 192.385C72.4865 192.44 72.4935 192.505 72.4765 192.566C72.4594 192.626 72.4196 192.678 72.3653 192.71L56.7448 201.793C56.6888 201.811 56.6282 201.811 56.5721 201.793V201.793Z" fill="#E0E0E0"/>
<path d="M56.5721 204.069C56.5208 204.066 56.4716 204.047 56.4316 204.015C56.3915 203.983 56.3627 203.939 56.3492 203.889C56.3357 203.84 56.3381 203.787 56.3563 203.739C56.3744 203.691 56.4072 203.65 56.4501 203.622L72.1214 194.579C72.1488 194.562 72.1792 194.551 72.2108 194.546C72.2425 194.541 72.2748 194.543 72.306 194.55C72.3371 194.558 72.3665 194.571 72.3924 194.59C72.4182 194.609 72.4401 194.633 72.4568 194.66C72.487 194.717 72.4944 194.784 72.4774 194.846C72.4604 194.908 72.4204 194.962 72.3654 194.996L56.7449 204.038L56.5721 204.069Z" fill="#E0E0E0"/>
</svg>
