<svg width="391" height="407" viewBox="0 0 391 407" fill="none" xmlns="http://www.w3.org/2000/svg">
<g opacity="0.1">
<path opacity="0.1" d="M200.175 57.0731L37.5673 150.921V242.9C37.5553 243.433 37.704 243.957 37.9942 244.404C38.0912 244.565 38.2263 244.699 38.3877 244.794C38.549 244.89 38.7316 244.945 38.919 244.953C39.1524 244.948 39.3803 244.881 39.5796 244.76L204.047 149.753V59.3286C204.047 56.8292 202.309 55.8335 200.175 57.0731Z" fill="#103E13"/>
</g>
<path d="M238.967 28.0561V151.897C238.912 152.929 238.614 153.934 238.096 154.83C237.579 155.725 236.857 156.485 235.989 157.048L156.82 202.768C156.514 202.957 156.162 203.055 155.803 203.053C155.678 203.068 155.552 203.068 155.427 203.053C155.339 203.033 155.254 203.002 155.173 202.961L155.011 202.88L154.838 202.758C154.779 202.716 154.725 202.669 154.675 202.616C154.442 202.394 154.255 202.128 154.126 201.834C153.919 201.359 153.811 200.847 153.811 200.33V77.0986C153.87 76.067 154.17 75.0635 154.687 74.1688C155.204 73.2742 155.924 72.5133 156.789 71.9475L235.959 26.3187C236.25 26.1119 236.588 25.9805 236.943 25.9361C237.298 25.8918 237.658 25.936 237.991 26.0647C238.08 26.1079 238.165 26.1589 238.245 26.2171C238.507 26.4411 238.71 26.726 238.835 27.0466C238.961 27.3673 239.006 27.7139 238.967 28.0561Z" fill="#455A64"/>
<path d="M237.31 26.9386C237.406 26.9343 237.5 26.9553 237.585 26.9996H237.636C237.636 26.9996 237.951 27.2637 237.951 28.0156V151.897C237.897 152.751 237.647 153.581 237.218 154.321C236.79 155.062 236.195 155.693 235.481 156.164L156.322 201.884C156.178 201.974 156.013 202.027 155.844 202.037H155.671H155.62L155.539 201.976H155.478L155.427 201.925C155.301 201.795 155.197 201.644 155.122 201.478C154.974 201.135 154.898 200.765 154.899 200.391V77.0988C154.961 76.2471 155.216 75.4207 155.643 74.6816C156.071 73.9425 156.661 73.31 157.368 72.8315L236.538 27.2028C236.781 27.0451 237.062 26.954 237.351 26.9386H237.31ZM237.351 25.9226C236.884 25.9369 236.428 26.0735 236.03 26.3188L156.86 71.9476C155.995 72.5135 155.276 73.2743 154.758 74.169C154.241 75.0636 153.941 76.0671 153.883 77.0988V200.239C153.883 200.756 153.99 201.268 154.198 201.742C154.326 202.037 154.513 202.303 154.746 202.525C154.796 202.577 154.85 202.625 154.909 202.667L155.082 202.789L155.244 202.87C155.325 202.911 155.41 202.942 155.498 202.961C155.623 202.976 155.75 202.976 155.875 202.961V202.961C156.209 202.948 156.534 202.85 156.82 202.677L235.989 156.957C236.857 156.394 237.579 155.634 238.096 154.738C238.614 153.843 238.912 152.838 238.967 151.806V28.0562C239 27.7206 238.951 27.382 238.826 27.069C238.7 26.7561 238.501 26.4778 238.245 26.2579C237.976 26.0573 237.646 25.9535 237.31 25.9632L237.351 25.9226Z" fill="#455A64"/>
<g opacity="0.8">
<path opacity="0.8" d="M238.967 28.0561V151.897C238.912 152.929 238.614 153.934 238.096 154.83C237.579 155.725 236.857 156.485 235.989 157.048L156.82 202.768C156.514 202.957 156.162 203.055 155.803 203.053C155.678 203.068 155.552 203.068 155.427 203.053C155.339 203.033 155.254 203.002 155.173 202.961L155.011 202.88L154.838 202.758C154.779 202.716 154.725 202.669 154.675 202.616C154.442 202.394 154.255 202.128 154.126 201.834C153.919 201.359 153.811 200.847 153.811 200.33V77.0986C153.87 76.067 154.17 75.0635 154.687 74.1688C155.204 73.2742 155.924 72.5133 156.789 71.9475L235.959 26.3187C236.25 26.1119 236.588 25.9805 236.943 25.9361C237.298 25.8918 237.658 25.936 237.991 26.0647C238.08 26.1079 238.165 26.1589 238.245 26.2171C238.507 26.4411 238.71 26.726 238.835 27.0466C238.961 27.3673 239.006 27.7139 238.967 28.0561Z" fill="#455A64"/>
</g>
<path d="M237.991 26.0241C237.658 25.8954 237.298 25.8512 236.943 25.8956C236.588 25.9399 236.25 26.0713 235.959 26.2781L156.789 71.9069C155.924 72.4728 155.204 73.2336 154.687 74.1283C154.17 75.0229 153.87 76.0264 153.811 77.058V86.7812L150.021 84.5562V74.9041C150.075 73.874 150.372 72.8713 150.888 71.9779C151.403 71.0844 152.123 70.3255 152.988 69.7631L232.168 24.1343C232.474 23.9059 232.839 23.7685 233.22 23.7379C233.601 23.7074 233.983 23.7849 234.322 23.9616C234.892 24.3172 237.361 25.7396 237.991 26.0241Z" fill="#4CAF4F"/>
<path d="M238.967 28.0561C238.967 26.1765 237.625 25.4247 235.989 26.3695L156.82 71.9983C155.956 72.5625 155.238 73.3218 154.722 74.2149C154.207 75.108 153.909 76.1098 153.852 77.1393V86.8625L238.967 37.7793V28.0561Z" fill="#4CAF4F"/>
<g opacity="0.4">
<path opacity="0.4" d="M235.989 26.3188L156.82 71.9475C155.948 72.5001 155.229 73.2615 154.726 74.1624L150.956 71.9679C151.437 71.0847 152.137 70.3396 152.988 69.8038L232.158 24.175C232.468 23.9505 232.833 23.8148 233.215 23.7826C233.596 23.7504 233.979 23.8228 234.322 23.9921C234.851 24.3274 237.32 25.7295 237.951 26.0241C237.624 25.9117 237.275 25.8798 236.934 25.9311C236.592 25.9824 236.268 26.1154 235.989 26.3188V26.3188Z" fill="white"/>
</g>
<path opacity="0.15" d="M150.041 84.6069V74.9447C150.083 73.8899 150.398 72.8642 150.956 71.9678L154.736 74.1522C154.19 75.0445 153.885 76.0633 153.852 77.1088V86.8218L150.041 84.6069Z" fill="#103E13"/>
<path d="M221.05 39.09C220.515 39.5132 220.085 40.0544 219.794 40.6713C219.503 41.2883 219.359 41.9641 219.373 42.646C219.373 44.0684 220.125 44.7999 221.05 44.2614C221.583 43.8367 222.011 43.2952 222.302 42.6786C222.593 42.0621 222.738 41.387 222.727 40.7054C222.727 39.2322 221.974 38.5515 221.05 39.09Z" fill="#455A64"/>
<path d="M227.097 35.5846C226.563 36.0094 226.135 36.5509 225.844 37.1675C225.553 37.784 225.408 38.4591 225.42 39.1406C225.42 40.5732 226.172 41.2946 227.097 40.7662C227.633 40.3436 228.064 39.8027 228.357 39.1858C228.649 38.569 228.796 37.8928 228.784 37.2102C228.784 35.7776 228.032 35.0563 227.097 35.5846Z" fill="#455A64"/>
<path d="M233.144 32.1202C232.61 32.545 232.182 33.0865 231.891 33.7031C231.6 34.3196 231.455 34.9947 231.467 35.6763C231.467 37.1088 232.219 37.8302 233.144 37.2917C233.682 36.8706 234.114 36.33 234.407 35.7128C234.7 35.0956 234.845 34.4187 234.831 33.7357C234.831 32.2828 234.079 31.5513 233.144 32.1202Z" fill="#455A64"/>
<path d="M154.939 202.738L154.563 202.524C154.267 202.336 153.962 202.164 153.649 202.006V202.006L153.151 201.722L152.378 201.275L151.718 200.899L151.352 200.696C151.155 200.599 150.981 200.46 150.844 200.289C150.675 200.11 150.538 199.904 150.437 199.68C150.212 199.189 150.098 198.655 150.102 198.115V84.5967L153.893 86.8217V200.238C153.911 200.754 154.018 201.262 154.208 201.742C154.337 202.037 154.523 202.303 154.757 202.524C154.798 202.584 154.854 202.633 154.919 202.667L154.939 202.738Z" fill="#37474F"/>
<path d="M161.291 90.9468C161.296 90.8044 161.334 90.6652 161.403 90.5404L162.989 87.2485C163.005 87.213 163.029 87.1817 163.06 87.1571C163.068 87.1482 163.079 87.1411 163.09 87.1362C163.101 87.1314 163.113 87.1289 163.126 87.1289C163.138 87.1289 163.15 87.1314 163.162 87.1362C163.173 87.1411 163.183 87.1482 163.192 87.1571C163.228 87.1993 163.246 87.254 163.243 87.3095V88.417C163.255 88.5318 163.255 88.6476 163.243 88.7624C163.243 88.8437 163.182 88.9453 163.131 89.057L162.287 90.7944L163.131 91.5666C163.177 91.6176 163.215 91.676 163.243 91.7393C163.257 91.8404 163.257 91.943 163.243 92.0441V93.0804C163.24 93.1575 163.223 93.2334 163.192 93.3039C163.162 93.3653 163.116 93.4178 163.06 93.4563V93.4563C163.06 93.4563 163.06 93.4563 162.989 93.4563L161.424 92.0644C161.384 92.0314 161.353 91.9891 161.333 91.9412C161.314 91.8934 161.306 91.8415 161.312 91.7901L161.291 90.9468Z" fill="#4CAF4F"/>
<path d="M167.105 82.7071C167.13 82.5949 167.167 82.4859 167.216 82.382C167.269 82.28 167.35 82.1954 167.45 82.1382L168.05 81.7927C168.05 81.7927 168.141 81.7927 168.172 81.7927C168.192 81.8121 168.207 81.8361 168.216 81.8627C168.225 81.8892 168.227 81.9175 168.222 81.9451C168.227 81.9856 168.227 82.0266 168.222 82.0671L165.489 93.68C165.463 93.7889 165.426 93.8945 165.377 93.9949C165.327 94.1074 165.241 94.2003 165.133 94.2591L164.564 94.5944C164.546 94.6076 164.525 94.6147 164.503 94.6147C164.481 94.6147 164.459 94.6076 164.442 94.5944C164.421 94.5731 164.405 94.5476 164.394 94.5196C164.384 94.4916 164.379 94.4617 164.381 94.4318C164.378 94.3912 164.378 94.3505 164.381 94.3099L167.105 82.7071Z" fill="#4CAF4F"/>
<path d="M171.312 85.9684C171.307 86.114 171.269 86.2566 171.2 86.385L169.615 89.6666L169.544 89.7682C169.524 89.7809 169.501 89.7877 169.478 89.7877C169.454 89.7877 169.431 89.7809 169.412 89.7682C169.392 89.7158 169.392 89.6581 169.412 89.6057V88.4982C169.399 88.3869 169.399 88.2743 169.412 88.163C169.442 88.0577 169.483 87.9557 169.534 87.8582L170.367 86.1208L169.534 85.3588C169.483 85.3089 169.442 85.2504 169.412 85.1861C169.397 85.085 169.397 84.9824 169.412 84.8813V83.7738C169.398 83.6999 169.398 83.6243 169.412 83.5503C169.442 83.489 169.487 83.4365 169.544 83.3979V83.3979C169.554 83.3905 169.566 83.3865 169.579 83.3865C169.592 83.3865 169.604 83.3905 169.615 83.3979L171.2 84.8508C171.24 84.886 171.271 84.9301 171.29 84.9796C171.31 85.029 171.317 85.0824 171.312 85.1353V85.9684Z" fill="#4CAF4F"/>
<path d="M175.723 85.2167C175.746 85.1986 175.775 85.1887 175.804 85.1887C175.834 85.1887 175.862 85.1986 175.885 85.2167C175.931 85.274 175.953 85.3468 175.946 85.4199V86.6289C175.946 86.7237 175.925 86.8171 175.885 86.9033C175.848 86.9798 175.792 87.046 175.723 87.0963L174.981 87.523C174.96 87.5423 174.933 87.553 174.905 87.553C174.876 87.553 174.849 87.5423 174.828 87.523C174.802 87.4989 174.782 87.4688 174.769 87.4352C174.757 87.4016 174.753 87.3655 174.757 87.33V86.1108C174.757 86.0147 174.781 85.9201 174.828 85.8365C174.857 85.7598 174.911 85.6952 174.981 85.6536L175.723 85.2167Z" fill="#4CAF4F"/>
<path d="M178.233 83.7738C178.255 83.7565 178.282 83.7471 178.309 83.7471C178.337 83.7471 178.364 83.7565 178.385 83.7738C178.431 83.8312 178.453 83.904 178.446 83.977V85.1861C178.446 85.2808 178.425 85.3743 178.385 85.4604C178.357 85.537 178.303 85.6016 178.233 85.6433L177.481 86.0801C177.459 86.0975 177.432 86.1069 177.405 86.1069C177.377 86.1069 177.35 86.0975 177.329 86.0801C177.283 86.0228 177.261 85.95 177.268 85.8769V84.6679C177.268 84.5732 177.289 84.4797 177.329 84.3936C177.359 84.3157 177.412 84.2485 177.481 84.2005L178.233 83.7738Z" fill="#4CAF4F"/>
<path d="M180.733 82.3311C180.755 82.3111 180.784 82.3 180.814 82.3C180.844 82.3 180.873 82.3111 180.896 82.3311C180.919 82.3574 180.936 82.3881 180.946 82.4213C180.957 82.4545 180.96 82.4895 180.957 82.5241V83.7434C180.956 83.8381 180.935 83.9316 180.896 84.0177C180.861 84.0935 180.804 84.1572 180.733 84.2006L179.991 84.6374C179.97 84.6548 179.943 84.6642 179.915 84.6642C179.887 84.6642 179.86 84.6548 179.839 84.6374C179.812 84.6113 179.792 84.5793 179.78 84.5441C179.767 84.5089 179.763 84.4713 179.768 84.4342V83.2252C179.767 83.1291 179.791 83.0345 179.839 82.9509C179.87 82.873 179.923 82.8058 179.991 82.7578L180.733 82.3311Z" fill="#4CAF4F"/>
<path d="M161.962 99.8065L213.255 70.2204C213.682 69.9766 214.037 70.1493 214.037 70.6167C214.017 70.8795 213.936 71.134 213.801 71.3599C213.665 71.5857 213.478 71.7766 213.255 71.9172L161.993 101.503C161.556 101.757 161.21 101.584 161.21 101.107C161.226 100.847 161.302 100.594 161.432 100.368C161.563 100.142 161.744 99.9498 161.962 99.8065V99.8065Z" fill="#4CAF4F"/>
<path d="M173.741 113.4L225.003 83.8144C225.43 83.5706 225.786 83.7433 225.786 84.2107C225.766 84.4749 225.685 84.7308 225.549 84.9583C225.413 85.1858 225.226 85.3785 225.003 85.5213L173.741 115.107C173.304 115.351 172.958 115.178 172.958 114.711C172.976 114.446 173.056 114.189 173.192 113.962C173.328 113.734 173.516 113.541 173.741 113.4V113.4Z" fill="#C8E6C9"/>
<path d="M173.741 120.208L205.856 101.676C206.293 101.422 206.639 101.595 206.639 102.072C206.62 102.335 206.539 102.59 206.403 102.816C206.267 103.042 206.08 103.233 205.856 103.373L173.741 121.905C173.304 122.148 172.958 121.976 172.958 121.508C172.976 121.245 173.056 120.989 173.192 120.763C173.328 120.537 173.516 120.347 173.741 120.208V120.208Z" fill="#C8E6C9"/>
<path d="M173.741 127.005L205.856 108.473C206.293 108.219 206.639 108.402 206.639 108.869C206.62 109.132 206.539 109.387 206.403 109.613C206.267 109.839 206.08 110.03 205.856 110.17L173.741 128.702C173.304 128.956 172.958 128.773 172.958 128.305C172.976 128.042 173.056 127.786 173.192 127.56C173.328 127.334 173.516 127.144 173.741 127.005V127.005Z" fill="#C8E6C9"/>
<path d="M216.304 68.4627L230.928 59.9892C231.365 59.7454 231.711 59.9181 231.711 60.3855C231.693 60.6503 231.613 60.9071 231.477 61.135C231.341 61.3628 231.153 61.5552 230.928 61.6961L216.304 70.1696C215.867 70.4134 215.521 70.2407 215.521 69.7733C215.538 69.5086 215.618 69.2517 215.754 69.0238C215.89 68.796 216.079 68.6037 216.304 68.4627Z" fill="#4CAF4F"/>
<path d="M174.635 167.361L213.255 145.008C213.681 144.754 214.037 144.937 214.037 145.405C214.016 145.667 213.934 145.921 213.798 146.147C213.663 146.372 213.477 146.563 213.255 146.705L174.635 169.057C174.198 169.301 173.853 169.128 173.853 168.661C173.873 168.398 173.955 168.144 174.091 167.918C174.226 167.693 174.413 167.502 174.635 167.361Z" fill="#4CAF4F"/>
<path d="M216.304 143.241L230.887 134.737C231.324 134.483 231.67 134.666 231.67 135.133C231.653 135.396 231.573 135.652 231.436 135.878C231.3 136.104 231.112 136.295 230.887 136.433L216.304 144.897C215.867 145.151 215.521 144.968 215.521 144.5C215.546 144.245 215.63 143.998 215.765 143.779C215.901 143.561 216.085 143.377 216.304 143.241V143.241Z" fill="#4CAF4F"/>
<path d="M181.191 143.058L230.887 114.406C231.324 114.163 231.67 114.335 231.67 114.803C231.653 115.067 231.573 115.324 231.437 115.552C231.301 115.78 231.112 115.972 230.887 116.113L181.191 144.765C180.764 145.009 180.408 144.836 180.408 144.358C180.429 144.096 180.511 143.842 180.647 143.616C180.782 143.391 180.969 143.2 181.191 143.058V143.058Z" fill="#4CAF4F"/>
<path d="M168.721 157.292L230.887 121.204C231.324 120.96 231.67 121.132 231.67 121.6C231.653 121.865 231.573 122.122 231.437 122.349C231.3 122.577 231.112 122.77 230.887 122.91L168.721 158.989C168.294 159.243 167.938 159.06 167.938 158.593C167.958 158.33 168.039 158.075 168.175 157.849C168.311 157.623 168.498 157.433 168.721 157.292V157.292Z" fill="#4CAF4F"/>
<path d="M171.647 162.281L213.255 138.201C213.681 137.957 214.037 138.13 214.037 138.598C214.017 138.862 213.936 139.118 213.801 139.345C213.665 139.573 213.478 139.765 213.255 139.908L171.678 163.987C171.241 164.231 170.895 164.059 170.895 163.591C170.909 163.329 170.985 163.074 171.115 162.846C171.246 162.619 171.428 162.425 171.647 162.281Z" fill="#E8F5E9"/>
<path d="M168.721 150.241L176.942 145.496C177.369 145.242 177.725 145.425 177.725 145.892C177.705 146.155 177.624 146.41 177.488 146.636C177.352 146.861 177.165 147.052 176.942 147.193L168.721 151.938C168.294 152.192 167.938 152.009 167.938 151.541C167.955 151.278 168.035 151.022 168.171 150.796C168.308 150.57 168.496 150.38 168.721 150.241V150.241Z" fill="#4CAF4F"/>
<path d="M161.962 106.624L197.919 85.8568C198.356 85.6028 198.711 85.7856 198.711 86.253C198.692 86.5172 198.61 86.7729 198.472 86.9991C198.335 87.2253 198.145 87.4153 197.919 87.5535L161.962 108.321C161.525 108.575 161.18 108.392 161.18 107.924C161.197 107.661 161.277 107.405 161.413 107.179C161.549 106.953 161.737 106.763 161.962 106.624V106.624Z" fill="#4CAF4F"/>
<path opacity="0.6" d="M161.962 106.624L197.919 85.8568C198.356 85.6028 198.711 85.7856 198.711 86.253C198.692 86.5172 198.61 86.7729 198.472 86.9991C198.335 87.2253 198.145 87.4153 197.919 87.5535L161.962 108.321C161.525 108.575 161.18 108.392 161.18 107.924C161.197 107.661 161.277 107.405 161.413 107.179C161.549 106.953 161.737 106.763 161.962 106.624V106.624Z" fill="white"/>
<path d="M161.962 113.401L169.229 109.204C169.655 108.95 170.011 109.123 170.011 109.601C169.99 109.863 169.908 110.117 169.772 110.343C169.637 110.568 169.451 110.759 169.229 110.901L161.962 115.097C161.525 115.351 161.18 115.168 161.18 114.701C161.197 114.438 161.277 114.182 161.413 113.956C161.549 113.73 161.737 113.539 161.962 113.401V113.401Z" fill="#4CAF4F"/>
<path opacity="0.6" d="M161.962 113.401L169.229 109.204C169.655 108.95 170.011 109.123 170.011 109.601C169.99 109.863 169.908 110.117 169.772 110.343C169.637 110.568 169.451 110.759 169.229 110.901L161.962 115.097C161.525 115.351 161.18 115.168 161.18 114.701C161.197 114.438 161.277 114.182 161.413 113.956C161.549 113.73 161.737 113.539 161.962 113.401V113.401Z" fill="white"/>
<path d="M161.962 120.208L169.229 116.012C169.655 115.758 170.011 115.941 170.011 116.408C169.99 116.67 169.908 116.924 169.772 117.15C169.637 117.376 169.451 117.567 169.229 117.709L161.962 121.905C161.525 122.159 161.18 121.976 161.18 121.508C161.197 121.245 161.277 120.989 161.413 120.763C161.549 120.537 161.737 120.347 161.962 120.208V120.208Z" fill="#4CAF4F"/>
<path opacity="0.6" d="M161.962 120.208L169.229 116.012C169.655 115.758 170.011 115.941 170.011 116.408C169.99 116.67 169.908 116.924 169.772 117.15C169.637 117.376 169.451 117.567 169.229 117.709L161.962 121.905C161.525 122.159 161.18 121.976 161.18 121.508C161.197 121.245 161.277 120.989 161.413 120.763C161.549 120.537 161.737 120.347 161.962 120.208V120.208Z" fill="white"/>
<path d="M161.962 127.005L169.229 122.809C169.655 122.555 170.011 122.738 170.011 123.205C169.99 123.468 169.908 123.722 169.772 123.947C169.637 124.173 169.451 124.364 169.229 124.506L161.962 128.702C161.525 128.956 161.18 128.773 161.18 128.305C161.198 128.042 161.279 127.788 161.415 127.562C161.551 127.336 161.739 127.145 161.962 127.005Z" fill="#4CAF4F"/>
<path opacity="0.6" d="M161.962 127.005L169.229 122.809C169.655 122.555 170.011 122.738 170.011 123.205C169.99 123.468 169.908 123.722 169.772 123.947C169.637 124.173 169.451 124.364 169.229 124.506L161.962 128.702C161.525 128.956 161.18 128.773 161.18 128.305C161.198 128.042 161.279 127.788 161.415 127.562C161.551 127.336 161.739 127.145 161.962 127.005Z" fill="white"/>
<path d="M161.962 133.802L169.229 129.606C169.655 129.352 170.011 129.535 170.011 130.002C169.99 130.265 169.908 130.519 169.772 130.744C169.637 130.97 169.451 131.161 169.229 131.303L161.962 135.499C161.525 135.753 161.18 135.57 161.18 135.103C161.198 134.839 161.279 134.585 161.415 134.359C161.551 134.133 161.739 133.942 161.962 133.802V133.802Z" fill="#4CAF4F"/>
<path opacity="0.6" d="M161.962 133.802L169.229 129.606C169.655 129.352 170.011 129.535 170.011 130.002C169.99 130.265 169.908 130.519 169.772 130.744C169.637 130.97 169.451 131.161 169.229 131.303L161.962 135.499C161.525 135.753 161.18 135.57 161.18 135.103C161.198 134.839 161.279 134.585 161.415 134.359C161.551 134.133 161.739 133.942 161.962 133.802V133.802Z" fill="white"/>
<path d="M173.741 174.828L205.856 156.296C206.293 156.042 206.639 156.225 206.639 156.693C206.62 156.956 206.539 157.21 206.403 157.436C206.267 157.662 206.08 157.853 205.856 157.993L173.741 176.525C173.304 176.779 172.958 176.596 172.958 176.129C172.976 175.865 173.056 175.61 173.192 175.384C173.328 175.157 173.516 174.967 173.741 174.828V174.828Z" fill="#C8E6C9"/>
<path d="M173.741 181.625L205.856 163.093C206.293 162.839 206.639 163.022 206.639 163.49C206.621 163.753 206.541 164.009 206.405 164.235C206.269 164.461 206.081 164.651 205.856 164.79L173.741 183.322C173.304 183.576 172.958 183.393 172.958 182.926C172.977 182.663 173.058 182.408 173.194 182.182C173.33 181.956 173.517 181.765 173.741 181.625V181.625Z" fill="#C8E6C9"/>
<path d="M210.531 153.594L230.715 141.981C231.152 141.737 231.497 141.91 231.497 142.377C231.48 142.642 231.4 142.899 231.264 143.127C231.128 143.354 230.939 143.547 230.715 143.688L210.531 155.29C210.104 155.544 209.748 155.362 209.748 154.894C209.768 154.631 209.849 154.377 209.985 154.151C210.121 153.925 210.308 153.734 210.531 153.594V153.594Z" fill="#C8E6C9"/>
<path d="M210.531 160.391L230.715 148.778C231.152 148.534 231.497 148.707 231.497 149.184C231.478 149.447 231.397 149.702 231.262 149.928C231.126 150.154 230.938 150.345 230.715 150.485L210.531 162.088C210.104 162.342 209.748 162.159 209.748 161.691C209.77 161.429 209.851 161.175 209.987 160.949C210.123 160.724 210.309 160.533 210.531 160.391V160.391Z" fill="#C8E6C9"/>
<path d="M161.962 181.625L169.229 177.429C169.655 177.175 170.011 177.358 170.011 177.826C169.991 178.088 169.91 178.343 169.775 178.569C169.639 178.795 169.452 178.985 169.229 179.126L161.962 183.322C161.525 183.576 161.18 183.403 161.18 182.926C161.198 182.663 161.279 182.408 161.415 182.182C161.551 181.956 161.739 181.765 161.962 181.625V181.625Z" fill="#4CAF4F"/>
<path opacity="0.6" d="M161.962 181.625L169.229 177.429C169.655 177.175 170.011 177.358 170.011 177.826C169.991 178.088 169.91 178.343 169.775 178.569C169.639 178.795 169.452 178.985 169.229 179.126L161.962 183.322C161.525 183.576 161.18 183.403 161.18 182.926C161.198 182.663 161.279 182.408 161.415 182.182C161.551 181.956 161.739 181.765 161.962 181.625V181.625Z" fill="white"/>
<path d="M161.962 188.422L169.229 184.226C169.655 183.982 170.011 184.155 170.011 184.623C169.991 184.885 169.91 185.14 169.775 185.366C169.639 185.592 169.452 185.782 169.229 185.923L161.962 190.129C161.525 190.373 161.18 190.2 161.18 189.733C161.197 189.468 161.277 189.211 161.413 188.984C161.549 188.756 161.737 188.563 161.962 188.422Z" fill="#4CAF4F"/>
<path opacity="0.6" d="M161.962 188.422L169.229 184.226C169.655 183.982 170.011 184.155 170.011 184.623C169.991 184.885 169.91 185.14 169.775 185.366C169.639 185.592 169.452 185.782 169.229 185.923L161.962 190.129C161.525 190.373 161.18 190.2 161.18 189.733C161.197 189.468 161.277 189.211 161.413 188.984C161.549 188.756 161.737 188.563 161.962 188.422Z" fill="white"/>
<path d="M200.968 84.0991L210.277 78.7447C210.704 78.4907 211.059 78.6736 211.059 79.1409C211.04 79.4038 210.959 79.6583 210.823 79.8842C210.687 80.11 210.5 80.3009 210.277 80.4414L200.968 85.7958C200.531 86.0498 200.175 85.8771 200.175 85.3995C200.196 85.1358 200.278 84.8807 200.416 84.6548C200.554 84.4288 200.743 84.2385 200.968 84.0991V84.0991Z" fill="#4CAF4F"/>
<path opacity="0.6" d="M200.968 84.0991L210.277 78.7447C210.704 78.4907 211.059 78.6736 211.059 79.1409C211.04 79.4038 210.959 79.6583 210.823 79.8842C210.687 80.11 210.5 80.3009 210.277 80.4414L200.968 85.7958C200.531 86.0498 200.175 85.8771 200.175 85.3995C200.196 85.1358 200.278 84.8807 200.416 84.6548C200.554 84.4288 200.743 84.2385 200.968 84.0991V84.0991Z" fill="white"/>
<path d="M173.182 134.066L218.539 107.924C218.966 107.67 219.322 107.853 219.322 108.321C219.302 108.583 219.221 108.838 219.085 109.064C218.949 109.29 218.762 109.481 218.539 109.621L173.182 135.753C172.755 136.007 172.4 135.824 172.4 135.357C172.421 135.095 172.503 134.843 172.638 134.619C172.774 134.395 172.96 134.206 173.182 134.066V134.066Z" fill="#E8F5E9"/>
<path d="M161.962 147.508L230.887 107.619C231.324 107.365 231.67 107.548 231.67 108.016C231.653 108.279 231.573 108.535 231.436 108.761C231.3 108.987 231.112 109.177 230.887 109.316L161.962 149.205C161.525 149.459 161.18 149.276 161.18 148.808C161.197 148.545 161.277 148.289 161.413 148.063C161.549 147.837 161.737 147.647 161.962 147.508V147.508Z" fill="#E8F5E9"/>
<path d="M221.578 106.167L230.887 100.812C231.324 100.558 231.67 100.741 231.67 101.209C231.653 101.472 231.573 101.727 231.436 101.954C231.3 102.18 231.112 102.37 230.887 102.509L221.578 107.874C221.141 108.117 220.796 107.945 220.796 107.467C220.814 107.204 220.895 106.949 221.031 106.723C221.167 106.497 221.355 106.307 221.578 106.167Z" fill="#E8F5E9"/>
<path d="M173.741 106.614L209.698 85.8465C210.135 85.5925 210.49 85.7754 210.49 86.2427C210.469 86.5065 210.387 86.7616 210.249 86.9875C210.111 87.2135 209.922 87.4038 209.698 87.5432L173.741 108.321C173.304 108.575 172.948 108.392 172.948 107.924C172.966 107.658 173.047 107.401 173.185 107.173C173.323 106.944 173.514 106.753 173.741 106.614V106.614Z" fill="#4CAF4F"/>
<path opacity="0.6" d="M173.741 106.614L209.698 85.8465C210.135 85.5925 210.49 85.7754 210.49 86.2427C210.469 86.5065 210.387 86.7616 210.249 86.9875C210.111 87.2135 209.922 87.4038 209.698 87.5432L173.741 108.321C173.304 108.575 172.948 108.392 172.948 107.924C172.966 107.658 173.047 107.401 173.185 107.173C173.323 106.944 173.514 106.753 173.741 106.614V106.614Z" fill="white"/>
<path d="M212.746 84.0889L222.056 78.7345C222.483 78.4805 222.838 78.6532 222.838 79.1307C222.817 79.3932 222.735 79.6471 222.6 79.8727C222.464 80.0983 222.278 80.2895 222.056 80.4312L212.746 85.7856C212.309 86.0396 211.954 85.8567 211.954 85.3894C211.975 85.1256 212.057 84.8705 212.195 84.6446C212.333 84.4186 212.522 84.2283 212.746 84.0889V84.0889Z" fill="#4CAF4F"/>
<path opacity="0.6" d="M212.746 84.0889L222.056 78.7345C222.483 78.4805 222.838 78.6532 222.838 79.1307C222.817 79.3932 222.735 79.6471 222.6 79.8727C222.464 80.0983 222.278 80.2895 222.056 80.4312L212.746 85.7856C212.309 86.0396 211.954 85.8567 211.954 85.3894C211.975 85.1256 212.057 84.8705 212.195 84.6446C212.333 84.4186 212.522 84.2283 212.746 84.0889V84.0889Z" fill="white"/>
</svg>
