<svg width="391" height="407" viewBox="0 0 391 407" fill="none" xmlns="http://www.w3.org/2000/svg">
<path d="M336.293 393.032C366.507 393.032 391 378.894 391 361.454C391 344.015 366.507 329.877 336.293 329.877C306.079 329.877 281.586 344.015 281.586 361.454C281.586 378.894 306.079 393.032 336.293 393.032Z" fill="#E0E0E0"/>
<path d="M148.296 406.959C147.399 406.95 146.532 406.633 145.841 406.061C145.149 405.49 144.674 404.699 144.495 403.82L143.611 399.167C141.615 398.802 139.643 398.317 137.706 397.714H137.554L129.362 401.514C128.689 401.805 127.959 401.938 127.226 401.905C126.494 401.871 125.778 401.672 125.135 401.321L117.004 396.606C116.514 396.343 116.099 395.957 115.802 395.486C115.504 395.016 115.333 394.476 115.306 393.92C115.278 393.364 115.395 392.81 115.644 392.313C115.894 391.815 116.268 391.39 116.73 391.079L121.669 387.523C121.221 386.926 120.81 386.302 120.439 385.654L110.032 385.004C109.088 384.944 108.201 384.528 107.552 383.839C106.903 383.151 106.54 382.241 106.536 381.295V375.199C106.537 374.253 106.897 373.342 107.545 372.651C108.192 371.961 109.078 371.542 110.022 371.48L120.429 370.82C120.8 370.175 121.211 369.554 121.659 368.961L116.699 365.435C116.237 365.124 115.863 364.7 115.614 364.202C115.364 363.704 115.248 363.15 115.275 362.594C115.303 362.038 115.474 361.499 115.771 361.028C116.069 360.557 116.483 360.172 116.974 359.908L125.104 355.194C125.812 354.799 126.611 354.596 127.421 354.605C128.08 354.595 128.732 354.73 129.332 355.001L137.533 358.801H137.635C139.596 358.193 141.591 357.704 143.611 357.338L144.495 352.684C144.672 351.805 145.147 351.012 145.839 350.441C146.531 349.869 147.398 349.553 148.296 349.545H160.298C161.196 349.555 162.062 349.872 162.754 350.443C163.446 351.014 163.92 351.805 164.099 352.684L164.984 357.338C166.975 357.704 168.943 358.185 170.878 358.78H171.031L179.232 354.981C179.829 354.711 180.478 354.576 181.133 354.584C181.947 354.574 182.749 354.777 183.46 355.174L191.59 359.888C192.079 360.152 192.492 360.538 192.788 361.008C193.085 361.478 193.256 362.016 193.285 362.572C193.313 363.127 193.199 363.68 192.952 364.178C192.705 364.675 192.334 365.102 191.875 365.415L186.925 368.971C187.375 369.566 187.789 370.187 188.165 370.83L198.572 371.491C199.517 371.553 200.402 371.971 201.05 372.662C201.697 373.352 202.058 374.263 202.058 375.209V381.305C202.055 382.251 201.694 383.16 201.047 383.85C200.4 384.54 199.516 384.96 198.572 385.024L188.165 385.674C187.791 386.322 187.377 386.947 186.925 387.544L191.875 391.1C192.334 391.413 192.705 391.839 192.952 392.337C193.199 392.835 193.313 393.388 193.285 393.943C193.256 394.498 193.085 395.036 192.788 395.506C192.492 395.976 192.079 396.362 191.59 396.627L183.46 401.341C182.747 401.733 181.946 401.935 181.133 401.93C180.478 401.933 179.831 401.798 179.232 401.534L171.031 397.734H170.929C168.972 398.345 166.98 398.837 164.963 399.207L164.079 403.85C163.902 404.731 163.428 405.525 162.736 406.098C162.044 406.671 161.177 406.99 160.278 407L148.296 406.959ZM154.302 372.74C149.962 372.638 145.668 373.653 141.832 375.687C139.038 377.302 137.432 379.365 137.432 381.366C137.432 383.368 139.038 385.43 141.832 387.046C145.705 388.983 149.977 389.992 154.307 389.992C158.638 389.992 162.909 388.983 166.782 387.046C169.577 385.43 171.173 383.368 171.173 381.366C171.173 379.365 169.577 377.302 166.782 375.687C162.943 373.654 158.646 372.64 154.302 372.74V372.74Z" fill="#E0E0E0"/>
<path d="M193.213 233.065L189.809 231.105C188.514 230.448 187.083 230.107 185.632 230.107C184.18 230.107 182.749 230.448 181.455 231.105L1.72262 334.889C-0.574208 336.21 -0.574208 338.384 1.72262 339.705L5.11705 341.666C6.41342 342.322 7.84606 342.664 9.29911 342.664C10.7522 342.664 12.1848 342.322 13.4812 341.666L68.0766 310.17L90.2014 322.931C96.4618 326.548 106.716 326.548 112.977 322.931L150.641 301.189C155.986 298.14 155.986 293.06 150.641 290.012L126.869 276.185L193.223 237.891C195.51 236.56 195.51 234.396 193.213 233.065Z" fill="#E0E0E0"/>
<g opacity="0.1">
<path opacity="0.1" d="M200.175 57.0731L37.5673 150.921V242.9C37.5553 243.433 37.704 243.957 37.9942 244.404C38.0912 244.565 38.2263 244.699 38.3877 244.794C38.549 244.89 38.7316 244.944 38.919 244.953C39.1524 244.948 39.3803 244.881 39.5796 244.76L204.047 149.753V59.3286C204.047 56.8292 202.309 55.8335 200.175 57.0731Z" fill="#103E13"/>
</g>
<path d="M116.381 317.526L147.541 299.522C150.752 297.663 152.358 295.235 152.358 292.806C152.358 290.378 152.358 288.468 152.358 288.468L123.028 271.836C122.126 271.245 121.376 270.451 120.837 269.518C120.299 268.584 119.987 267.537 119.928 266.461V228.056L65.5256 259.502V297.907C65.5777 298.977 65.8808 300.02 66.4104 300.952C66.94 301.884 67.6813 302.678 68.5745 303.271L93.0673 317.495C99.5411 321.234 109.958 321.234 116.381 317.526Z" fill="#37474F"/>
<path d="M78.5851 304.704V309.022L68.6152 303.271C67.7135 302.681 66.9632 301.887 66.4248 300.953C65.8864 300.02 65.5749 298.973 65.5155 297.897V259.502L75.8817 253.517C76.1053 256.149 76.3289 258.872 76.5525 261.524L69.2758 265.73V295.732C69.3247 296.805 69.6264 297.851 70.1562 298.785C70.686 299.719 71.429 300.515 72.3247 301.107L78.5851 304.704Z" fill="#263238"/>
<path d="M69.2758 295.743C69.3295 296.814 69.6332 297.858 70.1626 298.791C70.6919 299.725 71.4324 300.521 72.3246 301.117L93.0571 313.198C99.4903 316.906 109.907 316.906 116.33 313.198L147.5 295.194C153.933 291.486 153.933 285.471 147.5 281.762L126.747 269.672C125.843 269.084 125.091 268.29 124.553 267.356C124.014 266.422 123.704 265.374 123.648 264.297V234.305L69.2758 265.73V295.743Z" fill="#455A64"/>
<path opacity="0.15" d="M133.12 273.319L126.808 269.672C125.904 269.084 125.152 268.29 124.614 267.356C124.075 266.422 123.765 265.374 123.709 264.297V234.305L69.2758 265.73V295.743C69.3295 296.814 69.6332 297.858 70.1626 298.791C70.6919 299.725 71.4324 300.521 72.3246 301.117L78.5342 304.694L133.12 273.319Z" fill="#103E13"/>
<path d="M4.43592 319.426C5.61265 319.994 6.90665 320.277 8.2132 320.252C9.51975 320.228 10.8021 319.896 11.9565 319.283C38.7156 303.84 164.269 231.369 191.028 215.935C192.154 215.197 193.092 214.205 193.764 213.039C194.437 211.872 194.826 210.564 194.9 209.22V59.3081C194.954 57.9804 194.643 56.6632 194.001 55.4997C193.359 54.3361 192.411 53.3705 191.259 52.7077C190.107 52.045 188.795 51.7103 187.466 51.7401C186.137 51.7699 184.842 52.163 183.721 52.8768L4.67983 156.225C3.56091 156.967 2.63154 157.961 1.96618 159.128C1.30083 160.294 0.918006 161.6 0.848389 162.941V312.852C0.891758 314.152 1.23881 315.423 1.86176 316.565C2.48472 317.706 3.36628 318.686 4.43592 319.426V319.426Z" fill="#37474F"/>
<path d="M11.9566 319.283L191.028 215.925C192.156 215.189 193.095 214.197 193.768 213.03C194.44 211.863 194.828 210.554 194.9 209.209V59.308C194.9 56.829 193.162 55.8333 191.028 57.0728L11.9566 160.421C10.8285 161.157 9.88989 162.149 9.21711 163.316C8.54432 164.483 8.15629 165.792 8.08452 167.137V317.048C8.07435 319.517 9.81222 320.513 11.9566 319.283Z" fill="#455A64"/>
<path d="M13.2067 298.963V168.915C13.2517 168.089 13.4904 167.285 13.9035 166.569C14.3167 165.852 14.8926 165.243 15.5848 164.79L187.39 65.6277C188.701 64.8657 189.768 65.4855 189.768 66.9993V197.048C189.723 197.876 189.484 198.683 189.069 199.401C188.654 200.12 188.075 200.73 187.38 201.183L15.5848 300.345C14.2738 301.097 13.2067 300.487 13.2067 298.963Z" fill="#4CAF4F"/>
<path opacity="0.75" d="M13.2067 298.963V168.915C13.2517 168.089 13.4904 167.285 13.9035 166.569C14.3167 165.852 14.8926 165.243 15.5848 164.79L187.39 65.6277C188.701 64.8657 189.768 65.4855 189.768 66.9993V197.048C189.723 197.876 189.484 198.683 189.069 199.401C188.654 200.12 188.075 200.73 187.38 201.183L15.5848 300.345C14.2738 301.097 13.2067 300.487 13.2067 298.963Z" fill="white"/>
<path d="M1.94614 159.12L9.22283 163.316C8.52891 164.479 8.13431 165.795 8.07441 167.147V317.048C8.07441 319.304 9.60902 320.563 11.9567 319.283C10.8046 319.903 9.52144 320.239 8.21357 320.263C6.9057 320.288 5.61077 320.001 4.43607 319.426C3.37189 318.79 2.48228 317.901 1.8472 316.837C1.21213 315.773 0.8515 314.567 0.797729 313.329V162.961C0.849035 161.604 1.24419 160.283 1.94614 159.12V159.12Z" fill="#263238"/>
<path d="M93.5754 261.838L109.399 252.694C110.192 252.247 110.822 252.562 110.822 253.416C110.786 253.893 110.639 254.355 110.392 254.764C110.145 255.174 109.805 255.519 109.399 255.773L93.5754 264.917C92.7929 265.374 92.1526 265.049 92.1526 264.206C92.1866 263.727 92.3332 263.263 92.5804 262.852C92.8277 262.44 93.1686 262.093 93.5754 261.838V261.838Z" fill="#4CAF4F"/>
<path d="M282.048 68.2693L264.252 78.5512C264.068 78.6742 263.916 78.8382 263.806 79.0305C263.697 79.2227 263.634 79.4378 263.622 79.6587V101.401C263.633 101.621 263.697 101.834 263.809 102.023C263.92 102.213 264.076 102.372 264.262 102.488L266.783 103.931C266.982 104.029 267.201 104.08 267.423 104.08C267.645 104.08 267.864 104.029 268.063 103.931L285.859 93.6389C286.042 93.5182 286.195 93.356 286.305 93.1654C286.414 92.9747 286.477 92.7611 286.489 92.5416V70.7991C286.477 70.5786 286.413 70.364 286.301 70.1732C286.19 69.9824 286.035 69.8208 285.849 69.7018L283.379 68.2591C283.173 68.1521 282.944 68.0971 282.712 68.0989C282.48 68.1007 282.252 68.1592 282.048 68.2693Z" fill="#333333"/>
<path d="M268.063 103.921C267.864 104.016 267.645 104.066 267.423 104.066C267.202 104.066 266.983 104.016 266.783 103.921L264.262 102.478C264.076 102.362 263.92 102.203 263.809 102.013C263.697 101.824 263.633 101.61 263.622 101.391V79.6485C263.632 79.4177 263.702 79.1935 263.825 78.9983L267.616 81.1725C267.494 81.3757 267.423 81.5993 267.423 81.2538V102.996C267.423 103.921 267.687 104.134 268.063 103.921Z" fill="#333333"/>
<path opacity="0.4" d="M286.479 70.7281C286.428 70.403 286.174 70.2912 285.859 70.4741L268.063 80.7662C267.878 80.8826 267.724 81.0432 267.616 81.2336L263.815 79.0593C263.926 78.8741 264.08 78.7175 264.262 78.6021L282.058 68.31C282.255 68.2101 282.472 68.158 282.693 68.158C282.914 68.158 283.131 68.2101 283.328 68.31L285.848 69.7426C286.02 69.8502 286.165 69.9944 286.274 70.1648C286.383 70.3352 286.453 70.5275 286.479 70.7281V70.7281Z" fill="white"/>
<path d="M261.884 95.7826C261.478 95.5387 258.439 93.8318 258.348 93.7506C258.272 93.7057 258.208 93.6446 258.16 93.5719C258.111 93.4991 258.079 93.4164 258.067 93.3298C258.054 93.2432 258.061 93.1549 258.087 93.0713C258.112 92.9877 258.156 92.9108 258.215 92.8463L263.622 86.6487L267.423 88.8331L261.773 94.8682C261.712 94.9322 261.667 95.0087 261.639 95.0922C261.612 95.1758 261.603 95.2643 261.614 95.3515C261.625 95.4388 261.655 95.5226 261.701 95.5971C261.748 95.6716 261.81 95.7349 261.884 95.7826V95.7826Z" fill="#37474F"/>
<path opacity="0.4" d="M261.884 95.7826C261.478 95.5387 258.439 93.8318 258.348 93.7506C258.272 93.7057 258.208 93.6446 258.16 93.5719C258.111 93.4991 258.079 93.4164 258.067 93.3298C258.054 93.2432 258.061 93.1549 258.087 93.0713C258.112 92.9877 258.156 92.9108 258.215 92.8463L263.622 86.6487L267.423 88.8331L261.773 94.8682C261.712 94.9322 261.667 95.0087 261.639 95.0922C261.612 95.1758 261.603 95.2643 261.614 95.3515C261.625 95.4388 261.655 95.5226 261.701 95.5971C261.748 95.6716 261.81 95.7349 261.884 95.7826V95.7826Z" fill="white"/>
<path d="M285.859 70.4232L268.063 80.7153C267.877 80.8343 267.722 80.9958 267.611 81.1867C267.499 81.3775 267.435 81.592 267.423 81.8126V88.8535L261.772 94.8885C261.679 94.9624 261.61 95.064 261.577 95.1789C261.544 95.2937 261.548 95.416 261.589 95.5285C261.629 95.6409 261.704 95.7377 261.803 95.8052C261.901 95.8728 262.019 95.9075 262.138 95.9045L267.423 95.5185V103.596C267.423 104.002 267.708 104.165 268.063 103.961L285.859 93.6693C286.042 93.5486 286.195 93.3864 286.305 93.1958C286.414 93.0052 286.477 92.7915 286.489 92.5721V70.8296C286.489 70.3825 286.204 70.22 285.859 70.4232Z" fill="#37474F"/>
<path d="M282.363 89.7171L278.714 86.984L282.475 79.7907C282.643 79.47 282.677 79.0956 282.569 78.7498C282.462 78.404 282.221 78.1151 281.9 77.9467C281.58 77.7782 281.205 77.7441 280.859 77.8518C280.513 77.9594 280.224 78.2 280.056 78.5207L276.499 85.3178L273.247 82.859C273.104 82.751 272.941 82.6721 272.768 82.6268C272.594 82.5816 272.414 82.571 272.237 82.5955C272.059 82.62 271.888 82.6793 271.734 82.7698C271.579 82.8603 271.444 82.9804 271.336 83.1232C271.228 83.2659 271.149 83.4286 271.104 83.6019C271.058 83.7751 271.048 83.9556 271.072 84.1329C271.097 84.3103 271.156 84.4811 271.247 84.6356C271.337 84.7901 271.457 84.9252 271.6 85.0333L275.218 87.7663L271.61 94.6548C271.442 94.9769 271.409 95.3525 271.517 95.6992C271.626 96.0458 271.868 96.3353 272.19 96.504C272.385 96.6033 272.601 96.6555 272.82 96.6564C273.069 96.6567 273.314 96.5887 273.527 96.4597C273.74 96.3308 273.914 96.1457 274.029 95.9248L277.424 89.4427L280.686 91.9015C280.975 92.1176 281.338 92.2111 281.695 92.1617C282.053 92.1122 282.377 91.9238 282.597 91.6373C282.819 91.3513 282.92 90.9888 282.876 90.629C282.832 90.2692 282.648 89.9413 282.363 89.7171V89.7171Z" fill="#F5F7FA"/>
<path d="M365.593 349.394C366.314 350.816 366.637 352.406 366.528 353.997C366.456 355.388 365.623 357.197 365.999 360.336C366.375 363.476 367.097 364.472 367.432 366.686C367.629 367.703 367.622 368.748 367.411 369.761C367.199 370.775 366.789 371.736 366.202 372.589C364.901 374.703 362.036 376.379 356.365 376.176C351.791 376.013 349.942 373.666 349.84 370.974L365.593 349.394Z" fill="#263238"/>
<path d="M364.292 342.912C364.432 343.496 364.524 344.091 364.566 344.69C364.739 345.757 365.054 346.722 365.308 347.809C365.379 348.083 365.44 348.358 365.501 348.632C365.938 350.735 365.501 352.91 365.501 355.053C365.677 357.586 366.123 360.093 366.832 362.531C367.849 366.981 368.021 369.958 364.129 373.037C362.096 374.662 359.83 374.713 357.228 374.784C355.228 374.854 353.246 374.376 351.496 373.402C349.83 372.173 349.85 371.137 349.84 370.74C349.687 366.016 351.395 360.519 351.74 355.805C351.869 354.536 351.896 353.258 351.822 351.985C351.659 350.42 351.12 348.866 350.948 347.291C350.826 346.704 350.901 346.094 351.161 345.554C351.424 345.255 351.748 345.016 352.111 344.853C352.473 344.69 352.867 344.607 353.265 344.609C355.297 344.334 357.411 344.131 359.495 343.979C359.985 343.886 360.492 343.988 360.907 344.263C361.314 344.629 361.324 345.279 361.436 345.777C361.548 346.275 361.934 346.915 362.452 346.793C362.624 346.738 362.775 346.633 362.887 346.492C362.999 346.351 363.067 346.18 363.082 346.001C363.133 345.655 363.286 342.953 363.275 342.556C363.316 342.577 364.048 342.465 364.292 342.912Z" fill="#37474F"/>
<path d="M295.468 358.589C295.133 359.424 295.133 360.355 295.468 361.19C295.803 361.962 299.676 364.36 305.031 364.238C308.995 364.111 312.853 362.933 316.211 360.824C318.294 359.554 320.428 359.392 323.081 359.341C325.733 359.29 328.843 358.325 329.748 357.136C330.088 355.972 330.088 354.734 329.748 353.57L295.468 358.589Z" fill="#263238"/>
<path d="M314.859 342.77C314.654 343.152 314.471 343.545 314.31 343.948C313.654 345.4 312.64 346.662 311.363 347.616C309.515 348.894 307.531 349.964 305.448 350.806C304.127 351.396 302.745 351.558 301.383 352.025C299.874 352.508 298.419 353.149 297.043 353.936C294.889 355.256 294.482 358.802 296.81 360.306C298.842 361.596 304.198 363.13 309.95 361.749C313.091 360.997 316.658 357.817 320.743 357.685C323.335 357.593 328.264 357.065 330.012 355.165C330.652 352.33 329.951 351.528 329.372 349.069C329.062 347.708 328.898 346.319 328.884 344.924C328.884 344.192 329.372 342.089 327.868 341.876L327.715 343.45C327.715 343.45 327.421 343.979 325.815 344.263C325.296 344.355 324.89 345.035 324.616 345.655C324.341 346.275 324.168 346.752 323.599 346.742C323.422 346.717 323.254 346.646 323.113 346.535C322.972 346.425 322.863 346.279 322.796 346.112C322.674 345.781 322.575 345.442 322.502 345.096C322.296 344.543 321.972 344.04 321.553 343.625C321.133 343.209 320.628 342.889 320.073 342.688C319.151 342.377 318.196 342.176 317.227 342.089C316.495 341.977 315.886 341.662 315.194 342.292C315.062 342.436 314.95 342.597 314.859 342.77V342.77Z" fill="#37474F"/>
<path d="M356.558 221.926C357.574 237.441 358.113 246.473 360.887 288.81C362.929 296.055 364.226 303.49 364.759 310.999C365.308 320.367 366.639 348.591 366.639 348.591C366.639 348.591 359.088 354.789 350.379 351.924C350.379 351.924 342.472 310.43 339.707 297.486C337.065 285.061 335.032 271.477 335.032 271.477L333.071 288.81C333.071 288.81 333.417 296.521 333.173 308.033C333.051 314.19 330.124 347.514 330.124 347.514C330.124 347.514 319.524 352.33 312.369 346.143C312.369 346.143 311.851 292.102 311.739 286.534C311.617 280.174 312.755 216.216 312.755 216.216L356.558 221.926Z" fill="#455A64"/>
<path d="M334.992 271.487L329.575 243.11C329.575 243.11 321.201 242.378 316.577 237.705C316.577 237.705 317.4 242.287 327.929 245.03L333.163 271.162L333.071 288.81L334.992 271.487Z" fill="#37474F"/>
<path d="M366.395 343.501C363.176 346.288 359.036 347.78 354.779 347.687C354.779 347.687 361.995 346.61 366.324 341.855L366.395 343.501Z" fill="#37474F"/>
<path d="M330.459 343.583C330.459 343.583 323.071 346.163 316.841 344.192C316.841 344.192 321.648 347.423 330.347 344.771L330.459 343.583Z" fill="#37474F"/>
<path d="M252.53 164.197C252.477 163.954 252.373 163.725 252.225 163.526C251.966 163.058 251.836 162.529 251.847 161.994C251.857 161.459 252.009 160.936 252.286 160.478C252.465 160.254 252.616 160.009 252.733 159.747C252.936 159.188 252.682 158.558 252.733 157.959C252.916 155.286 257.753 156.455 259.288 156.943C259.735 157.095 262.337 157.765 263.353 158.121C263.262 156.655 263.406 155.183 263.78 153.762C264.471 150.989 266.758 151.273 266.89 152.97C267.016 154.506 267.302 156.025 267.744 157.501C268.028 158.588 268.76 159.665 269.176 161.271C269.776 163.303 269.624 164.441 271.656 166.351C274.705 169.226 290.356 179.833 290.356 179.833C294.259 177.324 309.361 168.037 315.022 164.969C320.499 161.992 323.294 164.39 323.294 164.39L318.518 181.977C318.518 181.977 299.686 191.69 292.897 194.657C288.161 196.689 286.067 195.551 280.844 190.897C276.697 186.976 271.229 181.306 265.325 176.084C262.967 173.991 261.26 172.924 259.593 172.843C258.963 172.843 258.333 172.772 257.713 172.711C256.31 172.548 254.664 172.203 253.983 170.811C253.749 170.344 253.637 169.795 253.444 169.328C253.149 168.576 252.682 167.905 252.428 167.153C252.219 166.649 252.148 166.099 252.225 165.558C252.225 165.121 252.591 164.684 252.53 164.197Z" fill="#E8F5E9"/>
<path d="M324.29 163.039C319.473 163.039 317.603 163.039 311.485 166.513C305.367 169.988 293.435 177.882 293.435 177.882C293.435 177.882 298.781 180.859 299.848 191.426L319.158 182.363L324.29 163.039Z" fill="#455A64"/>
<path d="M261.493 159.737C263.089 160.123 263.587 161.129 263.699 163.374C263.76 164.705 264.319 167.133 265.833 168.017C265.132 167.992 264.455 167.754 263.892 167.336C263.16 166.676 262.967 166.615 262.611 167.042C262.348 167.328 262.021 167.548 261.656 167.682C261.917 167.943 262.087 168.283 262.141 168.649C262.194 169.015 262.127 169.388 261.951 169.714C261.331 170.913 258.211 171.146 255.568 169.998C255.568 169.998 259.806 171.014 260.65 169.632C261.493 168.251 259.217 166.747 257.601 166.412C257.601 166.412 261.666 167.092 262.194 165.741C262.723 164.39 260.995 163.506 258.597 163.069C258.597 163.069 261.951 163.445 262.438 162.277C262.621 161.811 262.626 161.295 262.451 160.826C262.277 160.357 261.936 159.97 261.493 159.737V159.737Z" fill="#C8E6C9"/>
<path d="M290.315 179.864C292.43 181.275 294.067 183.294 295.011 185.655C295.011 185.655 295.346 181.195 291.677 179L290.315 179.864Z" fill="#C8E6C9"/>
<path d="M312.176 180.412C312.776 168.454 317.593 163.628 324.29 163.038L339.342 162.022C343.407 162.967 353.976 164.999 353.976 164.999C358.357 166.31 361.436 177.73 360.409 184.232C359.383 190.735 357.239 195.693 356.639 206.635C356.812 216.998 356.964 219.051 356.964 223.115C347.604 229.058 322.461 230.298 312.572 224.334C312.572 224.334 312.4 214.316 312.196 207.936C311.851 196.993 311.973 184.527 312.176 180.412Z" fill="#4CAF4F"/>
<path d="M316.129 129.683C315.524 130.029 315.023 130.531 314.68 131.137C314.337 131.743 314.163 132.431 314.178 133.127C314.154 134.171 314.452 135.196 315.032 136.064C315.908 137.17 317.121 137.962 318.487 138.319C319.076 138.46 319.651 138.654 320.205 138.898C320.895 139.39 321.541 139.941 322.136 140.544C323.061 141.255 323.975 141.987 324.92 142.678C326.794 144.077 328.753 145.36 330.784 146.518C332.737 147.636 334.776 148.594 336.882 149.383C339.108 150.206 340.947 149.485 343.325 149.698L342.98 156.14C342.98 156.14 343.773 154.656 344.677 152.889C345.46 151.365 348.742 143.602 348.742 143.602C350.023 140.554 351.649 137.364 351.456 133.96C351.293 131.207 350.744 128.789 348.651 127.621C348.478 124.451 347.757 122.906 345.531 121.21C343.889 120.099 342.002 119.402 340.033 119.178C337.808 118.921 335.557 119 333.356 119.411C330.063 119.94 326.77 120.783 323.437 120.61C321.655 120.42 319.855 120.534 318.111 120.945C317.004 121.305 316.042 122.012 315.37 122.962C314.698 123.913 314.351 125.055 314.381 126.219C314.31 127.428 315.276 129.419 316.129 129.683Z" fill="#37474F"/>
<path d="M336.984 130.506C336.984 132.538 338.854 135.413 341.699 137.892C341.363 139.773 341.415 141.702 341.852 143.562C342.027 144.14 342.294 144.685 342.645 145.177C342.774 145.383 342.948 145.557 343.154 145.687C343.36 145.818 343.592 145.9 343.834 145.929C344.494 145.929 344.758 145.584 344.962 145.065C345.262 144.409 345.601 143.771 345.978 143.155C346.146 142.893 346.34 142.647 346.557 142.424C347.574 141.499 350.511 140.392 351.883 143.521C353.255 146.65 350.683 151.08 348.305 151.741C344.24 152.889 343.315 150.095 343.315 150.095L343.386 163.648C342.238 167.082 335.876 170.425 330.754 169.744C325.632 169.064 327.258 165.975 329.341 163.882L329.077 159.178C327.254 159.358 325.414 159.29 323.609 158.975C321.485 158.568 319.737 156.577 318.853 153.336C317.445 147.161 317.238 140.773 318.243 134.519C319.016 130.699 319.961 129.053 320.418 128.606C320.418 129.439 322.014 131.989 326.15 132.558C330.52 133.188 333.833 131.807 336.984 130.506Z" fill="#E8F5E9"/>
<path d="M329.057 159.198C332.837 158.853 335.907 158.334 338.041 157.166C339.606 156.343 340.957 153.773 341.364 152.858C341.364 152.858 341.262 156.374 339.159 158.324C336.191 161.078 329.168 161.078 329.168 161.078L329.057 159.198Z" fill="#C8E6C9"/>
<path d="M331.038 141.946C331.041 142.215 331.122 142.477 331.272 142.7C331.421 142.923 331.633 143.097 331.881 143.201C332.129 143.304 332.402 143.333 332.666 143.283C332.93 143.233 333.174 143.106 333.366 142.919C333.559 142.732 333.693 142.492 333.75 142.23C333.808 141.967 333.788 141.694 333.691 141.443C333.595 141.192 333.427 140.975 333.208 140.819C332.99 140.663 332.73 140.574 332.461 140.564C332.277 140.562 332.094 140.595 331.923 140.663C331.752 140.731 331.596 140.832 331.464 140.961C331.331 141.089 331.226 141.242 331.153 141.411C331.08 141.58 331.041 141.762 331.038 141.946V141.946Z" fill="#263238"/>
<path d="M331.536 137.466L334.86 138.837C335.033 138.384 335.024 137.881 334.834 137.434C334.645 136.987 334.29 136.631 333.843 136.44C333.625 136.35 333.391 136.306 333.155 136.31C332.919 136.313 332.686 136.364 332.471 136.46C332.255 136.556 332.061 136.695 331.901 136.867C331.74 137.04 331.616 137.244 331.536 137.466V137.466Z" fill="#263238"/>
<path d="M332.837 149.343L327.756 151.375C327.876 151.715 328.065 152.028 328.309 152.294C328.554 152.56 328.85 152.773 329.18 152.921C329.51 153.07 329.866 153.149 330.227 153.156C330.589 153.163 330.948 153.096 331.282 152.96C331.956 152.672 332.494 152.135 332.783 151.462C333.073 150.789 333.092 150.03 332.837 149.343V149.343Z" fill="#388E3B"/>
<path d="M329.88 152.909C329.875 152.994 329.875 153.078 329.88 153.163C330.357 153.24 330.846 153.184 331.293 153C331.805 152.781 332.24 152.415 332.544 151.949C332.848 151.482 333.007 150.936 333 150.379C332.82 150.339 332.636 150.318 332.451 150.318C331.767 150.323 331.113 150.599 330.632 151.084C330.15 151.569 329.88 152.225 329.88 152.909V152.909Z" fill="#C8E6C9"/>
<path d="M319.097 138.756L322.38 137.486C322.304 137.27 322.186 137.072 322.032 136.904C321.877 136.735 321.691 136.599 321.483 136.504C321.275 136.41 321.05 136.358 320.822 136.352C320.594 136.346 320.366 136.386 320.154 136.47C319.712 136.635 319.353 136.967 319.155 137.395C318.957 137.824 318.936 138.313 319.097 138.756V138.756Z" fill="#263238"/>
<path d="M319.941 141.652C319.93 141.836 319.956 142.021 320.017 142.195C320.078 142.37 320.173 142.53 320.297 142.667C320.421 142.804 320.571 142.916 320.739 142.994C320.906 143.073 321.087 143.117 321.272 143.125C321.557 143.145 321.842 143.079 322.089 142.937C322.337 142.794 322.536 142.58 322.661 142.323C322.786 142.066 322.832 141.778 322.792 141.495C322.752 141.212 322.628 140.948 322.436 140.736C322.245 140.523 321.994 140.374 321.716 140.305C321.439 140.237 321.147 140.253 320.879 140.351C320.611 140.45 320.378 140.626 320.211 140.858C320.043 141.09 319.949 141.366 319.941 141.652V141.652Z" fill="#263238"/>
<path d="M327.238 148.672L322.176 147.717L326.953 139.63L327.238 148.672Z" fill="#C8E6C9"/>
<path d="M354.85 165.243C361.182 166.341 365.013 168.373 366.639 173.371C368.946 180.483 375.4 200.631 376.731 207.794C377.544 212.193 378.815 214.977 375.085 217.872C366.197 224.302 356.917 230.172 347.299 235.449C338.844 239.879 326.079 240.753 326.079 240.753L335.337 235.155L336.984 232.015L361.731 210.1L352.381 182.485C352.381 182.485 350.023 168.291 354.85 165.243Z" fill="#E8F5E9"/>
<path d="M361.731 210.1C363.742 209.064 365.973 208.527 368.235 208.535C368.235 208.535 366.04 206.645 361.192 208.535L361.731 210.1Z" fill="#C8E6C9"/>
<path d="M353.976 164.999C356.873 165.538 360.074 165.853 363.021 167.722C365.969 169.592 366.507 171.857 368.774 178.837C371.04 185.817 373.713 196.109 373.713 196.109C373.713 196.109 368.164 200.803 358.611 200.935C358.611 200.935 353.905 187.88 352.747 184.974C351.588 182.068 348.671 172.701 353.976 164.999Z" fill="#455A64"/>
<path d="M343.773 227.717V228.591C343.782 229.022 343.678 229.448 343.471 229.826C343.265 230.204 342.962 230.521 342.594 230.745L319.524 244.746C319.15 244.956 318.728 245.066 318.299 245.066C317.87 245.066 317.449 244.956 317.075 244.746L273.618 220.951C273.242 220.74 272.928 220.436 272.705 220.067C272.482 219.698 272.359 219.278 272.347 218.848V218.258L318.274 243.435L343.773 227.717Z" fill="#4CAF4F"/>
<g opacity="0.5">
<path opacity="0.5" d="M343.773 227.717V228.591C343.782 229.022 343.678 229.448 343.471 229.826C343.265 230.204 342.962 230.521 342.594 230.745L319.524 244.746C319.15 244.956 318.728 245.066 318.299 245.066C317.87 245.066 317.449 244.956 317.075 244.746L273.618 220.951C273.242 220.74 272.928 220.436 272.705 220.067C272.482 219.698 272.359 219.278 272.347 218.848V218.258L318.274 243.435L343.773 227.717Z" fill="white"/>
</g>
<g opacity="0.1">
<path opacity="0.1" d="M343.773 227.717V228.591C343.782 229.022 343.678 229.448 343.471 229.826C343.265 230.204 342.962 230.521 342.594 230.745L319.524 244.746C319.15 244.956 318.728 245.066 318.299 245.066C317.87 245.066 317.449 244.956 317.075 244.746L273.618 220.951C273.242 220.74 272.928 220.436 272.705 220.067C272.482 219.698 272.359 219.278 272.347 218.848V218.258L318.274 243.435L343.773 227.717Z" fill="#103E13"/>
</g>
<path d="M272.337 218.258L297.45 203.018C297.673 202.891 297.925 202.824 298.182 202.824C298.438 202.824 298.691 202.891 298.913 203.018L343.63 227.524C343.679 227.553 343.719 227.594 343.747 227.643C343.775 227.692 343.789 227.747 343.789 227.804C343.789 227.86 343.775 227.915 343.747 227.964C343.719 228.013 343.679 228.054 343.63 228.083L318.274 243.476L272.337 218.258Z" fill="#4CAF4F"/>
<g opacity="0.85">
<path opacity="0.85" d="M272.337 218.258L297.45 203.018C297.673 202.891 297.925 202.824 298.182 202.824C298.438 202.824 298.691 202.891 298.913 203.018L343.63 227.524C343.679 227.553 343.719 227.594 343.747 227.643C343.775 227.692 343.789 227.747 343.789 227.804C343.789 227.86 343.775 227.915 343.747 227.964C343.719 228.013 343.679 228.054 343.63 228.083L318.274 243.476L272.337 218.258Z" fill="white"/>
</g>
<path d="M318.05 241.047L331.597 232.828L291.372 210.781L277.754 218.959L318.05 241.047Z" fill="#4CAF4F"/>
<g opacity="0.6">
<path opacity="0.6" d="M318.05 241.047L331.597 232.828L291.372 210.781L277.754 218.959L318.05 241.047Z" fill="white"/>
</g>
<path d="M324.717 219.112L324.463 219.264L317.827 223.298L305.712 216.653L305.458 216.521L312.349 212.335L324.717 219.112Z" fill="#4CAF4F"/>
<path d="M324.463 219.264L317.827 223.298L305.712 216.653L312.359 212.63L324.463 219.264Z" fill="#4CAF4F"/>
<g opacity="0.6">
<path opacity="0.6" d="M324.463 219.264L317.827 223.298L305.712 216.653L312.359 212.63L324.463 219.264Z" fill="white"/>
</g>
<path d="M318.264 243.435V245.061C317.835 245.075 317.41 244.973 317.034 244.766L273.618 220.951C273.242 220.74 272.928 220.436 272.705 220.067C272.482 219.698 272.359 219.278 272.347 218.848V218.258L318.264 243.435Z" fill="#4CAF4F"/>
<g opacity="0.03">
<path opacity="0.03" d="M318.264 243.435V245.061C317.835 245.075 317.41 244.973 317.034 244.766L273.618 220.951C273.242 220.74 272.928 220.436 272.705 220.067C272.482 219.698 272.359 219.278 272.347 218.848V218.258L318.264 243.435Z" fill="white"/>
</g>
<g opacity="0.2">
<path opacity="0.2" d="M318.264 243.435V245.061C317.835 245.075 317.41 244.973 317.034 244.766L273.618 220.951C273.242 220.74 272.928 220.436 272.705 220.067C272.482 219.698 272.359 219.278 272.347 218.848V218.258L318.264 243.435Z" fill="#103E13"/>
</g>
<path d="M317.583 243.811C317.181 243.979 316.746 244.053 316.311 244.029C315.876 244.004 315.453 243.881 315.072 243.669L271.819 219.955C271.44 219.745 271.113 219.454 270.86 219.103C270.607 218.752 270.434 218.349 270.355 217.923L265.071 190.146C265.056 189.987 265.056 189.827 265.071 189.668C265.061 189.284 265.128 188.902 265.267 188.545C265.407 188.187 265.616 187.861 265.884 187.585L310.784 212.233C311.062 212.383 311.303 212.593 311.49 212.848C311.676 213.103 311.803 213.396 311.861 213.707L317.583 243.811Z" fill="#4CAF4F"/>
<g opacity="0.4">
<path opacity="0.4" d="M317.583 243.811C317.181 243.979 316.746 244.053 316.311 244.029C315.876 244.004 315.453 243.881 315.072 243.669L271.819 219.955C271.44 219.745 271.113 219.454 270.86 219.103C270.607 218.752 270.434 218.349 270.355 217.923L265.071 190.146C265.056 189.987 265.056 189.827 265.071 189.668C265.061 189.284 265.128 188.902 265.267 188.545C265.407 188.187 265.616 187.861 265.884 187.585L310.784 212.233C311.062 212.383 311.303 212.593 311.49 212.848C311.676 213.103 311.803 213.396 311.861 213.707L317.583 243.811Z" fill="white"/>
</g>
<path d="M318.264 243.435L317.979 243.608C317.852 243.685 317.72 243.753 317.583 243.811L311.861 213.747C311.803 213.437 311.676 213.143 311.49 212.888C311.303 212.633 311.062 212.424 310.784 212.274L265.833 187.626C266.003 187.443 266.198 187.286 266.412 187.158L311.465 211.847C311.741 212.002 311.98 212.214 312.166 212.471C312.352 212.727 312.481 213.02 312.542 213.331L318.264 243.435Z" fill="#4CAF4F"/>
<g opacity="0.6">
<path opacity="0.6" d="M318.264 243.435L317.979 243.608C317.852 243.685 317.72 243.753 317.583 243.811L311.861 213.747C311.803 213.437 311.676 213.143 311.49 212.888C311.303 212.633 311.062 212.424 310.784 212.274L265.833 187.626C266.003 187.443 266.198 187.286 266.412 187.158L311.465 211.847C311.741 212.002 311.98 212.214 312.166 212.471C312.352 212.727 312.481 213.02 312.542 213.331L318.264 243.435Z" fill="white"/>
</g>
<path d="M311.444 212.833L312.115 212.427C312.327 212.69 312.474 213 312.542 213.331L318.264 243.435L317.979 243.608C317.852 243.685 317.72 243.753 317.583 243.811L311.861 213.747C311.797 213.414 311.654 213.1 311.444 212.833V212.833Z" fill="#4CAF4F"/>
<path opacity="0.5" d="M311.444 212.833L312.115 212.427C312.327 212.69 312.474 213 312.542 213.331L318.264 243.435L317.979 243.608C317.852 243.685 317.72 243.753 317.583 243.811L311.861 213.747C311.797 213.414 311.654 213.1 311.444 212.833V212.833Z" fill="white"/>
<path opacity="0.1" d="M311.444 212.833L312.115 212.427C312.327 212.69 312.474 213 312.542 213.331L318.264 243.435L317.979 243.608C317.852 243.685 317.72 243.753 317.583 243.811L311.861 213.747C311.797 213.414 311.654 213.1 311.444 212.833V212.833Z" fill="#103E13"/>
<path d="M292.958 218.604C292.235 216.287 290.649 214.337 288.527 213.158C286.443 212.02 285.031 212.589 285.386 214.459C285.742 216.328 287.724 218.746 289.818 219.894C291.911 221.042 293.314 220.463 292.958 218.604Z" fill="#455A64"/>
<path d="M344.616 225.259C342.197 226.955 338.935 225.584 335.724 225.97C332.512 226.356 329.768 227.148 327.187 227.077C324.605 227.006 323.345 227.524 325.154 229.587C326.963 231.649 332.136 230.461 333.539 231.091C333.938 231.324 334.279 231.645 334.536 232.029C334.793 232.414 334.959 232.852 335.022 233.31C335.085 233.768 335.042 234.234 334.898 234.674C334.753 235.113 334.511 235.514 334.189 235.845C332.675 237.603 342.807 234.21 344.159 232.127C345.511 230.044 346.445 225.523 344.616 225.259Z" fill="#E8F5E9"/>
</svg>
