<svg width="442" height="329" viewBox="0 0 442 329" fill="none" xmlns="http://www.w3.org/2000/svg">
<path d="M220.766 328.995C315.327 328.995 391.984 324.519 391.984 318.999C391.984 313.478 315.327 309.002 220.766 309.002C126.206 309.002 49.5488 313.478 49.5488 318.999C49.5488 324.519 126.206 328.995 220.766 328.995Z" fill="#F5F5F5"/>
<path d="M308.411 95.7508L299.651 92.2185C299.651 92.2185 288.091 113.297 284.78 114.366C280.276 115.814 270.951 119.841 265.423 120.547C264.672 121.43 263.445 124.177 263.56 125.175C270.986 127.656 287.305 124.362 290.802 121.766C298.759 115.876 308.411 95.7508 308.411 95.7508Z" fill="#E58A7B"/>
<path d="M311.104 90.9558C312.738 96.9871 303.889 109.12 303.889 109.12L292.295 102.621C292.295 102.621 294.467 97.6317 297.116 92.5541C301.364 84.3504 309.241 84.0767 311.104 90.9558Z" fill="#4CAF4F"/>
<path opacity="0.2" d="M311.104 90.9558C312.738 96.9871 303.889 109.12 303.889 109.12L292.295 102.621C292.295 102.621 294.467 97.6317 297.116 92.5541C301.364 84.3504 309.241 84.0767 311.104 90.9558Z" fill="black"/>
<path opacity="0.2" d="M296.896 105.217L301.461 107.778L302.265 93.7639C299.607 95.8038 297.734 101.95 296.896 105.217Z" fill="black"/>
<path d="M303.474 86.4168C303.474 86.4168 294.449 106.498 299.712 143.887H335.274C335.839 138.429 333.967 111.796 340.74 86.0812C336.839 85.3188 332.892 84.8144 328.924 84.5712C323.892 84.2796 318.847 84.2796 313.815 84.5712C310.327 84.9254 306.87 85.5424 303.474 86.4168Z" fill="#4CAF4F"/>
<path opacity="0.2" d="M303.474 86.4168C303.474 86.4168 294.449 106.498 299.712 143.887H335.274C335.839 138.429 333.967 111.796 340.74 86.0812C336.839 85.3188 332.892 84.8144 328.924 84.5712C323.892 84.2796 318.847 84.2796 313.815 84.5712C310.327 84.9254 306.87 85.5424 303.474 86.4168Z" fill="black"/>
<g style="mix-blend-mode:multiply">
<path d="M295.226 319.793C295.173 320.747 308.658 321.515 325.339 321.515C342.02 321.515 355.602 320.747 355.655 319.793C355.708 318.84 342.232 318.08 325.542 318.08C308.852 318.08 295.288 318.849 295.226 319.793Z" fill="#E8ECF1"/>
</g>
<path d="M318.964 294.734L312.657 297.176L318.09 311.211L324.397 308.77L318.964 294.734Z" fill="#E58A7B"/>
<path d="M347.089 313.003H340.439L338.002 297.611H344.652L347.089 313.003Z" fill="#E58A7B"/>
<path d="M339.98 312.234H347.451C347.581 312.235 347.706 312.281 347.804 312.365C347.903 312.449 347.969 312.566 347.99 312.694L348.952 318.601C348.972 318.75 348.961 318.9 348.917 319.044C348.874 319.187 348.801 319.319 348.702 319.431C348.603 319.544 348.481 319.633 348.344 319.694C348.208 319.755 348.06 319.786 347.91 319.785C345.305 319.74 344.051 319.581 340.766 319.581C338.744 319.581 334.585 319.793 331.777 319.793C328.968 319.793 328.783 317.038 329.94 316.782C335.132 315.661 337.146 314.133 338.876 312.649C339.182 312.381 339.574 312.234 339.98 312.234Z" fill="#263238"/>
<path d="M317.904 309.956L324.968 307.89C325.094 307.854 325.229 307.863 325.349 307.914C325.47 307.966 325.569 308.057 325.63 308.172L328.28 313.471C328.341 313.605 328.373 313.751 328.372 313.899C328.371 314.047 328.338 314.193 328.275 314.327C328.212 314.46 328.12 314.579 328.007 314.673C327.893 314.768 327.76 314.837 327.617 314.875C325.048 315.581 323.326 316.014 320.111 316.95C317.895 317.595 315.634 318.645 313.444 319.343C311.925 319.829 308.358 319.846 306.512 319.846C303.783 319.846 303.174 316.968 304.349 316.835C307.307 316.508 307.704 316.659 309.338 315.837C312.011 314.669 314.434 312.996 316.473 310.91C316.858 310.471 317.351 310.142 317.904 309.956Z" fill="#263238"/>
<path d="M266.536 120.512L259.224 117.448L256.213 125.554C259.21 126.011 262.258 126.011 265.255 125.554L266.536 120.512Z" fill="#E58A7B"/>
<path d="M253.784 117.236L253.59 122.622L256.213 125.537L259.224 117.43L253.784 117.236Z" fill="#E58A7B"/>
<path d="M319.829 295.926L313.502 298.369L316.304 305.627L322.631 303.184L319.829 295.926Z" fill="#CF6F64"/>
<path d="M344.652 297.611H338.002L339.265 305.55H345.914L344.652 297.611Z" fill="#CF6F64"/>
<path opacity="0.2" d="M298.582 133.776C298.715 135.374 298.865 137.008 299.059 138.685L325.498 130.102C329.627 128.878 333.215 126.284 335.671 122.746C335.777 120.388 335.909 117.907 336.112 115.32C336.201 114.066 336.307 112.776 336.422 111.469C336.536 110.162 336.695 108.714 336.863 107.319L298.582 133.776Z" fill="black"/>
<path d="M307.219 104.811L306.335 104.705C306.856 100.29 310.15 96.8105 313.621 96.8988V97.7819C310.583 97.7201 307.687 100.855 307.219 104.811Z" fill="white"/>
<path d="M311.925 112.962H311.775V112.079C314.813 112.193 317.665 109.023 318.133 105.076L319.016 105.182C318.548 109.5 315.36 112.962 311.925 112.962Z" fill="white"/>
<path d="M328.43 67.5545C327.185 72.4202 325.719 81.3303 328.924 84.5712C328.924 84.5712 326.681 89.5075 317.648 89.5075C309.391 89.5075 313.815 84.5712 313.815 84.5712C319.308 83.2819 319.405 79.2728 318.681 75.4756L328.43 67.5545Z" fill="#E58A7B"/>
<path d="M324.456 70.7865L318.69 75.4756C318.868 76.3482 318.972 77.2345 318.999 78.1248C320.685 79.8026 324.067 75.5551 324.412 73.3827C324.587 72.5275 324.602 71.6472 324.456 70.7865Z" fill="#CF6F64"/>
<path d="M308.773 67.4927C309.174 68.1881 309.714 68.7933 310.36 69.2704C311.006 69.7475 311.743 70.0863 312.526 70.2655C314.645 70.7335 315.705 68.782 315.122 66.8216C314.601 65.0554 312.861 62.68 310.707 63.0862C310.245 63.1813 309.813 63.3855 309.447 63.6819C309.08 63.9783 308.79 64.3582 308.601 64.7897C308.412 65.2212 308.328 65.6918 308.358 66.1621C308.388 66.6323 308.53 67.0886 308.773 67.4927Z" fill="#CF6F64"/>
<path d="M312.279 51.9242C308.976 53.4343 307.81 66.5566 311.961 68.4994C316.111 70.4421 318.531 49.0543 312.279 51.9242Z" fill="#263238"/>
<path d="M329.436 60.2339C328.642 66.8216 328.553 70.6982 325.021 74.0715C323.927 75.191 322.544 75.9861 321.026 76.3693C319.508 76.7524 317.914 76.7085 316.419 76.2426C314.924 75.7766 313.587 74.9067 312.556 73.7289C311.525 72.551 310.839 71.111 310.574 69.5679C309.506 63.6514 310.98 53.8758 317.586 51.2531C318.974 50.641 320.5 50.4112 322.006 50.5875C323.513 50.7639 324.945 51.34 326.154 52.2562C327.363 53.1723 328.305 54.3952 328.882 55.7979C329.459 57.2006 329.651 58.7322 329.436 60.2339Z" fill="#E58A7B"/>
<path d="M318.584 55.3329C323.476 54.0878 327.07 53.24 325.781 57.3109C324.076 62.7506 322.028 68.0137 324.774 68.2521C326.452 68.4022 333.869 65.2585 332.925 62.0707C332.103 59.2978 335.574 58.5384 336.192 57.1343C338.479 52.0479 331.936 52.719 333.101 49.6283C334.267 46.5375 327.803 41.5571 324.271 44.0385C318.522 48.0476 308.658 47.9858 313.842 41.3893C317.559 36.6825 310.927 37.6451 310.927 37.6451C310.927 37.6451 314.937 40.0205 308.19 43.6941C301.055 47.6149 307.598 58.1499 318.584 55.3329Z" fill="#263238"/>
<path d="M332.033 67.4927C331.067 68.8902 329.616 69.8785 327.962 70.2655C325.781 70.7335 324.942 68.782 325.763 66.8216C326.496 65.0554 328.509 62.68 330.593 63.0862C332.677 63.4924 333.154 65.7619 332.033 67.4927Z" fill="#E58A7B"/>
<path d="M299.712 143.887C299.712 143.887 293.743 197.312 293.275 217.587C292.798 238.675 313.506 304.472 313.506 304.472L324.103 300.057C324.103 300.057 311.74 239.938 313.506 219.23C315.378 196.65 323.114 143.922 323.114 143.922L299.712 143.887Z" fill="#4CAF4F"/>
<path opacity="0.2" d="M314.548 158.554C309.788 168.427 312.994 187.952 315.572 199.52C316.553 191.351 317.718 182.485 318.822 174.282C318.716 161.672 317.736 151.931 314.548 158.554Z" fill="black"/>
<path d="M323.635 296.56C323.688 296.56 324.889 299.933 324.889 299.933L312.667 305.073L310.742 301.487L323.635 296.56Z" fill="#4CAF4F"/>
<path d="M312.331 143.887C312.331 143.887 316.897 194.698 319.917 213.728C323.237 234.578 336.254 304.013 336.254 304.013H348.431C348.431 304.013 341.137 236.264 339.76 215.618C338.258 193.224 335.274 143.887 335.274 143.887H312.331Z" fill="#4CAF4F"/>
<path d="M348.617 300.843C348.67 300.843 349.023 304.243 349.023 304.243H335.636L334.682 300.339L348.617 300.843Z" fill="#4CAF4F"/>
<path opacity="0.2" d="M343.954 296.816C343.926 296.816 343.9 296.807 343.879 296.789C343.857 296.771 343.844 296.746 343.839 296.719C343.769 296.101 337.19 234.904 335.954 216.36C334.611 196.244 331.909 151.622 331.883 151.172C331.881 151.157 331.883 151.143 331.888 151.129C331.893 151.115 331.9 151.102 331.91 151.091C331.92 151.08 331.932 151.072 331.946 151.066C331.959 151.06 331.974 151.057 331.989 151.057C332.018 151.057 332.045 151.068 332.067 151.088C332.088 151.107 332.101 151.134 332.103 151.163C332.103 151.614 334.832 196.2 336.174 216.351C337.411 234.895 343.989 296.048 344.051 296.71C344.054 296.725 344.053 296.74 344.05 296.754C344.046 296.768 344.039 296.782 344.03 296.793C344.021 296.805 344.009 296.815 343.996 296.822C343.983 296.829 343.969 296.833 343.954 296.834V296.816Z" fill="black"/>
<path d="M319.334 62.0707C319.334 62.6093 318.999 63.042 318.645 63.042C318.292 63.042 318.036 62.6093 318.071 62.0707C318.107 61.532 318.407 61.0993 318.76 61.0993C319.113 61.0993 319.37 61.5408 319.334 62.0707Z" fill="#263238"/>
<path d="M313.276 62.0707C313.276 62.6093 312.932 63.042 312.588 63.042C312.243 63.042 311.978 62.6093 312.005 62.0707C312.031 61.532 312.349 61.0993 312.702 61.0993C313.056 61.0993 313.312 61.5408 313.276 62.0707Z" fill="#263238"/>
<path d="M315.184 62.3444C314.447 63.9893 313.497 65.5302 312.358 66.9275C313.241 67.8106 314.892 67.4044 314.892 67.4044L315.184 62.3444Z" fill="#DF5753"/>
<path d="M315.343 69.6562C315.322 69.6562 315.302 69.6521 315.283 69.644C315.264 69.6359 315.247 69.624 315.233 69.6092C315.219 69.5943 315.208 69.5767 315.201 69.5574C315.194 69.5382 315.191 69.5177 315.193 69.4973C315.195 69.4543 315.214 69.4139 315.245 69.3843C315.276 69.3547 315.317 69.3382 315.36 69.3383C316.036 69.343 316.704 69.1963 317.315 68.909C317.926 68.6217 318.465 68.2011 318.893 67.6781C318.923 67.6514 318.962 67.6367 319.003 67.6367C319.044 67.6367 319.083 67.6514 319.113 67.6781C319.142 67.7078 319.158 67.7473 319.158 67.7885C319.158 67.8297 319.142 67.8693 319.113 67.8989C318.656 68.4547 318.08 68.9011 317.427 69.2052C316.775 69.5092 316.063 69.6634 315.343 69.6562Z" fill="#263238"/>
<path d="M320.412 60.4458C320.369 60.4675 320.322 60.4788 320.275 60.4788C320.227 60.4788 320.18 60.4675 320.138 60.4458C319.807 60.2322 319.432 60.0994 319.04 60.058C318.649 60.0165 318.254 60.0677 317.886 60.2074C317.85 60.2253 317.811 60.2359 317.771 60.2384C317.731 60.241 317.691 60.2356 317.653 60.2224C317.615 60.2092 317.58 60.1886 317.551 60.1618C317.521 60.1349 317.497 60.1024 317.48 60.0661C317.447 59.9875 317.446 59.8992 317.478 59.82C317.509 59.7409 317.57 59.6771 317.648 59.6422C318.109 59.4536 318.61 59.3793 319.106 59.4254C319.603 59.4715 320.081 59.6368 320.5 59.9071C320.534 59.9301 320.563 59.9596 320.585 59.9939C320.607 60.0282 320.623 60.0666 320.63 60.1069C320.637 60.1471 320.637 60.1884 320.628 60.2284C320.619 60.2684 320.603 60.3063 320.579 60.3398C320.535 60.3905 320.476 60.4272 320.412 60.4458Z" fill="#263238"/>
<path d="M310.936 58.6797C310.889 58.6683 310.846 58.6438 310.813 58.6091C310.783 58.5803 310.76 58.5459 310.744 58.508C310.728 58.4701 310.72 58.4294 310.72 58.3883C310.72 58.3472 310.728 58.3065 310.744 58.2686C310.76 58.2306 310.783 58.1963 310.813 58.1675C311.151 57.7879 311.573 57.4916 312.044 57.3017C312.516 57.1117 313.025 57.0333 313.532 57.0725C313.573 57.0788 313.612 57.0933 313.647 57.1152C313.682 57.1372 313.711 57.166 313.735 57.1999C313.758 57.2339 313.774 57.2722 313.782 57.3126C313.789 57.3529 313.789 57.3945 313.78 57.4346C313.761 57.5163 313.713 57.5884 313.644 57.6372C313.576 57.6859 313.492 57.7081 313.409 57.6995C313.008 57.6742 312.606 57.7406 312.234 57.8936C311.862 58.0466 311.53 58.2822 311.263 58.5826C311.223 58.6273 311.171 58.66 311.113 58.6771C311.056 58.6943 310.994 58.6951 310.936 58.6797Z" fill="#263238"/>
<path d="M344.157 94.7706L334.973 92.3245C334.973 92.3245 325.966 114.498 322.778 115.938C318.451 117.916 307.492 124.768 302.83 128.009C302.574 129.113 302.777 132.036 303.36 132.84C311.307 131.391 326.522 125.537 329.701 122.561C336.951 115.77 344.157 94.7706 344.157 94.7706Z" fill="#E58A7B"/>
<path d="M337.746 313.4C337.298 313.435 336.851 313.314 336.483 313.056C336.37 312.953 336.285 312.822 336.237 312.677C336.189 312.531 336.179 312.376 336.21 312.225C336.215 312.132 336.246 312.041 336.299 311.963C336.352 311.886 336.425 311.824 336.51 311.784C337.252 311.404 339.327 312.72 339.565 312.87C339.591 312.886 339.612 312.911 339.623 312.939C339.634 312.968 339.635 312.999 339.627 313.029C339.62 313.06 339.604 313.088 339.583 313.111C339.561 313.135 339.534 313.152 339.503 313.162C338.928 313.303 338.339 313.383 337.746 313.4ZM336.863 312.022C336.796 312.008 336.727 312.008 336.66 312.022C336.626 312.04 336.598 312.066 336.579 312.099C336.56 312.132 336.552 312.17 336.554 312.208C336.53 312.311 336.534 312.418 336.565 312.518C336.596 312.619 336.653 312.71 336.731 312.782C337.075 313.091 337.94 313.126 339.08 312.905C338.401 312.459 337.637 312.158 336.837 312.022H336.863Z" fill="#4CAF4F"/>
<path d="M339.459 313.162C339.436 313.169 339.412 313.169 339.389 313.162C338.726 312.791 337.481 311.334 337.667 310.592C337.694 310.474 337.761 310.369 337.855 310.294C337.95 310.219 338.067 310.178 338.188 310.177C338.306 310.161 338.427 310.171 338.541 310.206C338.655 310.241 338.761 310.3 338.85 310.38C339.583 311.007 339.627 312.932 339.627 313.029C339.631 313.058 339.626 313.088 339.611 313.113C339.597 313.139 339.575 313.159 339.548 313.17C339.518 313.176 339.487 313.173 339.459 313.162ZM338.276 310.468H338.214C338.011 310.468 337.985 310.583 337.976 310.627C337.87 311.06 338.656 312.164 339.309 312.685C339.306 311.939 339.075 311.212 338.647 310.601C338.544 310.511 338.412 310.464 338.276 310.468Z" fill="#4CAF4F"/>
<path d="M314.301 312.296C313.76 312.485 313.172 312.485 312.632 312.296C312.509 312.23 312.405 312.133 312.329 312.016C312.254 311.899 312.209 311.764 312.199 311.625C312.188 311.538 312.199 311.449 312.231 311.367C312.264 311.285 312.317 311.213 312.384 311.157C313.091 310.521 315.979 311.157 316.305 311.281C316.336 311.289 316.364 311.307 316.383 311.333C316.402 311.358 316.412 311.39 316.411 311.422C316.413 311.455 316.404 311.488 316.387 311.516C316.369 311.544 316.344 311.567 316.314 311.581C315.664 311.874 314.99 312.114 314.301 312.296ZM312.861 311.245C312.76 311.266 312.666 311.311 312.588 311.378C312.559 311.399 312.538 311.427 312.525 311.46C312.513 311.493 312.51 311.529 312.517 311.563C312.523 311.656 312.552 311.746 312.601 311.824C312.65 311.903 312.719 311.968 312.799 312.014C313.268 312.261 314.354 312.067 315.758 311.475C314.812 311.236 313.833 311.159 312.861 311.245Z" fill="#4CAF4F"/>
<path d="M316.288 311.581H316.217C315.334 311.422 313.568 310.406 313.515 309.647C313.515 309.47 313.594 309.223 314.018 309.082C314.161 309.031 314.313 309.009 314.465 309.018C314.617 309.027 314.765 309.067 314.901 309.135C315.855 309.603 316.358 311.298 316.385 311.378C316.391 311.404 316.39 311.432 316.382 311.459C316.375 311.485 316.36 311.509 316.341 311.528C316.327 311.55 316.309 311.568 316.288 311.581ZM314.195 309.347H314.106C313.833 309.444 313.833 309.559 313.833 309.594C313.833 310.053 315.113 310.892 316.005 311.175C315.8 310.465 315.365 309.844 314.769 309.409C314.591 309.318 314.387 309.296 314.195 309.347Z" fill="#4CAF4F"/>
<path d="M303.58 127.488L294.37 131.727L293.301 134.376L296.701 136.663C296.701 136.663 303.059 135.974 304.87 131.886L303.58 127.488Z" fill="#E58A7B"/>
<path d="M303.969 132.99C303.763 131.22 303.179 129.515 302.256 127.992L303.713 126.897C304.809 128.652 305.508 130.626 305.762 132.681L303.969 132.99Z" fill="#263238"/>
<path d="M305.541 128.742C305.735 129.048 305.831 129.407 305.815 129.77C305.798 130.132 305.67 130.481 305.449 130.768C305.227 131.056 304.922 131.268 304.576 131.376C304.23 131.484 303.858 131.483 303.513 131.372C303.167 131.262 302.864 131.047 302.644 130.758C302.425 130.469 302.299 130.12 302.285 129.757C302.272 129.394 302.37 129.036 302.567 128.731C302.764 128.427 303.05 128.19 303.386 128.053C303.763 127.861 304.202 127.826 304.605 127.954C305.009 128.083 305.345 128.367 305.541 128.742Z" fill="#263238"/>
<path d="M288.144 135.153L289.372 136.389L297.637 132.857L294.37 131.727L288.144 135.153Z" fill="#E58A7B"/>
<path opacity="0.2" d="M323.635 296.56C323.688 296.56 324.889 299.933 324.889 299.933L312.667 305.073L310.742 301.487L323.635 296.56Z" fill="black"/>
<path opacity="0.2" d="M348.617 300.843C348.67 300.843 349.023 304.243 349.023 304.243H335.636L334.682 300.339L348.617 300.843Z" fill="black"/>
<path d="M346.55 92.2274C348.979 100.06 339.486 110.772 339.486 110.772L326.372 105.42C327.927 100.893 329.719 96.451 331.741 92.1126C335.768 83.432 344.095 84.3239 346.55 92.2274Z" fill="#4CAF4F"/>
<path opacity="0.2" d="M346.55 92.2274C348.979 100.06 339.486 110.772 339.486 110.772L326.372 105.42C327.927 100.893 329.719 96.451 331.741 92.1126C335.768 83.432 344.095 84.3239 346.55 92.2274Z" fill="black"/>
<path d="M216.245 13.7493H210.602V14.6589H216.245V13.7493Z" fill="#4CAF4F"/>
<path d="M289.291 49.7489L288.608 64.9045L289.516 64.9455L290.199 49.7898L289.291 49.7489Z" fill="#4CAF4F"/>
<path d="M287.535 17.8291H183.333L173.637 234.816H277.839L287.535 17.8291Z" fill="#4CAF4F"/>
<path opacity="0.56" d="M284.427 20.8138H180.225L170.529 237.801H274.731L284.427 20.8138Z" fill="#FAFAFA"/>
<path opacity="0.07" d="M281.318 23.7898H177.117L167.412 240.777H271.613L281.318 23.7898Z" fill="#4CAF4F"/>
<path d="M269.459 118.428H180.516L179.775 135.03H268.717L269.459 118.428Z" fill="white"/>
<path d="M229.429 106.312H181.055L180.728 113.739H229.103L229.429 106.312Z" fill="#4CAF4F"/>
<path d="M267.454 163.235H178.512L177.77 179.836H266.712L267.454 163.235Z" fill="white"/>
<path opacity="0.47" d="M251.144 202.257H191.334L190.442 222.153H250.252L251.144 202.257Z" fill="#4CAF4F"/>
<path d="M247.144 225.244H187.334C187.308 225.25 187.28 225.25 187.254 225.244C187.245 225.218 187.245 225.19 187.254 225.164L188.137 205.26C188.137 205.246 188.14 205.233 188.145 205.22C188.151 205.208 188.159 205.197 188.169 205.188C188.179 205.179 188.19 205.172 188.203 205.167C188.216 205.163 188.23 205.161 188.243 205.163H248.053C248.064 205.157 248.076 205.154 248.089 205.154C248.101 205.154 248.113 205.157 248.124 205.163C248.13 205.173 248.133 205.186 248.133 205.198C248.133 205.21 248.13 205.223 248.124 205.233L247.258 225.182C247.248 225.202 247.231 225.219 247.211 225.231C247.19 225.242 247.167 225.246 247.144 225.244ZM187.44 225.032H247.038L247.921 205.339H188.323L187.44 225.032Z" fill="white"/>
<path d="M218.983 151.119H179.05L178.724 158.554H218.647L218.983 151.119Z" fill="#4CAF4F"/>
<path d="M250.005 64.7993C249.776 69.6309 248.058 74.2734 245.086 78.0895C242.886 80.9719 240.054 83.312 236.809 84.93C233.564 86.548 229.991 87.401 226.365 87.4235C223.435 87.4458 220.531 86.868 217.832 85.7256C215.134 84.5832 212.698 82.9004 210.674 80.7809C208.651 78.6614 207.083 76.15 206.066 73.4015C205.05 70.6529 204.607 67.7255 204.765 64.7993C205.076 58.7274 207.694 53.0034 212.085 48.798C216.476 44.5927 222.308 42.2235 228.387 42.1752C231.32 42.1478 234.227 42.7221 236.929 43.8626C239.63 45.003 242.07 46.6853 244.096 48.8057C246.122 50.926 247.691 53.4392 248.708 56.1901C249.724 58.941 250.165 61.8711 250.005 64.7993Z" fill="white"/>
<path d="M252.133 46.9085C252.075 48.1932 251.618 49.4279 250.826 50.4407C250.24 51.2063 249.486 51.8278 248.623 52.2579C247.76 52.6879 246.81 52.9151 245.846 52.9221C244.911 52.9278 243.99 52.7046 243.162 52.2721C242.333 51.8395 241.624 51.2108 241.095 50.4407C240.394 49.4002 240.047 48.1616 240.106 46.9085C240.191 45.2963 240.888 43.7775 242.055 42.6617C243.221 41.5459 244.77 40.9171 246.384 40.9036C247.163 40.8965 247.935 41.0489 248.653 41.3515C249.37 41.6541 250.018 42.1005 250.557 42.663C251.096 43.2256 251.513 43.8925 251.784 44.6227C252.055 45.3528 252.174 46.1307 252.133 46.9085Z" fill="#4CAF4F"/>
<path d="M190.098 126.729C190.055 127.44 189.745 128.109 189.228 128.601C188.712 129.093 188.029 129.37 187.316 129.378C186.972 129.382 186.63 129.316 186.313 129.182C185.995 129.049 185.709 128.853 185.47 128.604C185.232 128.356 185.047 128.061 184.927 127.739C184.807 127.416 184.755 127.072 184.773 126.729C184.811 126.016 185.12 125.344 185.637 124.852C186.154 124.359 186.84 124.083 187.554 124.08C187.898 124.077 188.239 124.144 188.556 124.278C188.873 124.411 189.159 124.608 189.397 124.856C189.635 125.104 189.82 125.398 189.94 125.72C190.061 126.042 190.114 126.385 190.098 126.729Z" fill="#263238"/>
<path d="M202.001 126.729C201.961 127.441 201.651 128.111 201.134 128.603C200.618 129.095 199.933 129.372 199.22 129.378C198.876 129.381 198.536 129.313 198.219 129.18C197.903 129.046 197.617 128.849 197.38 128.601C197.143 128.353 196.958 128.059 196.839 127.737C196.719 127.415 196.667 127.072 196.685 126.729C196.723 126.017 197.032 125.347 197.547 124.855C198.062 124.362 198.746 124.085 199.458 124.08C199.802 124.075 200.144 124.142 200.461 124.275C200.778 124.408 201.065 124.605 201.304 124.853C201.542 125.101 201.727 125.396 201.847 125.719C201.967 126.041 202.019 126.385 202.001 126.729Z" fill="#263238"/>
<path d="M213.914 126.729C213.873 127.441 213.563 128.111 213.047 128.603C212.53 129.095 211.846 129.372 211.132 129.378C210.788 129.381 210.448 129.313 210.131 129.18C209.814 129.046 209.528 128.85 209.29 128.601C209.051 128.353 208.867 128.059 208.746 127.737C208.626 127.415 208.572 127.072 208.589 126.729C208.629 126.016 208.939 125.346 209.456 124.854C209.973 124.362 210.657 124.085 211.371 124.08C211.715 124.075 212.056 124.142 212.374 124.275C212.691 124.408 212.978 124.605 213.216 124.853C213.455 125.101 213.639 125.396 213.759 125.719C213.879 126.041 213.932 126.385 213.914 126.729Z" fill="#263238"/>
<path d="M188.093 171.536C188.051 172.247 187.74 172.916 187.224 173.408C186.708 173.899 186.024 174.177 185.311 174.185C184.968 174.188 184.627 174.12 184.31 173.987C183.993 173.853 183.707 173.656 183.469 173.408C183.231 173.16 183.046 172.866 182.925 172.544C182.805 172.222 182.751 171.879 182.768 171.536C182.808 170.823 183.118 170.153 183.635 169.661C184.152 169.169 184.836 168.892 185.55 168.886C185.894 168.883 186.234 168.951 186.551 169.084C186.868 169.218 187.154 169.415 187.392 169.663C187.63 169.911 187.815 170.205 187.936 170.527C188.056 170.849 188.11 171.192 188.093 171.536Z" fill="#263238"/>
<path d="M199.997 171.536C199.956 172.246 199.648 172.915 199.133 173.407C198.618 173.899 197.936 174.177 197.224 174.185C196.88 174.189 196.538 174.122 196.221 173.989C195.904 173.856 195.617 173.659 195.378 173.411C195.14 173.163 194.955 172.868 194.835 172.546C194.715 172.223 194.663 171.879 194.681 171.536C194.721 170.823 195.031 170.153 195.548 169.661C196.064 169.169 196.749 168.892 197.462 168.886C197.806 168.883 198.146 168.951 198.463 169.084C198.779 169.218 199.065 169.415 199.302 169.663C199.539 169.911 199.724 170.206 199.843 170.528C199.963 170.85 200.015 171.193 199.997 171.536Z" fill="#263238"/>
<path d="M211.936 171.536C211.895 172.248 211.585 172.918 211.069 173.41C210.552 173.902 209.868 174.179 209.154 174.185C208.811 174.186 208.47 174.118 208.154 173.984C207.838 173.85 207.552 173.653 207.314 173.406C207.077 173.158 206.892 172.864 206.771 172.543C206.65 172.221 206.595 171.879 206.611 171.536C206.653 170.824 206.964 170.155 207.48 169.663C207.996 169.172 208.68 168.894 209.393 168.886C209.737 168.882 210.078 168.949 210.395 169.082C210.713 169.215 211 169.412 211.238 169.66C211.476 169.908 211.661 170.203 211.781 170.525C211.901 170.848 211.954 171.192 211.936 171.536Z" fill="#263238"/>
<path d="M223.822 171.536C223.779 172.247 223.469 172.916 222.953 173.408C222.436 173.899 221.753 174.177 221.04 174.185C220.697 174.186 220.357 174.118 220.04 173.984C219.724 173.85 219.438 173.653 219.201 173.405C218.963 173.158 218.778 172.864 218.657 172.543C218.536 172.221 218.481 171.879 218.497 171.536C218.539 170.824 218.85 170.155 219.366 169.663C219.882 169.172 220.566 168.894 221.279 168.886C221.622 168.883 221.963 168.951 222.28 169.084C222.597 169.218 222.883 169.415 223.121 169.663C223.359 169.911 223.544 170.205 223.665 170.527C223.785 170.849 223.839 171.192 223.822 171.536Z" fill="#263238"/>
<path d="M235.779 171.536C235.736 172.247 235.426 172.916 234.909 173.408C234.393 173.899 233.71 174.177 232.997 174.185C232.653 174.189 232.311 174.122 231.994 173.989C231.677 173.856 231.39 173.659 231.151 173.411C230.913 173.163 230.728 172.868 230.608 172.546C230.488 172.223 230.436 171.879 230.454 171.536C230.494 170.823 230.804 170.153 231.321 169.661C231.837 169.169 232.522 168.892 233.235 168.886C233.579 168.883 233.92 168.951 234.237 169.084C234.554 169.218 234.84 169.415 235.078 169.663C235.316 169.911 235.501 170.205 235.621 170.527C235.742 170.849 235.795 171.192 235.779 171.536Z" fill="#263238"/>
<path d="M233.971 63.621C237.667 60.0066 237.864 54.2131 234.409 50.6809C230.955 47.1486 225.159 47.2153 221.463 50.8297C217.766 54.4442 217.57 60.2377 221.025 63.7699C224.479 67.3021 230.275 67.2355 233.971 63.621Z" fill="#4CAF4F"/>
<path d="M245.086 78.0895C242.886 80.9719 240.054 83.312 236.809 84.93C233.564 86.548 229.991 87.401 226.365 87.4235C222.849 87.4533 219.379 86.6175 216.262 84.9897C213.145 83.3619 210.477 80.9922 208.492 78.0895C212.784 73.8155 219.574 71.025 227.098 71.025C234.622 71.025 241.174 73.8155 245.086 78.0895Z" fill="#4CAF4F"/>
<path opacity="0.1" d="M233.971 63.621C237.667 60.0066 237.864 54.2131 234.409 50.6809C230.955 47.1486 225.159 47.2153 221.463 50.8297C217.766 54.4442 217.57 60.2377 221.025 63.7699C224.479 67.3021 230.275 67.2355 233.971 63.621Z" fill="white"/>
<path opacity="0.1" d="M245.086 78.0895C242.886 80.9719 240.054 83.312 236.809 84.93C233.564 86.548 229.991 87.401 226.365 87.4235C222.849 87.4533 219.379 86.6175 216.262 84.9897C213.145 83.3619 210.477 80.9922 208.492 78.0895C212.784 73.8155 219.574 71.025 227.098 71.025C234.622 71.025 241.174 73.8155 245.086 78.0895Z" fill="white"/>
<path d="M128.161 139.03C127.322 140.867 126.439 142.889 125.67 144.849C124.902 146.81 124.116 148.832 123.436 150.845C122.048 154.813 120.99 158.889 120.275 163.032L120.081 164.33C120.062 164.552 120.083 164.777 120.142 164.992C120.351 165.724 120.679 166.416 121.114 167.041C122.248 168.657 123.563 170.139 125.035 171.456C126.586 172.899 128.213 174.258 129.909 175.527C131.605 176.834 133.388 178.106 135.146 179.306L133.494 182.406C129.298 180.578 125.315 178.295 121.617 175.598C119.644 174.159 117.863 172.473 116.319 170.582C115.403 169.456 114.689 168.18 114.208 166.811C113.929 165.956 113.786 165.062 113.784 164.162C113.784 163.95 113.784 163.641 113.784 163.491V163.058L113.873 162.175C114.379 157.574 115.346 153.036 116.76 148.629C117.449 146.456 118.182 144.293 119.021 142.182C119.86 140.072 120.725 138.006 121.794 135.86L128.161 139.03Z" fill="#E58A7B"/>
<path d="M133.901 178.759L140.144 175.598L138.528 182.45C138.528 182.45 134.245 183.651 132.258 181.567L133.901 178.759Z" fill="#E58A7B"/>
<path d="M145.857 176.719L144.197 182.388L138.528 182.45L140.144 175.598L145.857 176.719Z" fill="#E58A7B"/>
<path d="M154.67 105.968C155.004 107.192 155.469 108.376 156.057 109.5C155.885 109.695 155.664 109.84 155.417 109.919C155.169 109.998 154.905 110.009 154.653 109.951L154.67 105.968Z" fill="#DF5753"/>
<path d="M154.485 106.021C154.851 106.021 155.147 105.566 155.147 105.005C155.147 104.444 154.851 103.99 154.485 103.99C154.119 103.99 153.823 104.444 153.823 105.005C153.823 105.566 154.119 106.021 154.485 106.021Z" fill="#263238"/>
<path d="M154.291 104.025L155.633 103.645C155.633 103.645 154.979 104.687 154.291 104.025Z" fill="#263238"/>
<path d="M137.424 112.45C138.228 116.556 139.031 124.088 136.152 126.835C136.152 126.835 137.283 131.003 144.921 131.003C153.319 131.003 148.93 126.835 148.93 126.835C144.347 125.74 144.462 122.34 145.266 119.143L137.424 112.45Z" fill="#E58A7B"/>
<path d="M135.19 103.089C135.614 109.951 135.649 112.865 139.111 116.388C144.33 121.686 152.666 119.673 154.299 112.856C155.774 106.674 154.838 96.5014 148.118 93.7728C146.643 93.1651 145.037 92.9438 143.453 93.1297C141.868 93.3157 140.357 93.9028 139.063 94.8355C137.769 95.7682 136.734 97.0157 136.056 98.46C135.378 99.9042 135.08 101.498 135.19 103.089Z" fill="#E58A7B"/>
<path d="M135.87 95.3711C132.426 96.625 127.834 95.689 129.635 106.312C131.543 117.563 128.611 121.263 128.611 121.263C128.611 121.263 141.672 124.044 155.006 121.095C155.006 121.095 150.935 113.977 152.074 108.732C153.531 102.109 152.383 99.6628 152.383 99.6628C152.383 99.6628 140.709 93.605 135.87 95.3711Z" fill="#263238"/>
<path d="M150.44 106.666C150.444 107.97 150.818 109.247 151.518 110.348C152.454 111.778 153.558 111.231 153.831 109.712C154.079 108.379 153.893 106.021 152.701 105.102C151.509 104.184 150.458 105.085 150.44 106.666Z" fill="#E58A7B"/>
<path d="M132.876 96.5279C131.887 93.7462 136.603 89.4634 146.581 91.2295C156.56 92.9956 156.993 101.305 156.993 101.305L154.979 98.9033L155.068 101.429L144.815 103.398L132.876 96.5279Z" fill="#263238"/>
<path d="M133.724 127.303C133.665 126.9 133.766 126.489 134.005 126.159C134.244 125.829 134.603 125.606 135.004 125.537C138.113 125.024 145.177 123.982 148.727 124.477C151.376 124.848 152.065 126.384 152.18 127.647C152.198 127.868 152.168 128.091 152.093 128.299C152.018 128.508 151.899 128.698 151.744 128.857C151.59 129.016 151.403 129.14 151.196 129.221C150.989 129.302 150.768 129.337 150.546 129.325L135.199 128.636C134.837 128.618 134.492 128.475 134.224 128.232C133.955 127.989 133.778 127.661 133.724 127.303Z" fill="#4CAF4F"/>
<path opacity="0.6" d="M133.724 127.303C133.665 126.9 133.766 126.489 134.005 126.159C134.244 125.829 134.603 125.606 135.004 125.537C138.113 125.024 145.177 123.982 148.727 124.477C151.376 124.848 152.065 126.384 152.18 127.647C152.198 127.868 152.168 128.091 152.093 128.299C152.018 128.508 151.899 128.698 151.744 128.857C151.59 129.016 151.403 129.14 151.196 129.221C150.989 129.302 150.768 129.337 150.546 129.325L135.199 128.636C134.837 128.618 134.492 128.475 134.224 128.232C133.955 127.989 133.778 127.661 133.724 127.303Z" fill="black"/>
<path d="M142.599 281.574L148.295 285.53L157.823 272.611L152.127 268.664L142.599 281.574Z" fill="#E58A7B"/>
<path d="M129.317 281.318L135.331 284.745L143.764 271.084L137.751 267.657L129.317 281.318Z" fill="#E58A7B"/>
<path d="M157.814 272.611L152.904 279.27L147.208 275.322L152.118 268.664L157.814 272.611Z" fill="#CF6F64"/>
<path d="M137.742 267.657L143.764 271.092L139.42 278.13L133.397 274.695L137.742 267.657Z" fill="#CF6F64"/>
<path d="M147.403 170.432C147.403 170.432 169.638 198.451 165.461 225.252C162.097 246.896 142.581 276.205 142.581 276.205L133.406 271.649C139.873 258.69 145.392 245.279 149.919 231.522C151.315 227.251 151.723 222.719 151.111 218.267C150.499 213.815 148.884 209.561 146.387 205.825C135.119 189.373 117.069 199.167 129.211 170.432H147.403Z" fill="#4CAF4F"/>
<path opacity="0.6" d="M147.403 170.432C147.403 170.432 169.638 198.451 165.461 225.252C162.097 246.896 142.581 276.205 142.581 276.205L133.406 271.649C139.873 258.69 145.392 245.279 149.919 231.522C151.315 227.251 151.723 222.719 151.111 218.267C150.499 213.815 148.884 209.561 146.387 205.825C135.119 189.373 117.069 199.167 129.211 170.432H147.403Z" fill="black"/>
<path opacity="0.4" d="M158.309 188.429L155.076 185.214C155.076 185.47 161.337 224.122 163.095 234.984C164.132 231.811 164.926 228.564 165.47 225.27C167.537 212.121 163.218 198.69 158.309 188.429Z" fill="black"/>
<path d="M157.328 170.432C157.328 170.432 184.103 205.648 184.862 226.762C185.489 244.424 155.721 278.643 155.721 278.643L147.067 273.044C147.067 273.044 164.49 248.742 168.879 228.891C167.183 209.216 131.331 170.432 131.331 170.432H157.328Z" fill="#4CAF4F"/>
<path opacity="0.6" d="M157.328 170.432C157.328 170.432 184.103 205.648 184.862 226.762C185.489 244.424 155.721 278.643 155.721 278.643L147.067 273.044C147.067 273.044 164.49 248.742 168.879 228.891C167.183 209.216 131.331 170.432 131.331 170.432H157.328Z" fill="black"/>
<path d="M124.204 128.407C121.343 129.087 118.597 139.489 118.597 139.489L129.785 146.96C129.785 146.96 133.512 138.73 132.205 135.127C130.854 131.374 127.799 127.55 124.204 128.407Z" fill="#4CAF4F"/>
<path opacity="0.2" d="M126.394 135.109L125.617 144.178L129.777 146.969C130.925 144.383 131.775 141.675 132.311 138.897L126.394 135.109Z" fill="black"/>
<path d="M160.64 128.61C160.64 128.61 163.942 129.766 157.328 170.423H129.194C129.671 158.943 129.679 151.878 124.204 128.407C128.144 127.595 132.137 127.069 136.152 126.835C140.406 126.53 144.676 126.53 148.93 126.835C154.423 127.338 160.64 128.61 160.64 128.61Z" fill="#4CAF4F"/>
<path d="M163.501 135.109C164.137 136.875 164.808 138.774 165.514 140.602C166.221 142.43 166.892 144.311 167.607 146.165L169.771 151.711L170.318 153.097L170.601 153.786L170.733 154.13C170.733 154.192 170.733 154.192 170.733 154.183C170.572 153.956 170.36 153.768 170.115 153.636C169.766 153.43 169.372 153.312 168.967 153.291C168.631 153.281 168.296 153.344 167.987 153.477C167.581 153.662 167.581 153.742 167.589 153.733C167.663 153.674 167.728 153.606 167.784 153.53C168.273 152.888 168.696 152.199 169.047 151.472C169.462 150.66 169.859 149.794 170.256 148.92C171.033 147.154 171.749 145.326 172.464 143.48C173.179 141.635 173.859 139.772 174.522 137.891L176.535 132.257L179.935 133.14C179.264 137.167 178.398 141.087 177.356 145.079C176.853 147.066 176.261 149.035 175.59 151.022C175.254 152.02 174.884 153.009 174.46 154.024C174.018 155.126 173.474 156.185 172.835 157.186C172.6 157.523 172.34 157.841 172.058 158.139C171.607 158.626 171.06 159.014 170.451 159.279C169.91 159.51 169.325 159.619 168.737 159.596C168.079 159.572 167.438 159.38 166.874 159.04C166.209 158.625 165.657 158.052 165.267 157.371C165.135 157.142 165.02 156.912 164.94 156.744L164.772 156.409L164.437 155.72L163.766 154.351C162.883 152.514 162 150.66 161.231 148.797C160.463 146.933 159.651 145.044 158.891 143.145C158.132 141.246 157.452 139.348 156.807 137.299L163.501 135.109Z" fill="#E58A7B"/>
<path d="M160.64 128.61C164.022 129.413 167.828 139.41 167.828 139.41L157.77 147.966C157.77 147.966 151.262 137.069 152.577 133.475C153.946 129.731 156.224 127.559 160.64 128.61Z" fill="#4CAF4F"/>
<path d="M178.133 129.095L181.666 126.146L184.121 129.97L182.31 133.157C182.31 133.157 179.431 135.807 176.888 134.456C176.485 133.548 176.388 132.534 176.612 131.567C176.837 130.6 177.371 129.732 178.133 129.095Z" fill="#E58A7B"/>
<path d="M188.041 126.155L187.776 127.117L182.187 128.053L181.639 126.146L188.041 126.155Z" fill="#E58A7B"/>
<path d="M156.41 279.093L146.325 272.576L148.136 269.432L159.465 276.4L156.41 279.093Z" fill="#4CAF4F"/>
<path d="M139.278 284.285C138.394 284.177 137.543 283.876 136.788 283.402C136.757 283.391 136.73 283.371 136.711 283.344C136.692 283.317 136.681 283.285 136.681 283.252C136.681 283.219 136.692 283.187 136.711 283.16C136.73 283.133 136.757 283.113 136.788 283.102C137.062 283.014 139.437 282.281 140.126 282.846C140.204 282.91 140.262 282.994 140.297 283.089C140.331 283.184 140.339 283.286 140.32 283.385C140.308 283.544 140.255 283.697 140.167 283.83C140.079 283.963 139.959 284.071 139.817 284.144C139.652 284.234 139.467 284.283 139.278 284.285ZM137.292 283.314C138.395 283.879 139.278 284.082 139.702 283.87C139.795 283.819 139.872 283.745 139.928 283.656C139.984 283.566 140.015 283.464 140.02 283.358C140.02 283.217 140.02 283.155 139.941 283.12C139.57 282.819 138.245 283.049 137.274 283.314H137.292Z" fill="#263238"/>
<path d="M136.85 283.464C136.803 283.463 136.759 283.444 136.726 283.411C136.713 283.387 136.706 283.359 136.706 283.332C136.706 283.304 136.713 283.277 136.726 283.252C136.726 283.173 137.3 281.256 138.201 280.824C138.316 280.771 138.441 280.744 138.568 280.744C138.694 280.744 138.819 280.771 138.934 280.824C139.058 280.863 139.165 280.942 139.239 281.05C139.313 281.157 139.348 281.286 139.34 281.415C139.278 282.21 137.662 283.305 136.921 283.491L136.85 283.464ZM138.563 281.053C138.477 281.056 138.393 281.077 138.316 281.115C137.768 281.38 137.318 282.413 137.097 283.04C137.874 282.713 138.943 281.848 138.978 281.362C138.978 281.283 138.978 281.186 138.775 281.097C138.709 281.062 138.637 281.038 138.563 281.027V281.053Z" fill="#263238"/>
<path d="M151.88 288.1C150.882 288.1 149.495 286.82 148.736 286.034C148.717 286.007 148.706 285.974 148.706 285.941C148.706 285.908 148.717 285.875 148.736 285.848C148.753 285.82 148.778 285.797 148.808 285.781C148.837 285.766 148.87 285.758 148.904 285.76C149.257 285.76 152.321 286.219 152.754 287.085C152.8 287.162 152.824 287.251 152.824 287.341C152.824 287.431 152.8 287.519 152.754 287.597C152.689 287.732 152.591 287.848 152.469 287.934C152.347 288.021 152.205 288.075 152.056 288.091L151.88 288.1ZM149.319 286.157C150.431 287.235 151.412 287.835 151.968 287.765C152.065 287.752 152.158 287.715 152.238 287.658C152.318 287.602 152.383 287.526 152.427 287.438C152.447 287.408 152.458 287.372 152.458 287.336C152.458 287.3 152.447 287.265 152.427 287.235C152.198 286.758 150.564 286.352 149.319 286.157Z" fill="#263238"/>
<path d="M149.416 286.113C149.218 286.119 149.02 286.104 148.824 286.069C148.797 286.065 148.771 286.054 148.75 286.037C148.728 286.02 148.711 285.997 148.701 285.972C148.688 285.946 148.681 285.917 148.681 285.888C148.681 285.859 148.688 285.83 148.701 285.804C148.754 285.742 149.946 284.303 151.076 284.206C151.396 284.181 151.713 284.282 151.959 284.488C152.304 284.789 152.286 285.054 152.198 285.221C151.977 285.822 150.449 286.113 149.416 286.113ZM149.186 285.787C150.175 285.84 151.756 285.513 151.959 285.08C151.959 285.08 152.03 284.939 151.8 284.745C151.709 284.665 151.602 284.605 151.487 284.569C151.371 284.532 151.25 284.52 151.129 284.533C150.368 284.745 149.69 285.186 149.186 285.795V285.787Z" fill="#263238"/>
<path d="M137.088 282.51L129.6 280.391C129.471 280.352 129.332 280.362 129.21 280.419C129.088 280.476 128.991 280.576 128.938 280.7L126.412 286.378C126.353 286.524 126.325 286.68 126.33 286.837C126.336 286.994 126.374 287.148 126.444 287.289C126.513 287.43 126.611 287.555 126.732 287.655C126.853 287.755 126.994 287.829 127.145 287.871C129.794 288.559 131.066 288.754 134.36 289.699C136.391 290.264 139.287 291.315 142.087 292.109C144.886 292.904 145.822 290.175 144.736 289.593C139.826 286.996 139.437 285.177 138.095 283.234C137.855 282.883 137.498 282.626 137.088 282.51Z" fill="#4CAF4F"/>
<path d="M148.939 285.001L142.546 280.585C142.437 280.506 142.304 280.47 142.17 280.483C142.037 280.496 141.913 280.558 141.822 280.656L137.583 285.213C137.48 285.33 137.403 285.469 137.357 285.619C137.311 285.768 137.298 285.926 137.318 286.082C137.338 286.237 137.391 286.386 137.473 286.52C137.555 286.653 137.665 286.767 137.795 286.855C140.047 288.365 141.212 288.974 144.029 290.926C145.795 292.127 149.213 294.794 151.597 296.454C153.981 298.114 155.756 295.836 154.909 294.935C151.111 290.882 150.281 288.339 149.654 286.034C149.546 285.616 149.292 285.25 148.939 285.001Z" fill="#4CAF4F"/>
<path d="M143.756 276.788L132.232 271.057L133.424 267.931L145.734 273.971L143.756 276.788Z" fill="#4CAF4F"/>
<path d="M128.77 168.771L127.799 171.315C127.701 171.509 127.931 171.712 128.258 171.712H157.47C157.726 171.712 157.938 171.588 157.955 171.43L158.202 168.904C158.202 168.736 157.999 168.586 157.726 168.586H129.229C129.143 168.578 129.057 168.591 128.977 168.623C128.897 168.655 128.826 168.706 128.77 168.771Z" fill="#4CAF4F"/>
<path opacity="0.4" d="M128.77 168.771L127.799 171.315C127.701 171.509 127.931 171.712 128.258 171.712H157.47C157.726 171.712 157.938 171.588 157.955 171.43L158.202 168.904C158.202 168.736 157.999 168.586 157.726 168.586H129.229C129.143 168.578 129.057 168.591 128.977 168.623C128.897 168.655 128.826 168.706 128.77 168.771Z" fill="white"/>
<path d="M133.371 171.959H132.602C132.452 171.959 132.338 171.88 132.346 171.783L132.708 168.507C132.708 168.418 132.85 168.339 133 168.339H133.768C133.918 168.339 134.033 168.418 134.024 168.507L133.662 171.783C133.653 171.88 133.521 171.959 133.371 171.959Z" fill="#4CAF4F"/>
<path d="M151.385 171.959H150.626C150.476 171.959 150.361 171.88 150.37 171.783L150.723 168.507C150.723 168.418 150.873 168.339 151.023 168.339H151.783C151.933 168.339 152.056 168.418 152.039 168.507L151.686 171.783C151.641 171.88 151.544 171.959 151.385 171.959Z" fill="#4CAF4F"/>
<g style="mix-blend-mode:multiply">
<path d="M132.7 321.507C145.765 321.507 156.357 320.74 156.357 319.793C156.357 318.847 145.765 318.08 132.7 318.08C119.634 318.08 109.042 318.847 109.042 319.793C109.042 320.74 119.634 321.507 132.7 321.507Z" fill="#F5F5F5"/>
</g>
<path d="M147.111 317.374C142.925 316.155 138.281 314.592 135.472 312.958C135.393 312.905 135.305 312.879 135.225 312.835V293.884H143.694C144.337 293.846 144.941 293.564 145.382 293.095C145.824 292.627 146.07 292.007 146.07 291.363C146.07 290.719 145.824 290.099 145.382 289.631C144.941 289.162 144.337 288.88 143.694 288.842H135.269V202.46H130.183V288.842H121.767C121.424 288.822 121.079 288.872 120.756 288.989C120.432 289.107 120.136 289.289 119.886 289.525C119.635 289.761 119.436 290.046 119.299 290.362C119.163 290.678 119.092 291.019 119.092 291.363C119.092 291.707 119.163 292.048 119.299 292.364C119.436 292.68 119.635 292.965 119.886 293.201C120.136 293.437 120.432 293.619 120.756 293.737C121.079 293.854 121.424 293.905 121.767 293.884H130.183V312.808C130.103 312.808 130.024 312.879 129.944 312.932C127.092 314.592 122.482 316.155 118.297 317.347C118.014 317.433 117.771 317.617 117.612 317.866C117.453 318.115 117.389 318.412 117.431 318.705C117.472 318.997 117.617 319.265 117.839 319.46C118.061 319.655 118.346 319.764 118.641 319.767H146.767C147.049 319.748 147.316 319.632 147.524 319.44C147.731 319.247 147.866 318.99 147.906 318.71C147.947 318.43 147.89 318.144 147.745 317.901C147.6 317.658 147.377 317.472 147.111 317.374Z" fill="#E0E0E0"/>
<path d="M148.409 193.665H117.008C114.481 193.665 112.433 195.713 112.433 198.239V207.573C112.433 210.1 114.481 212.148 117.008 212.148H148.409C150.936 212.148 152.984 210.1 152.984 207.573V198.239C152.984 195.713 150.936 193.665 148.409 193.665Z" fill="#4CAF4F"/>
<path d="M116.716 212.156V213.764C116.716 215.088 118.155 216.166 119.922 216.166H145.531C147.297 216.166 148.736 215.088 148.736 213.764V212.156H116.716Z" fill="#4CAF4F"/>
<path opacity="0.3" d="M116.716 212.156V213.764C116.716 215.088 118.155 216.166 119.922 216.166H145.531C147.297 216.166 148.736 215.088 148.736 213.764V212.156H116.716Z" fill="white"/>
</svg>
