<svg width="442" height="433" viewBox="0 0 442 433" fill="none" xmlns="http://www.w3.org/2000/svg">
<path d="M135.878 428.18V419.343L120.034 419.229L119.899 432.593L120.881 432.665C125.253 432.944 143.123 433.358 146.058 432.448C149.324 431.435 135.878 428.18 135.878 428.18Z" fill="#4CAF4F"/>
<path d="M146.43 431.621C146.43 431.766 140.498 431.89 133.191 431.89C125.883 431.89 119.951 431.766 119.951 431.621C119.951 431.477 125.883 431.353 133.191 431.353C140.498 431.353 146.43 431.477 146.43 431.621Z" fill="#263238"/>
<path d="M136.157 429.988C136.022 429.916 136.157 429.451 136.477 428.955C136.798 428.459 137.232 428.252 137.335 428.355C137.438 428.459 137.221 428.851 136.911 429.275C136.601 429.699 136.291 430.061 136.157 429.988Z" fill="#263238"/>
<path d="M137.17 430.567C137.025 430.567 137.097 429.988 137.407 429.441C137.717 428.893 138.131 428.562 138.244 428.645C138.358 428.727 138.172 429.192 137.883 429.678C137.593 430.164 137.304 430.619 137.17 430.567Z" fill="#263238"/>
<path d="M124.726 431.58C124.664 431.58 124.426 431.394 124.085 431.001C123.669 430.496 123.205 430.033 122.7 429.616C122.204 429.22 121.612 428.96 120.985 428.862C120.499 428.8 120.189 428.862 120.158 428.8C120.127 428.738 120.426 428.521 120.995 428.479C121.745 428.464 122.477 428.712 123.062 429.182C123.61 429.629 124.072 430.172 124.426 430.784C124.664 431.239 124.788 431.539 124.726 431.58Z" fill="#263238"/>
<path d="M136.208 428.324C136.281 428.448 136.012 428.758 135.557 428.924C135.103 429.089 134.699 429.027 134.679 428.924C134.658 428.82 134.979 428.603 135.371 428.459C135.764 428.314 136.126 428.2 136.208 428.324Z" fill="#263238"/>
<path d="M135.96 427.467C135.96 427.622 135.547 427.746 135.009 427.756C134.472 427.766 134.048 427.642 134.059 427.498C134.069 427.353 134.493 427.218 135.009 427.208C135.526 427.198 135.94 427.322 135.96 427.467Z" fill="#263238"/>
<path d="M174.893 428.18V419.343L159.049 419.229L158.915 432.458L159.897 432.531C164.269 432.81 182.149 433.358 185.074 432.448C188.339 431.435 174.893 428.18 174.893 428.18Z" fill="#4CAF4F"/>
<path d="M185.446 431.642C185.446 431.787 179.523 431.911 172.206 431.911C164.889 431.911 158.977 431.787 158.977 431.642C158.977 431.497 164.899 431.373 172.206 431.373C179.513 431.373 185.446 431.497 185.446 431.642Z" fill="#263238"/>
<path d="M175.172 429.988C175.048 429.916 175.172 429.451 175.493 428.955C175.813 428.459 176.247 428.252 176.351 428.355C176.454 428.459 176.237 428.851 175.927 429.275C175.617 429.699 175.307 430.061 175.172 429.988Z" fill="#263238"/>
<path d="M176.185 430.567C176.051 430.567 176.113 429.988 176.433 429.441C176.754 428.893 177.157 428.562 177.27 428.645C177.384 428.727 177.188 429.192 176.898 429.678C176.609 430.164 176.33 430.619 176.185 430.567Z" fill="#263238"/>
<path d="M163.742 431.58C163.68 431.58 163.452 431.394 163.101 431.001C162.684 430.496 162.221 430.033 161.716 429.616C161.219 429.22 160.628 428.96 160 428.862C159.525 428.8 159.204 428.862 159.173 428.8C159.142 428.738 159.442 428.521 160.011 428.479C160.761 428.464 161.493 428.712 162.078 429.182C162.629 429.626 163.091 430.169 163.442 430.784C163.68 431.239 163.804 431.539 163.742 431.58Z" fill="#263238"/>
<path d="M175.224 428.324C175.296 428.448 175.028 428.758 174.573 428.924C174.118 429.089 173.715 429.027 173.694 428.924C173.674 428.82 173.994 428.603 174.387 428.459C174.78 428.314 175.141 428.2 175.224 428.324Z" fill="#263238"/>
<path d="M174.997 427.467C174.997 427.622 174.583 427.746 174.046 427.756C173.508 427.766 173.095 427.642 173.105 427.498C173.116 427.353 173.529 427.218 174.046 427.208C174.563 427.198 174.997 427.322 174.997 427.467Z" fill="#263238"/>
<path d="M233.267 165.767C232.853 165.344 231.83 165.55 231.83 165.55C231.933 164.955 231.933 164.347 231.83 163.752C231.644 163.173 230.342 163.287 230.342 163.287C230.282 162.799 230.282 162.307 230.342 161.819C230.352 161.711 230.329 161.603 230.276 161.508C230.222 161.414 230.14 161.338 230.042 161.292C229.426 161.041 228.764 160.921 228.099 160.941C227.303 160.372 230.528 155.856 231.727 154.409C232.926 152.962 232.709 151.835 231.644 151.835C230.91 151.835 227.148 156.176 225.991 157.633C224.833 159.091 221.764 163.142 221.66 159.907C221.557 156.672 220.255 154.233 219.438 153.82C218.622 153.406 217.754 154.378 218.198 155.277C218.589 156.299 218.832 157.37 218.922 158.46C219.034 159.329 218.995 160.21 218.808 161.065C218.465 162.656 217.999 164.218 217.413 165.736H217.33C217.33 165.736 194.778 187.368 193.145 188.908C191.688 190.293 162.377 187.265 156.497 186.645C154.498 186.352 152.48 186.214 150.461 186.231C147.908 186.345 147.453 186.707 144.911 186.738C138.49 186.809 132.084 187.372 125.749 188.422C122.881 188.91 120.201 190.176 118.003 192.082C115.805 193.989 114.173 196.462 113.285 199.233C107.363 217.733 93.9475 261.524 91.5807 286.121C89.7923 289.365 88.1777 292.701 86.7438 296.116C85.0799 300.643 85.4829 300.798 86.041 300.901C87.55 301.18 89.2656 293.056 89.9064 295.02C90.5472 296.984 86.6508 304.704 88.2321 304.932C90.2992 305.221 91.9425 296.663 92.1389 295.981C92.3352 295.299 93.3584 295.516 93.1724 296.157C92.8727 297.067 89.9684 306.709 91.9942 307.019C93.1104 307.185 93.2344 305.149 93.2344 305.149C93.2344 305.149 95.3014 295.919 96.242 296.105C97.1825 296.291 96.1799 301.738 95.7045 303.557C95.2291 305.376 95.8905 306.296 96.8621 305.851C97.5235 305.541 99.1048 300.012 99.5389 298.214C99.973 296.415 101.058 291.434 102.515 294.317C103.973 297.201 106.184 298.875 107.094 298.917C107.299 298.893 107.492 298.808 107.649 298.674C107.805 298.54 107.918 298.362 107.972 298.163C108.027 297.964 108.021 297.753 107.954 297.558C107.888 297.362 107.765 297.191 107.6 297.067C106.818 296.303 106.147 295.433 105.606 294.483C105.124 293.743 104.774 292.924 104.572 292.064C104.156 290.35 103.913 288.598 103.849 286.835L103.683 285.801C105.998 274.339 112.665 240.698 122.287 219.211L126.235 227.334L127.951 233.35L117.429 259.322L162.305 258.733L155.608 232.957L163.742 206.085C172.537 206.282 195.119 206.612 198.881 204.907C203.615 202.84 228.099 171.917 228.099 171.917C229.695 170.677 231.224 169.352 232.678 167.948C232.678 167.948 234.166 166.697 233.267 165.767Z" fill="#FFBE9D"/>
<path d="M115.455 240.13C116.757 235.685 123.444 213.713 123.444 213.713C123.444 213.713 126.731 231.624 125.863 233.784C125.064 235.633 124.121 237.416 123.041 239.117C115.455 250.661 116.447 256.439 116.447 256.439L162.284 255.043C162.388 248.635 158.595 233.732 157.809 231.355C157.024 228.978 159.638 221.195 159.638 221.195C159.638 221.195 164.806 215.935 164.62 213.227C164.522 210.794 164.221 208.375 163.721 205.992L191.626 207.026L190.748 188.112L150.667 184.102C149.272 188.04 136.653 186.107 136.653 186.107C123.031 186.562 122.183 189.063 116.52 193.466C110.856 197.869 101.482 235.654 101.482 235.654L115.455 240.13Z" fill="#4CAF4F"/>
<path d="M142.554 235.654C141.76 235.796 140.951 235.838 140.146 235.778C138.648 235.778 136.591 235.675 134.327 235.448C132.064 235.22 130.018 234.9 128.56 234.61C127.757 234.507 126.969 234.306 126.214 234.011C127.022 234.011 127.829 234.088 128.622 234.238C130.09 234.424 132.126 234.683 134.379 234.91C136.632 235.138 138.679 235.293 140.156 235.396C140.962 235.406 141.765 235.493 142.554 235.654Z" fill="#263238"/>
<path d="M145.696 231.758C144.902 232.147 144.061 232.435 143.195 232.616C139.072 233.699 134.817 234.204 130.555 234.114C129.673 234.143 128.791 234.06 127.93 233.866C128.8 233.756 129.678 233.712 130.555 233.732C132.178 233.68 134.41 233.567 136.87 233.277C139.33 232.988 141.521 232.574 143.071 232.244C143.932 232.014 144.81 231.851 145.696 231.758Z" fill="#263238"/>
<path d="M161.116 214.374C161.096 215.162 160.988 215.945 160.796 216.71C160.527 218.146 160.114 220.11 159.587 222.26C159.06 224.41 158.553 226.394 158.099 227.738C157.916 228.507 157.645 229.252 157.292 229.96C157.35 229.174 157.496 228.398 157.726 227.645C158.119 226.032 158.564 224.172 159.06 222.136C159.556 220.1 160.031 218.239 160.424 216.627C160.564 215.851 160.796 215.095 161.116 214.374Z" fill="#263238"/>
<path d="M115.941 237.494C113.55 237.125 111.19 236.575 108.882 235.851C106.523 235.299 104.209 234.574 101.957 233.68C104.347 234.056 106.706 234.605 109.016 235.324C111.375 235.873 113.69 236.599 115.941 237.494Z" fill="#263238"/>
<path d="M164.217 205.765C163.827 205.832 163.429 205.832 163.039 205.765C161.959 205.654 160.899 205.4 159.887 205.01C158.196 204.375 156.657 203.393 155.368 202.127C154.079 200.862 153.07 199.341 152.404 197.662C151.668 195.815 151.354 193.827 151.484 191.843C151.53 190.207 152.019 188.614 152.9 187.234C153.519 186.304 154.444 185.62 155.515 185.301C155.801 185.222 156.096 185.184 156.393 185.187C156.6 185.187 156.703 185.187 156.703 185.187C156.703 185.187 156.269 185.187 155.577 185.466C154.595 185.829 153.762 186.509 153.21 187.399C151.804 189.611 151.412 193.652 152.91 197.424C153.608 199.203 154.7 200.8 156.104 202.096C157.254 203.156 158.58 204.009 160.021 204.618C161.373 205.152 162.781 205.537 164.217 205.765Z" fill="#263238"/>
<path d="M188.309 206.654C188.05 203.484 187.967 200.303 188.06 197.124C187.98 193.949 188.076 190.771 188.35 187.606C188.609 190.772 188.691 193.949 188.598 197.124C188.685 200.304 188.588 203.485 188.309 206.654Z" fill="#263238"/>
<path d="M150.399 185.26C150.512 182.955 150.75 180.35 150.75 180.35C150.75 180.35 156.455 179.72 156.796 173.829C157.137 167.938 156.796 154.347 156.796 154.347L146.461 149.055L134.989 158.078L136.756 187.533L147.277 188.205C148.082 188.227 148.862 187.93 149.447 187.378C150.032 186.825 150.374 186.064 150.399 185.26Z" fill="#FFBE9D"/>
<path d="M151.422 169.168C151.422 169.168 151.422 169.281 151.329 169.416C151.252 169.513 151.153 169.59 151.039 169.641C150.926 169.691 150.802 169.713 150.678 169.705C150.016 169.705 149.376 168.94 149.148 168.051C149.04 167.621 149.04 167.17 149.148 166.739C149.169 166.551 149.237 166.371 149.346 166.216C149.454 166.061 149.599 165.935 149.768 165.85C149.907 165.793 150.063 165.793 150.202 165.85C150.305 165.901 150.389 165.985 150.44 166.088C150.512 166.263 150.44 166.377 150.44 166.367C150.44 166.356 150.44 166.263 150.337 166.16C150.283 166.086 150.203 166.035 150.114 166.015C150.024 165.996 149.93 166.011 149.851 166.057C149.724 166.133 149.619 166.241 149.545 166.369C149.471 166.497 149.43 166.642 149.427 166.79C149.34 167.175 149.34 167.574 149.427 167.958C149.634 168.765 150.192 169.416 150.688 169.478C150.785 169.491 150.884 169.484 150.978 169.457C151.072 169.431 151.16 169.385 151.236 169.323C151.36 169.24 151.401 169.157 151.422 169.168Z" fill="#EB996E"/>
<path d="M160.341 151.164C159.545 148.456 156.662 147.112 154.037 146.368C150.037 145.231 145.717 144.735 141.81 146.172C137.903 147.608 133.211 150.13 133.211 154.44C130.906 154.254 129.584 156.269 128.674 158.77C128.093 160.294 127.744 161.897 127.64 163.525C127.351 169.168 125.77 176.96 122.111 181.095C120.044 183.399 117.181 184.991 116.003 187.864C114.969 190.355 115.507 193.311 114.546 195.833C113.688 198.055 111.797 199.636 110.412 201.569C109.001 203.761 108.17 206.276 107.999 208.878C107.827 211.48 108.319 214.082 109.43 216.441C110.548 218.74 112.123 220.786 114.058 222.457C115.993 224.127 118.248 225.386 120.685 226.156C125.513 227.625 130.661 227.675 135.516 226.301C139.16 225.43 142.559 223.744 145.458 221.371C148.425 218.948 150.463 215.575 151.226 211.821C151.959 207.604 150.781 203.315 149.903 199.119C147.153 185.859 147.939 185.167 151.412 172.857C151.494 172.64 151.536 172.413 151.598 172.196C151.66 171.979 151.691 171.875 151.732 171.71C151.831 171.224 151.883 170.729 151.887 170.232C151.38 170.421 150.829 170.461 150.3 170.347C149.771 170.234 149.285 169.971 148.9 169.591C148.514 169.186 148.245 168.684 148.121 168.138C147.997 167.592 148.024 167.023 148.197 166.491C148.441 165.909 148.805 165.385 149.264 164.952C149.723 164.519 150.268 164.188 150.864 163.979C152.011 163.504 153.241 163.256 154.367 162.729C156.755 161.592 158.409 159.235 159.535 156.765C160.461 155.053 160.747 153.067 160.341 151.164Z" fill="#263238"/>
<path d="M151.835 169.447C152.054 169.769 152.234 170.116 152.373 170.48C152.683 171.131 153.096 172.051 153.551 173.116L153.634 173.312H153.417L152.383 173.405C151.67 173.405 151.071 173.539 150.368 173.529C150.307 173.515 150.25 173.486 150.203 173.445C150.156 173.403 150.12 173.35 150.099 173.291C150.068 173.197 150.068 173.096 150.099 173.002C150.123 172.863 150.154 172.725 150.192 172.589L150.378 171.855C150.472 171.365 150.617 170.887 150.812 170.429C150.793 170.928 150.72 171.423 150.595 171.906L150.45 172.64C150.399 172.888 150.306 173.271 150.45 173.24C150.967 173.24 151.701 173.126 152.383 173.085L153.417 172.992L153.282 173.219C152.838 172.186 152.466 171.214 152.249 170.542C152.058 170.199 151.919 169.83 151.835 169.447Z" fill="#4CAF4F"/>
<path d="M116.447 256.439L162.284 255.043L182.231 332.909L178.562 422.227H154.326L157.292 334.811L139.567 280.602L142.296 425.689L117.801 426.051L115.228 289.677C115.114 285.884 113.874 277.336 114.339 273.574L116.447 256.439Z" fill="#263238"/>
<path d="M145.665 281.708C144.915 281.756 144.162 281.71 143.422 281.574C142.038 281.409 140.146 281.119 138.069 280.706C135.991 280.292 134.131 279.817 132.787 279.435C132.069 279.277 131.374 279.027 130.72 278.69C130.72 278.535 134.09 279.342 138.224 280.179C142.358 281.016 145.686 281.553 145.665 281.708Z" fill="#455A64"/>
<path d="M178.314 417.328C178.314 417.472 172.826 417.596 166.057 417.596C159.287 417.596 153.789 417.472 153.789 417.328C153.789 417.183 159.277 417.059 166.057 417.059C172.837 417.059 178.314 417.173 178.314 417.328Z" fill="#455A64"/>
<path d="M142.079 421.916C142.079 422.071 136.746 422.185 130.173 422.185C123.599 422.185 118.277 422.071 118.277 421.916C118.277 421.761 123.61 421.648 130.173 421.648C136.736 421.648 142.079 421.772 142.079 421.916Z" fill="#455A64"/>
<path d="M138.916 421.544C138.772 421.544 138.131 389.846 137.48 350.748C136.829 311.65 136.446 279.931 136.58 279.931C136.715 279.931 137.376 311.619 138.017 350.738C138.658 389.857 139.071 421.544 138.916 421.544Z" fill="#455A64"/>
<path d="M175.059 417.328C175.047 417.187 175.047 417.045 175.059 416.904V415.664C175.059 414.547 175.141 412.946 175.203 410.909C175.348 406.775 175.555 400.771 175.813 393.412C176.371 378.612 177.157 358.21 178.015 335.689C178.015 335.472 178.015 335.266 178.015 335.08V335.152C172.589 313.448 167.679 293.749 164.114 279.497L159.98 262.64C159.504 260.666 159.142 259.126 158.884 258.051C158.76 257.544 158.677 257.152 158.605 256.852C158.565 256.718 158.54 256.579 158.533 256.439C158.586 256.569 158.628 256.704 158.657 256.842C158.739 257.131 158.843 257.524 158.987 258.02C159.266 259.053 159.669 260.624 160.186 262.588C161.22 266.577 162.677 272.324 164.496 279.404C168.093 293.646 173.054 313.293 178.552 335.028V335.1C178.552 335.286 178.552 335.503 178.552 335.71C177.632 358.231 176.795 378.622 176.185 393.422C175.865 400.791 175.596 406.755 175.41 410.909C175.307 412.977 175.224 414.547 175.172 415.664C175.172 416.191 175.11 416.604 175.1 416.904C175.102 417.046 175.088 417.188 175.059 417.328Z" fill="#455A64"/>
<path d="M167.152 333.261C165.411 333.833 163.618 334.231 161.799 334.449C159.566 334.832 157.664 335.1 156.807 335.142V334.935C157.086 335.018 157.23 335.069 157.23 335.111C157.23 335.152 157.055 335.111 156.765 335.111H156.145L156.765 334.925C157.571 334.687 159.473 334.294 161.706 333.891C163.496 333.503 165.32 333.291 167.152 333.261Z" fill="#455A64"/>
<path d="M166.728 336.227C165.116 336.301 163.501 336.228 161.902 336.01C160.288 335.977 158.679 335.8 157.096 335.483C160.326 335.219 163.577 335.47 166.728 336.227Z" fill="#455A64"/>
<path opacity="0.2" d="M116.251 258.082C116.794 258.779 117.478 259.354 118.258 259.769C119.038 260.184 119.896 260.429 120.778 260.49C122.624 260.709 124.491 260.674 126.328 260.387C138.162 259.074 150.698 257.865 162.284 255.043C147.288 255.88 131.444 255.601 116.447 256.439L116.292 257.72" fill="black"/>
<g opacity="0.2">
<path d="M131.702 279.217L140.157 312.022L139.567 280.602L131.702 279.217Z" fill="black"/>
</g>
</svg>
