<svg width="442" height="434" viewBox="0 0 442 434" fill="none" xmlns="http://www.w3.org/2000/svg">
<path d="M376.369 433.13C376.369 433.275 304.601 433.399 216.1 433.399C127.599 433.399 55.8001 433.275 55.8001 433.13C55.8001 432.986 127.558 432.862 216.1 432.862C304.642 432.862 376.369 432.996 376.369 433.13Z" fill="#263238"/>
<path d="M306.441 306.606C290.473 295.454 286.855 274.753 287.486 256.139C287.589 253.038 287.248 249.752 288.726 247.034C290.204 244.315 293.656 242.445 296.436 243.747C298.741 244.832 299.743 247.519 301.035 249.741C302.759 252.701 305.285 255.112 308.322 256.697C310.296 257.731 312.745 258.351 314.699 257.276C317.386 255.798 317.696 252.108 317.675 249.008C317.675 243.24 317.641 237.48 317.572 231.727C317.386 228.638 317.7 225.539 318.502 222.549C319.463 219.614 321.602 216.896 324.527 216.069C327.452 215.242 331.101 216.948 331.762 219.965C331.876 221.244 331.907 222.528 331.855 223.81C331.938 225.102 332.537 226.518 333.746 226.911C334.956 227.303 336.217 226.404 337.147 225.495C340.33 222.394 342.5 218.353 344.516 214.364C346.531 210.374 348.505 206.271 351.399 202.871C354.293 199.471 358.293 196.773 362.768 196.515C367.243 196.256 371.904 199.006 373.02 203.346C374.137 207.687 371.604 212.121 368.886 215.645C364.785 220.877 359.95 225.489 354.531 229.34C353.473 229.917 352.629 230.819 352.123 231.913C351.451 233.98 353.404 236.047 355.44 236.698C357.745 237.463 360.246 237.225 362.675 237.515C365.104 237.804 367.687 238.858 368.607 241.132C369.868 244.295 367.222 247.602 364.628 249.772C359.419 254.113 353.504 257.528 347.141 259.87C344.867 260.697 342.48 261.431 340.64 263.022C338.8 264.614 337.705 267.394 338.811 269.575C339.917 271.755 342.759 272.448 345.146 272.004C347.534 271.559 349.652 270.278 351.926 269.42C356.174 267.818 361.652 268.107 364.328 271.776C365.158 273.04 365.683 274.479 365.862 275.98C366.041 277.481 365.87 279.003 365.362 280.427C364.328 283.26 362.736 285.857 360.68 288.064C353.911 296.152 345.116 302.297 335.193 305.872C325.344 309.283 316.218 310.213 306.43 306.627" fill="#4CAF4F"/>
<path d="M368.473 199.068C368.473 199.068 368.38 199.171 368.173 199.357L367.253 200.173C366.447 200.897 365.259 201.951 363.76 203.346C359.511 207.291 355.566 211.551 351.957 216.09C349.652 218.953 347.265 222.198 344.722 225.722C342.18 229.247 339.555 233.05 336.95 237.091C334.174 241.352 331.631 245.762 329.333 250.299C328.134 252.666 327.08 255.136 325.995 257.658L322.791 265.358C318.568 275.057 314.89 284.984 311.774 295.092C309.264 303.364 307.534 311.851 306.606 320.445C306.005 326.244 305.908 332.085 306.317 337.901C306.482 339.968 306.637 341.549 306.782 342.624C306.844 343.141 306.885 343.555 306.926 343.854V344.278C306.882 344.144 306.851 344.005 306.833 343.865C306.782 343.565 306.72 343.162 306.637 342.645C306.451 341.611 306.255 339.979 306.069 337.911C305.57 332.085 305.605 326.224 306.172 320.404C307.042 311.773 308.734 303.246 311.226 294.937C314.316 284.8 317.984 274.848 322.212 265.131L325.499 257.462C326.584 254.95 327.649 252.459 328.858 250.082C331.171 245.531 333.735 241.111 336.537 236.843C339.183 232.709 341.849 228.967 344.361 225.474C346.872 221.981 349.301 218.715 351.595 215.862C355.241 211.336 359.239 207.106 363.553 203.212C365.083 201.837 366.302 200.804 367.129 200.111L368.09 199.336C368.208 199.234 368.336 199.144 368.473 199.068Z" fill="#263238"/>
<path d="M328.992 250.062C328.846 249.636 328.746 249.196 328.692 248.749C328.527 247.891 328.341 246.682 328.124 245.111C327.68 242.011 327.225 237.763 326.739 233.06C326.253 228.358 325.706 224.1 325.251 221.03C325.013 219.5 324.806 218.27 324.662 217.413C324.549 216.974 324.49 216.522 324.486 216.069C324.664 216.483 324.792 216.917 324.868 217.361C325.096 218.208 325.354 219.428 325.644 220.968C326.233 224.069 326.811 228.285 327.297 232.998C327.783 237.711 328.196 241.845 328.517 245.059C328.672 246.506 328.806 247.736 328.91 248.718C328.99 249.161 329.018 249.612 328.992 250.062Z" fill="#263238"/>
<path d="M368.762 242.641C368.259 242.751 367.747 242.813 367.233 242.827C366.199 242.92 364.732 243.044 362.913 243.251C359.275 243.644 354.272 244.367 348.784 245.401C343.296 246.434 338.366 247.602 334.821 248.501C333.054 248.956 331.628 249.369 330.687 249.648C330.185 249.827 329.665 249.951 329.137 250.02C329.615 249.78 330.113 249.583 330.625 249.431C331.597 249.09 333.002 248.615 334.759 248.108C338.284 247.075 343.214 245.845 348.722 244.791C353.389 243.898 358.097 243.243 362.83 242.827C364.659 242.672 366.137 242.61 367.171 242.589C367.702 242.553 368.235 242.571 368.762 242.641Z" fill="#263238"/>
<path d="M311.732 294.214C311.622 294.064 311.532 293.901 311.464 293.728L310.781 292.292C310.192 291.041 309.397 289.191 308.446 286.928C306.523 282.38 304.074 276.014 301.469 268.944C298.865 261.875 296.467 255.508 294.648 250.909C293.759 248.677 293.025 246.847 292.478 245.483L291.899 244.005C291.819 243.835 291.763 243.654 291.734 243.468C291.844 243.617 291.934 243.781 292.002 243.954L292.684 245.39C293.263 246.641 294.069 248.491 295.02 250.754C296.943 255.302 299.392 261.668 301.996 268.738C304.601 275.807 306.999 282.173 308.818 286.773C309.707 289.005 310.44 290.834 310.978 292.199C311.216 292.788 311.412 293.232 311.567 293.677C311.647 293.847 311.703 294.028 311.732 294.214Z" fill="#263238"/>
<path d="M364.525 277.192C364.359 277.287 364.182 277.36 363.998 277.409L362.468 277.926L356.815 279.755C352.04 281.305 345.446 283.517 338.211 285.956C330.977 288.395 324.352 290.566 319.546 292.013C317.148 292.746 315.195 293.304 313.841 293.677L312.28 294.08C312.099 294.137 311.912 294.175 311.722 294.193C311.887 294.098 312.065 294.025 312.249 293.976L313.779 293.46L319.432 291.63C324.207 290.08 330.801 287.868 338.036 285.429C345.27 282.99 351.885 280.819 356.691 279.373C359.099 278.639 361.042 278.081 362.406 277.709L363.967 277.305C364.148 277.248 364.335 277.21 364.525 277.192Z" fill="#263238"/>
<path d="M342.986 26.4893L337.663 28.391L335.379 21.4353C331.183 8.60927 317.809 1.79833 305.521 6.12881C293.232 10.4593 286.69 24.5256 290.886 37.3516L293.17 44.3073L287.827 46.2193C285.789 47.0096 284.135 48.5547 283.207 50.5334C282.279 52.5121 282.15 54.7722 282.845 56.844L297.656 102.102C297.963 103.128 298.473 104.081 299.157 104.905C299.84 105.73 300.682 106.409 301.632 106.901C302.583 107.394 303.623 107.69 304.69 107.773C305.758 107.856 306.831 107.724 307.846 107.383L363.005 87.6534C365.07 86.8645 366.748 85.3057 367.687 83.3049C368.625 81.3041 368.752 79.0173 368.039 76.9254L353.218 31.6672C352.903 30.6445 352.384 29.6958 351.694 28.8777C351.004 28.0597 350.156 27.389 349.201 26.9057C348.247 26.4225 347.204 26.1365 346.136 26.065C345.068 25.9934 343.997 26.1377 342.986 26.4893ZM300.942 33.724C299.811 30.389 300.014 26.7456 301.509 23.557C303.004 20.3685 305.675 17.8822 308.962 16.6191C310.586 16.0637 312.304 15.841 314.015 15.9642C315.727 16.0875 317.395 16.5542 318.922 17.3364C320.449 18.1187 321.803 19.2005 322.903 20.5174C324.002 21.8342 324.826 23.3591 325.323 25.001L327.597 31.9566L303.216 40.6796L300.942 33.724ZM331.948 73.8868L335.731 85.4416C335.8 85.6733 335.778 85.9229 335.668 86.1384C335.558 86.354 335.37 86.519 335.142 86.5992L329.84 88.4905C329.629 88.549 329.403 88.5236 329.21 88.4196C329.018 88.3155 328.873 88.1409 328.806 87.9324L324.992 76.4293C322.89 76.3147 320.872 75.5604 319.209 74.2675C317.547 72.9745 316.319 71.2046 315.691 69.1946C314.792 66.5373 314.956 63.6353 316.148 61.0962C317.341 58.5571 319.469 56.5778 322.088 55.5727C323.381 55.1309 324.75 54.954 326.113 55.0524C327.476 55.1508 328.805 55.5227 330.021 56.1457C331.237 56.7687 332.316 57.6302 333.192 58.6788C334.068 59.7275 334.724 60.9417 335.121 62.2493C335.786 64.2911 335.841 66.4825 335.279 68.555C334.717 70.6276 333.563 72.4913 331.958 73.9178L331.948 73.8868Z" fill="#4CAF4F"/>
<path d="M337.426 28.267C337.426 28.4116 327.556 32.122 315.277 36.5352C302.999 40.9483 292.984 44.4933 292.932 44.39C292.881 44.2866 302.803 40.5452 315.091 36.1218C327.38 31.6983 337.374 28.1326 337.426 28.267Z" fill="#263238"/>
<path d="M349.146 30.1686C349.191 30.2583 349.229 30.3517 349.26 30.4477C349.342 30.6544 349.435 30.9231 349.559 31.2538C349.828 32.0083 350.2 33.0522 350.665 34.3544L354.634 45.9092C356.288 50.8082 358.262 56.6166 360.453 63.0658C361.486 66.3007 362.706 69.67 363.843 73.215C364.451 75.0418 364.714 76.966 364.618 78.8891C364.53 79.8892 364.246 80.8622 363.781 81.7519C363.284 82.6388 362.621 83.4213 361.827 84.0567C360.23 85.2223 358.458 86.1259 356.577 86.7335L351.254 88.6456L341.177 92.2526L324.114 98.3297L312.59 102.381L309.489 103.415L308.663 103.683C308.574 103.723 308.48 103.747 308.384 103.756C308.384 103.756 308.466 103.756 308.642 103.632L309.448 103.311L312.549 102.143L324.011 97.9266L341.043 91.7255L351.099 88.0875L356.422 86.1651C358.25 85.5822 359.971 84.706 361.517 83.571C362.255 82.9814 362.873 82.255 363.336 81.4315C363.774 80.6086 364.038 79.7045 364.111 78.7754C364.207 76.9225 363.954 75.0681 363.367 73.308C362.251 69.794 361.073 66.3937 360.008 63.1588C357.859 56.6993 355.874 50.8702 354.303 45.9713C352.732 41.0723 351.409 37.1346 350.5 34.3648C350.066 33.0108 349.735 31.9566 349.466 31.1918L349.218 30.365C349.187 30.3024 349.163 30.2365 349.146 30.1686Z" fill="#263238"/>
<path d="M320.042 15.9163C320.042 15.9163 319.494 15.6476 318.481 15.2342C317.037 14.6795 315.511 14.372 313.965 14.3247C311.673 14.2461 309.393 14.6767 307.288 15.5856C304.728 16.7173 302.54 18.5477 300.973 20.8669C299.396 23.1794 298.55 25.9123 298.545 28.7114C298.566 31.0055 298.914 33.2849 299.578 35.481C300.115 37.362 300.674 38.8606 301.046 39.9045C301.265 40.4347 301.445 40.9805 301.583 41.5374C301.289 41.0417 301.044 40.5191 300.849 39.9768C300.425 38.9433 299.816 37.4757 299.216 35.5843C298.48 33.3652 298.08 31.0487 298.028 28.7114C298 25.8066 298.866 22.9635 300.508 20.5672C302.129 18.1633 304.407 16.2762 307.071 15.1308C309.242 14.217 311.593 13.8139 313.944 13.9526C315.523 14.0331 317.075 14.4008 318.523 15.0378C318.91 15.2164 319.283 15.4236 319.639 15.6579C319.786 15.7225 319.922 15.8097 320.042 15.9163Z" fill="#263238"/>
<path d="M320.517 56.3582C320.682 56.2582 320.855 56.1718 321.034 56.0998C321.551 55.8664 322.087 55.6762 322.636 55.5314C323.507 55.2743 324.406 55.1216 325.313 55.0766C326.547 55.0103 327.781 55.1967 328.94 55.6244C331.586 56.5546 334.015 59.2521 335.214 62.8591C335.789 64.7948 335.789 66.8558 335.214 68.7915C334.576 70.8924 333.434 72.8051 331.886 74.3622L331.948 74.0832C333.323 77.8556 334.821 81.9483 336.372 86.2168L336.465 86.4752L336.206 86.5682L333.839 87.3537L328.672 89.0796L328.413 89.1623L328.331 88.9039C326.915 84.6252 325.364 80.6357 324.197 76.7187L324.424 76.8944C322.403 76.7265 320.477 75.9682 318.884 74.7136C317.443 73.6038 316.262 72.1929 315.422 70.5795C314.664 69.1487 314.287 67.5472 314.326 65.9286C314.374 64.2744 314.787 62.6513 315.536 61.1754C316.285 59.6995 317.35 58.4074 318.657 57.3917C319.195 56.9552 319.798 56.6063 320.445 56.3582C319.861 56.7046 319.295 57.0806 318.75 57.4847C317.315 58.699 316.215 60.2612 315.556 62.0219C314.991 63.3496 314.726 64.7861 314.782 66.2281C314.837 67.6702 315.211 69.0821 315.877 70.3625C316.702 71.9146 317.856 73.2688 319.256 74.3312C320.776 75.5237 322.612 76.2426 324.538 76.3983H324.713L324.765 76.5533C325.902 80.398 327.463 84.4184 328.899 88.7179L328.558 88.5526L333.726 86.8266L336.082 86.0307L335.917 86.3821C334.377 82.1137 332.889 78.0106 331.524 74.2382V74.0832L331.648 73.9592C333.151 72.4666 334.271 70.6337 334.914 68.6158C335.462 66.7642 335.462 64.7934 334.914 62.9418C333.788 59.4691 331.462 56.8336 328.94 55.9034C327.824 55.473 326.632 55.2726 325.437 55.3143C324.544 55.3348 323.656 55.4561 322.791 55.6761C321.251 56.0585 320.528 56.4099 320.517 56.3582Z" fill="#263238"/>
</svg>
