<svg width="442" height="381" viewBox="0 0 442 381" fill="none" xmlns="http://www.w3.org/2000/svg">
<path d="M74.5657 135.144H74.0799L72.6743 135.247C71.9137 135.293 71.1572 135.393 70.4109 135.547C69.9275 135.615 69.448 135.708 68.9743 135.826L67.3723 136.27C64.6457 137.107 62.0731 138.381 59.7552 140.043C56.6928 142.265 54.1356 145.112 52.2518 148.393C51.1446 150.285 50.2636 152.301 49.6267 154.398C48.9575 156.678 48.5721 159.032 48.4795 161.406C48.4179 162.653 48.4386 163.903 48.5415 165.147C48.5415 165.777 48.7172 166.408 48.7999 167.049C48.8694 167.695 48.9904 168.334 49.1616 168.961C50.091 173.108 51.9767 176.981 54.6683 180.27C57.36 183.559 60.783 186.174 64.6645 187.905C67.4737 189.117 70.4847 189.794 73.5425 189.9C76.7007 190.074 79.862 189.62 82.8442 188.567L83.7537 188.226H83.8777L83.9811 188.288L97.0139 194.902L96.6315 195.233C95.2362 190.913 93.8926 186.727 92.5904 182.707V182.552L92.7041 182.438C95.8656 179.253 98.2126 175.354 99.546 171.069C100.754 167.152 101.106 163.021 100.58 158.956C100.111 155.343 98.9495 151.855 97.1586 148.683C95.6148 145.958 93.6232 143.512 91.2675 141.448C89.3239 139.815 87.1727 138.445 84.8699 137.376C83.1275 136.625 81.3129 136.053 79.4542 135.671L77.3872 135.33L75.8886 135.216L74.9791 135.154H74.669C74.7721 135.143 74.876 135.143 74.9791 135.154H75.8989L77.3975 135.216L79.4646 135.516C81.3463 135.87 83.1857 136.421 84.9526 137.159C87.2949 138.216 89.4849 139.582 91.4638 141.221C93.8629 143.276 95.8967 145.722 97.479 148.455C99.3208 151.662 100.518 155.197 101.003 158.863C101.574 162.991 101.246 167.193 100.042 171.183C98.7 175.556 96.3167 179.539 93.0968 182.789L93.1588 182.521C94.4611 186.541 95.815 190.727 97.2206 195.037L97.4169 195.667L96.8278 195.367L83.7951 188.763H84.0224L83.0923 189.104C80.0526 190.174 76.8328 190.637 73.6148 190.468C70.4912 190.349 67.4172 189.648 64.5508 188.401C59.0831 186.06 54.5341 181.99 51.6007 176.815C50.2508 174.426 49.265 171.848 48.6758 169.167C48.5145 168.524 48.3937 167.872 48.3141 167.214C48.2314 166.563 48.0971 165.922 48.0661 165.281C47.7863 161.604 48.175 157.906 49.2133 154.367C49.866 152.241 50.7717 150.201 51.9108 148.29C53.8395 144.978 56.4499 142.114 59.5692 139.888C61.9253 138.222 64.541 136.957 67.3103 136.146L68.9329 135.733C69.4105 135.622 69.8935 135.536 70.3799 135.474C71.134 135.335 71.8975 135.252 72.664 135.226L74.0799 135.175C74.2409 135.153 74.4032 135.143 74.5657 135.144Z" fill="#4CAF4F"/>
<path d="M80.4567 159.245H78.5447L74.4106 153.437V149.623C74.4106 149.623 71.4547 149.437 71.8061 154.429C72.1575 159.421 71.8061 158.15 71.8061 158.15C71.8061 158.15 65.5326 158.15 65.0159 158.718C64.4991 159.287 64.4681 165.343 64.3957 168.723C64.3561 169.538 64.5899 170.342 65.0599 171.009C65.5299 171.675 66.2092 172.166 66.9899 172.402C67.2087 172.463 67.4346 172.494 67.6617 172.495C69.2326 172.495 77.2218 171.224 77.2218 171.224H80.5187L80.4567 159.245Z" fill="#4CAF4F"/>
<path d="M85.9241 158.222L84.7459 171.286H81.48V158.491L85.9241 158.222Z" fill="#4CAF4F"/>
</svg>
