<svg width="442" height="396" viewBox="0 0 442 396" fill="none" xmlns="http://www.w3.org/2000/svg">
<path d="M288.571 354.779L185.332 354.303C179.37 354.27 173.665 351.873 169.469 347.637C165.274 343.4 162.931 337.672 162.956 331.71L164.052 72.9049C164.064 69.9512 164.658 67.0288 165.8 64.3048C166.943 61.5808 168.61 59.1086 170.709 57.0296C172.807 54.9506 175.294 53.3055 178.029 52.1883C180.763 51.0711 183.691 50.5038 186.645 50.5188L289.873 50.9942C295.835 51.0243 301.541 53.4194 305.739 57.6536C309.936 61.8878 312.281 67.6147 312.259 73.5767L311.164 332.372C311.152 335.327 310.558 338.25 309.416 340.975C308.274 343.7 306.606 346.174 304.508 348.254C302.41 350.335 299.923 351.982 297.188 353.102C294.454 354.221 291.526 354.791 288.571 354.779Z" fill="#455A64"/>
<path d="M289.718 59.8929H269.709C269.056 59.905 268.412 60.0456 267.814 60.3066C267.215 60.5677 266.674 60.9441 266.221 61.4144C265.768 61.8847 265.412 62.4396 265.173 63.0475C264.935 63.6554 264.819 64.3043 264.831 64.9571V68.5848C264.843 69.2372 264.727 69.8856 264.488 70.4928C264.249 71.1001 263.893 71.6544 263.44 72.1238C262.987 72.5933 262.446 72.9687 261.847 73.2287C261.249 73.4887 260.605 73.628 259.953 73.6388L220.947 73.4631C219.628 73.4279 218.376 72.8704 217.467 71.9132C216.558 70.9559 216.067 69.677 216.1 68.3574V64.7298C216.133 63.4119 215.643 62.1346 214.736 61.1776C213.83 60.2206 212.581 59.662 211.263 59.6241H204.225L186.707 59.5415C182.54 59.5167 178.533 61.1439 175.563 64.067C172.594 66.9901 170.904 70.9707 170.863 75.1374L169.829 327.752C169.82 329.819 170.217 331.868 171 333.781C171.782 335.695 172.933 337.435 174.388 338.903C175.843 340.372 177.573 341.539 179.479 342.339C181.385 343.139 183.43 343.555 185.497 343.565L288.519 344.04C290.588 344.05 292.638 343.652 294.552 342.869C296.467 342.086 298.209 340.934 299.678 339.478C301.147 338.022 302.316 336.291 303.116 334.384C303.916 332.476 304.333 330.43 304.343 328.362L305.376 75.7472C305.401 71.5688 303.765 67.5515 300.829 64.5786C297.893 61.6056 293.897 59.9202 289.718 59.8929Z" fill="white"/>
<path d="M275.859 310.337L199.254 310.006C198.458 310.006 197.817 309.138 197.827 308.084L197.91 288.044C197.91 287.01 198.561 286.121 199.357 286.121L275.962 286.473C276.403 286.549 276.797 286.793 277.063 287.153C277.329 287.513 277.445 287.962 277.388 288.406L277.316 308.425C277.316 309.489 276.654 310.347 275.859 310.337Z" fill="#4CAF4F"/>
<path d="M222.544 300.124C222.122 300.124 221.715 300.057 221.325 299.921C220.94 299.78 220.642 299.601 220.43 299.384L220.666 298.921C220.867 299.116 221.135 299.281 221.471 299.417C221.813 299.547 222.17 299.612 222.544 299.612C222.902 299.612 223.192 299.569 223.414 299.482C223.642 299.39 223.807 299.268 223.91 299.116C224.019 298.964 224.073 298.796 224.073 298.612C224.073 298.39 224.008 298.211 223.878 298.075C223.753 297.94 223.588 297.834 223.382 297.758C223.176 297.677 222.948 297.606 222.699 297.547C222.45 297.487 222.2 297.425 221.951 297.36C221.701 297.289 221.471 297.197 221.26 297.083C221.054 296.969 220.886 296.82 220.756 296.636C220.631 296.446 220.568 296.2 220.568 295.896C220.568 295.614 220.642 295.357 220.788 295.124C220.94 294.885 221.17 294.695 221.479 294.554C221.788 294.408 222.184 294.335 222.666 294.335C222.986 294.335 223.303 294.381 223.618 294.473C223.932 294.56 224.203 294.682 224.431 294.839L224.228 295.319C223.984 295.156 223.723 295.037 223.447 294.961C223.176 294.885 222.913 294.847 222.658 294.847C222.317 294.847 222.035 294.893 221.813 294.985C221.59 295.078 221.425 295.202 221.317 295.359C221.214 295.511 221.162 295.685 221.162 295.88C221.162 296.102 221.224 296.281 221.349 296.417C221.479 296.552 221.647 296.658 221.853 296.734C222.065 296.81 222.295 296.877 222.544 296.937C222.794 296.997 223.04 297.062 223.284 297.132C223.534 297.203 223.761 297.295 223.967 297.409C224.179 297.517 224.347 297.663 224.472 297.848C224.602 298.032 224.667 298.273 224.667 298.571C224.667 298.848 224.591 299.105 224.439 299.344C224.287 299.577 224.054 299.767 223.74 299.913C223.431 300.054 223.032 300.124 222.544 300.124ZM225.978 300.076V294.384H226.579V300.076H225.978ZM228.431 300.076V294.384H228.927L232.855 299.328H232.595V294.384H233.188V300.076H232.692L228.773 295.132H229.033V300.076H228.431ZM237.542 300.124C237.109 300.124 236.707 300.054 236.339 299.913C235.976 299.767 235.659 299.563 235.388 299.303C235.122 299.043 234.913 298.737 234.761 298.384C234.615 298.032 234.542 297.647 234.542 297.23C234.542 296.812 234.615 296.427 234.761 296.075C234.913 295.723 235.125 295.416 235.396 295.156C235.667 294.896 235.984 294.695 236.347 294.554C236.716 294.408 237.117 294.335 237.55 294.335C237.984 294.335 238.38 294.403 238.738 294.538C239.101 294.674 239.41 294.88 239.665 295.156L239.291 295.538C239.052 295.3 238.789 295.129 238.502 295.026C238.214 294.923 237.906 294.872 237.575 294.872C237.222 294.872 236.897 294.931 236.599 295.051C236.306 295.164 236.049 295.33 235.827 295.547C235.61 295.758 235.439 296.007 235.314 296.295C235.195 296.576 235.135 296.888 235.135 297.23C235.135 297.566 235.195 297.877 235.314 298.165C235.439 298.452 235.61 298.704 235.827 298.921C236.049 299.132 236.306 299.298 236.599 299.417C236.897 299.531 237.22 299.588 237.567 299.588C237.892 299.588 238.198 299.539 238.486 299.441C238.778 299.344 239.047 299.178 239.291 298.945L239.632 299.401C239.361 299.639 239.044 299.821 238.681 299.946C238.317 300.065 237.938 300.124 237.542 300.124ZM239.055 299.328V297.23H239.632V299.401L239.055 299.328ZM245.756 300.124C245.03 300.124 244.458 299.916 244.04 299.498C243.623 299.081 243.414 298.463 243.414 297.644V294.384H244.016V297.62C244.016 298.292 244.168 298.788 244.471 299.108C244.775 299.428 245.203 299.588 245.756 299.588C246.315 299.588 246.745 299.428 247.049 299.108C247.353 298.788 247.504 298.292 247.504 297.62V294.384H248.09V297.644C248.09 298.463 247.881 299.081 247.464 299.498C247.052 299.916 246.483 300.124 245.756 300.124ZM249.903 300.076V294.384H252.033C252.516 294.384 252.931 294.462 253.278 294.62C253.624 294.771 253.89 294.994 254.074 295.286C254.264 295.574 254.359 295.923 254.359 296.335C254.359 296.736 254.264 297.083 254.074 297.376C253.89 297.663 253.624 297.886 253.278 298.043C252.931 298.2 252.516 298.279 252.033 298.279H250.236L250.505 297.994V300.076H249.903ZM250.505 298.043L250.236 297.75H252.017C252.586 297.75 253.017 297.628 253.31 297.384C253.608 297.135 253.757 296.785 253.757 296.335C253.757 295.88 253.608 295.528 253.31 295.278C253.017 295.029 252.586 294.904 252.017 294.904H250.236L250.505 294.62V298.043Z" fill="#E8E8E3"/>
<path d="M214.533 134.152L187.951 134.031L187.929 138.91L214.511 139.03L214.533 134.152Z" fill="#4CAF4F"/>
<path opacity="0.1" d="M214.533 134.152L187.951 134.031L187.929 138.91L214.511 139.03L214.533 134.152Z" fill="black"/>
<path d="M292.457 164.103C292.666 164.082 292.871 164.034 293.067 163.959C293.353 163.847 293.602 163.657 293.784 163.41C293.967 163.163 294.077 162.87 294.1 162.563C294.1 160.92 294.1 158.522 294.1 155.442C294.1 153.902 294.1 152.176 294.1 150.275C294.1 149.81 294.1 149.324 294.1 148.838C294.168 148.367 294.065 147.887 293.811 147.484C293.669 147.291 293.484 147.134 293.27 147.024C293.057 146.915 292.821 146.857 292.581 146.854H290.969H276.034L189.59 146.533C189.369 146.53 189.15 146.579 188.952 146.678C188.754 146.777 188.583 146.923 188.453 147.102C188.204 147.506 188.108 147.987 188.184 148.456C188.184 149.489 188.184 150.523 188.184 151.556C188.184 153.623 188.184 155.69 188.184 157.757C188.184 158.791 188.184 159.825 188.184 160.858C188.142 161.339 188.142 161.824 188.184 162.305C188.239 162.511 188.34 162.703 188.479 162.864C188.619 163.025 188.794 163.152 188.991 163.235C189.194 163.316 189.412 163.355 189.631 163.349H194.892L217.847 163.473L256.707 163.711L282.907 163.917L290.028 164H291.878C292.302 164 292.509 164 292.509 164H291.878H290.028H282.907H256.707L217.847 163.876L194.892 163.783H189.631C189.342 163.795 189.053 163.745 188.784 163.638C188.512 163.522 188.27 163.345 188.076 163.121C187.883 162.898 187.743 162.632 187.668 162.346C187.608 162.075 187.587 161.797 187.606 161.52V160.755C187.606 159.721 187.606 158.688 187.606 157.654C187.606 155.587 187.606 153.52 187.606 151.453C187.606 150.419 187.606 149.386 187.606 148.352C187.586 148.077 187.586 147.801 187.606 147.526C187.644 147.222 187.762 146.933 187.947 146.688C188.125 146.439 188.361 146.236 188.635 146.098C188.908 145.959 189.211 145.889 189.518 145.893L275.962 146.368L290.896 146.471H292.509C292.793 146.472 293.073 146.54 293.324 146.672C293.576 146.803 293.793 146.993 293.956 147.226C294.247 147.675 294.365 148.215 294.286 148.745C294.286 149.231 294.286 149.717 294.286 150.182C294.286 152.063 294.286 153.789 294.286 155.349C294.286 158.45 294.214 160.827 294.193 162.481C294.168 162.799 294.052 163.103 293.86 163.357C293.668 163.612 293.407 163.806 293.108 163.917C292.913 164.039 292.687 164.103 292.457 164.103Z" fill="#E0E0E0"/>
<path d="M244.553 151.722H195.936V156.28H244.553V151.722Z" fill="#4CAF4F"/>
<path opacity="0.2" d="M244.553 151.722H195.936V156.28H244.553V151.722Z" fill="white"/>
<path d="M214.352 178.654L187.77 178.534L187.748 183.412L214.33 183.532L214.352 178.654Z" fill="#4CAF4F"/>
<path opacity="0.1" d="M214.352 178.654L187.77 178.534L187.748 183.412L214.33 183.532L214.352 178.654Z" fill="black"/>
<path d="M291.785 208.607C291.994 208.581 292.201 208.543 292.405 208.493C292.694 208.401 292.96 208.249 293.184 208.045C293.409 207.842 293.587 207.593 293.708 207.315C293.87 206.898 293.934 206.449 293.894 206.002C293.894 205.506 293.894 204.969 293.894 204.37C293.894 203.171 293.894 201.806 293.894 200.235V193.673C293.943 193.197 293.838 192.719 293.594 192.308C293.339 191.887 292.938 191.574 292.467 191.43C291.953 191.338 291.428 191.31 290.907 191.347H276.034L189.89 191.027C189.427 191.028 188.979 191.197 188.631 191.503C188.284 191.809 188.059 192.231 187.999 192.691C187.999 193.673 187.999 194.758 187.999 195.791C187.999 197.858 187.999 199.925 187.999 201.992C187.999 203.026 187.999 204.059 187.999 205.093C187.96 205.576 187.981 206.062 188.061 206.54C188.19 206.959 188.455 207.323 188.815 207.573C189.197 207.816 189.645 207.931 190.097 207.904H191.533H194.52L217.392 208.018L256.118 208.256L282.225 208.462L289.325 208.545H282.225H256.118L217.371 208.504L194.499 208.421H190.004C189.445 208.454 188.89 208.305 188.422 207.997C187.952 207.671 187.609 207.193 187.451 206.643C187.358 206.118 187.33 205.584 187.368 205.052C187.368 204.018 187.368 202.985 187.368 201.951C187.368 199.884 187.368 197.817 187.368 195.75C187.368 194.716 187.368 193.683 187.368 192.649C187.443 192.058 187.732 191.515 188.179 191.121C188.626 190.728 189.201 190.51 189.797 190.51L275.941 190.985L290.814 191.099C291.368 191.065 291.923 191.103 292.467 191.213C293.004 191.388 293.457 191.756 293.739 192.246C294.006 192.701 294.122 193.23 294.069 193.755C294.069 194.241 294.069 194.716 294.069 195.192C294.069 197.062 294.069 198.778 294.069 200.359C294.069 201.941 294.069 203.274 294.069 204.494C294.069 205.083 294.069 205.63 294.069 206.137C294.107 206.599 294.032 207.063 293.852 207.491C293.718 207.776 293.524 208.029 293.283 208.232C293.042 208.435 292.761 208.584 292.457 208.669C292.231 208.688 292.004 208.667 291.785 208.607Z" fill="#E0E0E0"/>
<path d="M214.152 225.089L187.57 224.969L187.548 229.847L214.13 229.967L214.152 225.089Z" fill="#4CAF4F"/>
<path opacity="0.1" d="M214.152 225.089L187.57 224.969L187.548 229.847L214.13 229.967L214.152 225.089Z" fill="black"/>
<path d="M291.578 255.023C291.787 254.998 291.995 254.96 292.199 254.909C292.486 254.818 292.751 254.666 292.975 254.465C293.2 254.264 293.379 254.017 293.501 253.741C293.663 253.324 293.727 252.875 293.687 252.429C293.687 251.922 293.687 251.395 293.687 250.785C293.687 249.597 293.687 248.222 293.687 246.651V240.088C293.736 239.613 293.631 239.135 293.387 238.724C293.126 238.31 292.727 238.003 292.261 237.856C291.746 237.76 291.222 237.729 290.7 237.763H275.828L189.683 237.442C189.22 237.443 188.773 237.613 188.425 237.919C188.077 238.225 187.852 238.647 187.792 239.106C187.792 240.14 187.792 241.173 187.792 242.207C187.792 244.274 187.792 246.341 187.792 248.408C187.792 249.442 187.792 250.475 187.792 251.509C187.753 251.988 187.774 252.471 187.854 252.945C187.978 253.367 188.244 253.732 188.608 253.979C188.988 254.227 189.438 254.343 189.89 254.31H194.386L217.258 254.434L255.984 254.671L282.091 254.878L289.191 254.961H282.091H255.984L217.258 254.847L194.386 254.754H189.89C189.33 254.792 188.774 254.643 188.309 254.33C187.838 254.004 187.495 253.526 187.337 252.976C187.244 252.451 187.217 251.917 187.254 251.385C187.254 250.351 187.254 249.318 187.254 248.284C187.254 246.217 187.254 244.15 187.254 242.083C187.254 241.049 187.254 240.016 187.254 238.931C187.327 238.341 187.614 237.797 188.059 237.403C188.504 237.01 189.078 236.792 189.673 236.791L275.817 237.267L290.69 237.38C291.243 237.346 291.799 237.385 292.343 237.494C292.88 237.669 293.333 238.038 293.615 238.528C293.882 238.983 293.998 239.511 293.945 240.037C293.945 240.522 293.945 241.008 293.945 241.473C293.945 243.344 293.945 245.059 293.945 246.641C293.945 248.222 293.945 249.555 293.945 250.775C293.945 251.364 293.945 251.912 293.945 252.418C293.985 252.88 293.91 253.345 293.728 253.772C293.594 254.057 293.4 254.31 293.159 254.513C292.918 254.717 292.637 254.866 292.333 254.95C292.091 255.033 291.832 255.058 291.578 255.023Z" fill="#E0E0E0"/>
<path d="M243.515 197.514L194.899 197.293L194.878 201.851L243.495 202.072L243.515 197.514Z" fill="#4CAF4F"/>
<path opacity="0.2" d="M243.515 197.514L194.899 197.293L194.878 201.851L243.495 202.072L243.515 197.514Z" fill="white"/>
<path d="M199.295 246.589C199.264 247.005 199.113 247.402 198.858 247.733C198.604 248.063 198.258 248.311 197.864 248.447C197.47 248.582 197.044 248.599 196.641 248.495C196.237 248.391 195.873 248.171 195.593 247.862C195.313 247.553 195.13 247.168 195.067 246.756C195.004 246.344 195.063 245.923 195.237 245.544C195.411 245.165 195.693 244.846 196.046 244.626C196.4 244.405 196.811 244.294 197.228 244.305C197.804 244.337 198.344 244.595 198.731 245.022C199.117 245.45 199.32 246.013 199.295 246.589Z" fill="#4CAF4F"/>
<path d="M205.878 246.62C205.899 246.911 205.859 247.204 205.761 247.479C205.664 247.755 205.511 248.007 205.312 248.22C205.112 248.434 204.871 248.604 204.603 248.721C204.336 248.837 204.047 248.897 203.755 248.897C203.462 248.897 203.174 248.837 202.906 248.721C202.638 248.604 202.397 248.434 202.198 248.22C201.998 248.007 201.845 247.755 201.748 247.479C201.65 247.204 201.61 246.911 201.631 246.62C201.61 246.329 201.65 246.036 201.748 245.761C201.845 245.486 201.998 245.233 202.198 245.02C202.397 244.806 202.638 244.636 202.906 244.519C203.174 244.403 203.462 244.343 203.755 244.343C204.047 244.343 204.336 244.403 204.603 244.519C204.871 244.636 205.112 244.806 205.312 245.02C205.511 245.233 205.664 245.486 205.761 245.761C205.859 246.036 205.899 246.329 205.878 246.62Z" fill="#4CAF4F"/>
<path d="M212.472 246.651C212.442 247.067 212.29 247.464 212.036 247.795C211.781 248.125 211.435 248.373 211.041 248.509C210.647 248.644 210.222 248.661 209.818 248.557C209.414 248.453 209.05 248.233 208.77 247.924C208.491 247.615 208.308 247.23 208.245 246.818C208.181 246.406 208.24 245.985 208.415 245.606C208.589 245.227 208.87 244.908 209.224 244.688C209.578 244.467 209.989 244.356 210.405 244.367C210.98 244.402 211.519 244.66 211.905 245.087C212.291 245.514 212.495 246.076 212.472 246.651Z" fill="#4CAF4F"/>
<path d="M219.056 246.682C219.025 247.098 218.874 247.495 218.619 247.826C218.365 248.156 218.019 248.404 217.625 248.54C217.231 248.675 216.805 248.692 216.402 248.588C215.998 248.484 215.634 248.264 215.354 247.955C215.074 247.646 214.891 247.261 214.828 246.849C214.765 246.437 214.824 246.016 214.998 245.637C215.172 245.258 215.454 244.939 215.808 244.719C216.161 244.499 216.572 244.387 216.989 244.398C217.564 244.433 218.102 244.691 218.488 245.118C218.875 245.545 219.079 246.107 219.056 246.682Z" fill="#4CAF4F"/>
<path d="M225.64 246.703C225.611 247.119 225.461 247.518 225.207 247.85C224.954 248.181 224.609 248.431 224.215 248.568C223.821 248.705 223.395 248.724 222.99 248.621C222.586 248.518 222.221 248.298 221.94 247.989C221.659 247.681 221.476 247.296 221.412 246.884C221.348 246.471 221.406 246.049 221.58 245.67C221.754 245.291 222.036 244.971 222.39 244.75C222.744 244.53 223.155 244.418 223.572 244.429C224.145 244.464 224.682 244.721 225.068 245.146C225.454 245.57 225.659 246.129 225.64 246.703Z" fill="#4CAF4F"/>
<path d="M232.233 246.734C232.205 247.148 232.057 247.545 231.806 247.876C231.555 248.206 231.213 248.457 230.821 248.596C230.43 248.734 230.007 248.756 229.604 248.657C229.2 248.559 228.835 248.344 228.552 248.041C228.269 247.737 228.081 247.357 228.011 246.948C227.941 246.538 227.992 246.118 228.158 245.737C228.324 245.357 228.598 245.033 228.946 244.806C229.293 244.579 229.7 244.459 230.115 244.46C230.697 244.482 231.247 244.733 231.644 245.159C232.041 245.585 232.253 246.152 232.233 246.734Z" fill="#4CAF4F"/>
<path d="M238.817 246.765C238.837 247.056 238.797 247.349 238.7 247.624C238.602 247.899 238.449 248.152 238.25 248.365C238.051 248.579 237.81 248.749 237.542 248.866C237.274 248.982 236.985 249.042 236.693 249.042C236.401 249.042 236.112 248.982 235.844 248.866C235.576 248.749 235.335 248.579 235.136 248.365C234.937 248.152 234.784 247.899 234.686 247.624C234.589 247.349 234.549 247.056 234.569 246.765C234.549 246.473 234.589 246.181 234.686 245.906C234.784 245.63 234.937 245.378 235.136 245.164C235.335 244.951 235.576 244.78 235.844 244.664C236.112 244.548 236.401 244.487 236.693 244.487C236.985 244.487 237.274 244.548 237.542 244.664C237.81 244.78 238.051 244.951 238.25 245.164C238.449 245.378 238.602 245.63 238.7 245.906C238.797 246.181 238.837 246.473 238.817 246.765Z" fill="#4CAF4F"/>
<path d="M245.401 246.796C245.372 247.21 245.224 247.607 244.973 247.938C244.722 248.268 244.38 248.519 243.989 248.658C243.597 248.796 243.174 248.818 242.771 248.719C242.367 248.621 242.002 248.406 241.719 248.103C241.436 247.799 241.248 247.419 241.178 247.01C241.108 246.6 241.159 246.18 241.325 245.799C241.491 245.419 241.765 245.095 242.113 244.868C242.46 244.641 242.867 244.521 243.282 244.522C243.864 244.544 244.414 244.795 244.811 245.221C245.208 245.647 245.42 246.214 245.401 246.796Z" fill="#4CAF4F"/>
<path d="M251.984 246.827C251.956 247.243 251.805 247.642 251.552 247.974C251.299 248.305 250.954 248.555 250.559 248.692C250.165 248.829 249.74 248.848 249.335 248.745C248.931 248.642 248.565 248.422 248.285 248.113C248.004 247.805 247.82 247.42 247.756 247.008C247.692 246.595 247.751 246.173 247.925 245.794C248.099 245.415 248.38 245.095 248.734 244.874C249.089 244.654 249.5 244.542 249.917 244.553C250.49 244.588 251.027 244.845 251.413 245.27C251.799 245.694 252.004 246.253 251.984 246.827Z" fill="#4CAF4F"/>
<g opacity="0.2">
<path d="M199.295 246.589C199.264 247.005 199.113 247.402 198.858 247.733C198.604 248.063 198.258 248.311 197.864 248.447C197.47 248.582 197.044 248.599 196.641 248.495C196.237 248.391 195.873 248.171 195.593 247.862C195.313 247.553 195.13 247.168 195.067 246.756C195.004 246.344 195.063 245.923 195.237 245.544C195.411 245.165 195.693 244.846 196.046 244.626C196.4 244.405 196.811 244.294 197.228 244.305C197.804 244.337 198.344 244.595 198.731 245.022C199.117 245.45 199.32 246.013 199.295 246.589Z" fill="white"/>
<path d="M205.878 246.62C205.899 246.911 205.859 247.204 205.761 247.479C205.664 247.755 205.511 248.007 205.312 248.22C205.112 248.434 204.871 248.604 204.603 248.721C204.336 248.837 204.047 248.897 203.755 248.897C203.462 248.897 203.174 248.837 202.906 248.721C202.638 248.604 202.397 248.434 202.198 248.22C201.998 248.007 201.845 247.755 201.748 247.479C201.65 247.204 201.61 246.911 201.631 246.62C201.61 246.329 201.65 246.036 201.748 245.761C201.845 245.486 201.998 245.233 202.198 245.02C202.397 244.806 202.638 244.636 202.906 244.519C203.174 244.403 203.462 244.343 203.755 244.343C204.047 244.343 204.336 244.403 204.603 244.519C204.871 244.636 205.112 244.806 205.312 245.02C205.511 245.233 205.664 245.486 205.761 245.761C205.859 246.036 205.899 246.329 205.878 246.62Z" fill="white"/>
<path d="M212.472 246.651C212.442 247.067 212.29 247.464 212.036 247.795C211.781 248.125 211.435 248.373 211.041 248.509C210.647 248.644 210.222 248.661 209.818 248.557C209.414 248.453 209.05 248.233 208.77 247.924C208.491 247.615 208.308 247.23 208.245 246.818C208.181 246.406 208.24 245.985 208.415 245.606C208.589 245.227 208.87 244.908 209.224 244.688C209.578 244.467 209.989 244.356 210.405 244.367C210.98 244.402 211.519 244.66 211.905 245.087C212.291 245.514 212.495 246.076 212.472 246.651Z" fill="white"/>
<path d="M219.056 246.682C219.025 247.098 218.874 247.495 218.619 247.826C218.365 248.156 218.019 248.404 217.625 248.54C217.231 248.675 216.805 248.692 216.402 248.588C215.998 248.484 215.634 248.264 215.354 247.955C215.074 247.646 214.891 247.261 214.828 246.849C214.765 246.437 214.824 246.016 214.998 245.637C215.172 245.258 215.454 244.939 215.808 244.719C216.161 244.499 216.572 244.387 216.989 244.398C217.564 244.433 218.102 244.691 218.488 245.118C218.875 245.545 219.079 246.107 219.056 246.682Z" fill="white"/>
<path d="M225.64 246.703C225.611 247.119 225.461 247.518 225.207 247.85C224.954 248.181 224.609 248.431 224.215 248.568C223.821 248.705 223.395 248.724 222.99 248.621C222.586 248.518 222.221 248.298 221.94 247.989C221.659 247.681 221.476 247.296 221.412 246.884C221.348 246.471 221.406 246.049 221.58 245.67C221.754 245.291 222.036 244.971 222.39 244.75C222.744 244.53 223.155 244.418 223.572 244.429C224.145 244.464 224.682 244.721 225.068 245.146C225.454 245.57 225.659 246.129 225.64 246.703Z" fill="white"/>
<path d="M232.233 246.734C232.205 247.148 232.056 247.545 231.806 247.876C231.555 248.206 231.213 248.457 230.821 248.596C230.43 248.734 230.007 248.756 229.604 248.657C229.2 248.559 228.835 248.344 228.552 248.041C228.269 247.737 228.081 247.357 228.011 246.948C227.941 246.538 227.992 246.118 228.158 245.737C228.324 245.357 228.598 245.033 228.945 244.806C229.293 244.579 229.699 244.459 230.115 244.46C230.697 244.482 231.247 244.733 231.644 245.159C232.041 245.585 232.253 246.152 232.233 246.734Z" fill="white"/>
<path d="M238.817 246.765C238.837 247.056 238.797 247.349 238.7 247.624C238.602 247.899 238.449 248.152 238.25 248.365C238.051 248.579 237.81 248.749 237.542 248.866C237.274 248.982 236.985 249.042 236.693 249.042C236.401 249.042 236.112 248.982 235.844 248.866C235.576 248.749 235.335 248.579 235.136 248.365C234.937 248.152 234.784 247.899 234.686 247.624C234.589 247.349 234.549 247.056 234.569 246.765C234.549 246.473 234.589 246.181 234.686 245.906C234.784 245.63 234.937 245.378 235.136 245.164C235.335 244.951 235.576 244.78 235.844 244.664C236.112 244.548 236.401 244.487 236.693 244.487C236.985 244.487 237.274 244.548 237.542 244.664C237.81 244.78 238.051 244.951 238.25 245.164C238.449 245.378 238.602 245.63 238.7 245.906C238.797 246.181 238.837 246.473 238.817 246.765Z" fill="white"/>
<path d="M245.401 246.796C245.372 247.21 245.224 247.607 244.973 247.938C244.722 248.268 244.38 248.519 243.989 248.658C243.597 248.796 243.174 248.818 242.771 248.719C242.367 248.621 242.002 248.406 241.719 248.103C241.436 247.799 241.248 247.419 241.178 247.01C241.108 246.601 241.159 246.18 241.325 245.799C241.491 245.419 241.765 245.095 242.113 244.868C242.46 244.641 242.867 244.521 243.282 244.522C243.864 244.544 244.414 244.795 244.811 245.221C245.208 245.647 245.42 246.214 245.401 246.796Z" fill="white"/>
<path d="M251.984 246.827C251.956 247.243 251.805 247.642 251.552 247.974C251.299 248.305 250.954 248.555 250.559 248.692C250.165 248.829 249.74 248.848 249.335 248.745C248.931 248.642 248.565 248.422 248.285 248.113C248.004 247.805 247.82 247.42 247.756 247.008C247.692 246.595 247.751 246.173 247.925 245.794C248.099 245.415 248.38 245.095 248.734 244.874C249.089 244.654 249.5 244.542 249.917 244.553C250.49 244.588 251.027 244.845 251.413 245.27C251.799 245.694 252.004 246.253 251.984 246.827Z" fill="white"/>
</g>
<path d="M242.631 97.6269C243.349 97.3107 243.958 96.7904 244.382 96.1307C244.807 95.471 245.028 94.701 245.018 93.9165C245.045 93.4066 244.968 92.8966 244.791 92.4175C244.614 91.9384 244.342 91.5003 243.99 91.1299C243.639 90.7595 243.216 90.4645 242.746 90.2629C242.277 90.0614 241.772 89.9574 241.261 89.9574C240.751 89.9574 240.245 90.0614 239.776 90.2629C239.307 90.4645 238.884 90.7595 238.532 91.1299C238.181 91.5003 237.908 91.9384 237.732 92.4175C237.555 92.8966 237.478 93.4066 237.504 93.9165C237.489 94.7088 237.708 95.488 238.135 96.1558C238.562 96.8235 239.177 97.3498 239.902 97.6683C234.114 98.5364 234.373 104.82 234.373 104.82L248.057 104.882C248.057 104.882 248.377 98.4847 242.631 97.6269Z" fill="#4CAF4F"/>
<path opacity="0.1" d="M242.631 97.6269C243.349 97.3107 243.958 96.7904 244.382 96.1307C244.807 95.471 245.028 94.701 245.018 93.9165C245.045 93.4066 244.968 92.8966 244.791 92.4175C244.614 91.9384 244.342 91.5003 243.99 91.1299C243.639 90.7595 243.216 90.4645 242.746 90.2629C242.277 90.0614 241.772 89.9574 241.261 89.9574C240.751 89.9574 240.245 90.0614 239.776 90.2629C239.307 90.4645 238.884 90.7595 238.532 91.1299C238.181 91.5003 237.908 91.9384 237.732 92.4175C237.555 92.8966 237.478 93.4066 237.504 93.9165C237.489 94.7088 237.708 95.488 238.135 96.1558C238.562 96.8235 239.177 97.3498 239.902 97.6683C234.114 98.5364 234.373 104.82 234.373 104.82L248.057 104.882C248.057 104.882 248.377 98.4847 242.631 97.6269Z" fill="black"/>
<path d="M264.867 108.935L216.095 108.714L216.068 114.543L264.84 114.764L264.867 108.935Z" fill="#4CAF4F"/>
<path opacity="0.2" d="M264.867 108.935L216.095 108.714L216.068 114.543L264.84 114.764L264.867 108.935Z" fill="white"/>
</svg>
